<?xml version="1.0" encoding="UTF-8" standalone="no"?>
<!-- Created with Inkscape (http://www.inkscape.org/) -->

<svg
   width="15.240159mm"
   height="128.5mm"
   viewBox="0 0 15.240159 128.5"
   version="1.1"
   id="svg1"
   inkscape:version="1.2.2 (b0a8486541, 2022-12-01)"
   sodipodi:docname="Jab.svg"
   xml:space="preserve"
   xmlns:inkscape="http://www.inkscape.org/namespaces/inkscape"
   xmlns:sodipodi="http://sodipodi.sourceforge.net/DTD/sodipodi-0.dtd"
   xmlns="http://www.w3.org/2000/svg"
   xmlns:svg="http://www.w3.org/2000/svg"><sodipodi:namedview
     id="namedview1"
     pagecolor="#adadad"
     bordercolor="#000000"
     borderopacity="0.25"
     inkscape:showpageshadow="2"
     inkscape:pageopacity="0.0"
     inkscape:pagecheckerboard="0"
     inkscape:deskcolor="#d1d1d1"
     inkscape:document-units="mm"
     inkscape:zoom="16"
     inkscape:cx="37.687499"
     inkscape:cy="171.875"
     inkscape:window-width="1920"
     inkscape:window-height="1027"
     inkscape:window-x="0"
     inkscape:window-y="24"
     inkscape:window-maximized="1"
     inkscape:current-layer="layer4"
     showgrid="true"
     showguides="true"
     inkscape:lockguides="false"><inkscape:grid
       id="grid2"
       units="mm"
       originx="0.00015955559"
       originy="-0.00017258705"
       spacingx="1.27"
       spacingy="2.1416671"
       empcolor="#0099e5"
       empopacity="0.30196078"
       color="#0099e5"
       opacity="0.14901961"
       empspacing="2"
       enabled="true"
       visible="true"
       snapvisiblegridlinesonly="true"
       dotted="true" /></sodipodi:namedview><defs
     id="defs1"><linearGradient
       id="linearGradient15"
       gradientUnits="userSpaceOnUse"
       x1="14.17379"
       y1="1.9999999e-05"
       x2="14.17379"
       y2="28.347719">
		<stop
   offset="0"
   style="stop-color:#B0ACAE"
   id="stop1-6" />
		<stop
   offset="1"
   style="stop-color:#000000"
   id="stop2-1" />
	</linearGradient><linearGradient
       id="linearGradient16"
       gradientUnits="userSpaceOnUse"
       x1="5.12815"
       y1="-4117.3818"
       x2="27.655621"
       y2="-4117.3818"
       gradientTransform="rotate(90,-2050.495,-2052.713)">
		<stop
   offset="0"
   style="stop-color:#232223"
   id="stop3-7" />
		<stop
   offset="1"
   style="stop-color:#1F1E1F"
   id="stop4-9" />
	</linearGradient><rect
       id="SVGID_1_-0"
       x="46.755322"
       y="67.833023"
       width="18"
       height="18" /><linearGradient
       id="path5961-3_1_-4"
       gradientUnits="userSpaceOnUse"
       x1="-590.61273"
       y1="-2201.3853"
       x2="-574.11816"
       y2="-2201.3853"
       gradientTransform="rotate(90,-947.86723,-1546.453)">
		<stop
   offset="0"
   style="stop-color:#807C7E"
   id="stop1-4-9" />
		<stop
   offset="1"
   style="stop-color:#0A0A0A"
   id="stop2-6-1" />
	</linearGradient><linearGradient
       id="path5961-3_2_-0"
       gradientUnits="userSpaceOnUse"
       x1="844.57037"
       y1="-5065.5327"
       x2="859.31799"
       y2="-5065.5327"
       gradientTransform="rotate(90,-1662.7863,-3695.6815)">
		<stop
   offset="0.00559"
   style="stop-color:#4A4747"
   id="stop3-2-7" />
		<stop
   offset="1"
   style="stop-color:#1F1F1F"
   id="stop4-6-5" />
	</linearGradient><rect
       id="rect28-4"
       x="46.755322"
       y="67.833023"
       width="18"
       height="18" /><rect
       id="rect28-5"
       x="46.755322"
       y="67.833023"
       width="18"
       height="18" /><rect
       id="rect30-4"
       x="46.755322"
       y="67.833023"
       width="18"
       height="18" /><linearGradient
       id="SVGID_1_-7-9"
       gradientUnits="userSpaceOnUse"
       x1="-602.2439"
       y1="-1759.6412"
       x2="-578.86902"
       y2="-1759.6412"
       gradientTransform="rotate(90,-1175.1201,-572.7211)">
						<stop
   offset="0"
   style="stop-color:#818080"
   id="stop1-5-0" />
						<stop
   offset="1"
   style="stop-color:#575757"
   id="stop2-69-3" />
					</linearGradient><linearGradient
       id="SVGID_00000133507252578815705350000014969287794782242715_-3"
       gradientUnits="userSpaceOnUse"
       x1="1061.9836"
       y1="4127.6396"
       x2="1084.1836"
       y2="4127.6396"
       gradientTransform="matrix(0,1,1,0,-4115.8398,-1061.2317)">
					<stop
   offset="0.00559"
   style="stop-color:#FFFFFF"
   id="stop3-72-3" />
					<stop
   offset="1"
   style="stop-color:#7B7B7B"
   id="stop4-8-7" />
				</linearGradient><linearGradient
       id="SVGID_00000016783443767324647770000012896450620973326471_-3"
       gradientUnits="userSpaceOnUse"
       x1="58.8937"
       y1="90.555496"
       x2="58.8937"
       y2="87.782799"
       gradientTransform="translate(-47.0062,-77.3266)">
					<stop
   offset="0"
   style="stop-color:#FFFAFC"
   id="stop5-29-2" />
					<stop
   offset="1"
   style="stop-color:#808080"
   id="stop6-96-6" />
				</linearGradient><linearGradient
       id="SVGID_00000142168628243639577640000009478606774827061173_-5"
       gradientUnits="userSpaceOnUse"
       x1="-1250.7072"
       y1="417.8472"
       x2="-1233.2302"
       y2="417.8472"
       gradientTransform="rotate(-90,-818.08665,-412.03944)">
					<stop
   offset="0"
   style="stop-color:#AFADAD"
   id="stop7-2-2" />
					<stop
   offset="1"
   style="stop-color:#616262"
   id="stop8-7-6" />
				</linearGradient><linearGradient
       id="SVGID_00000129173681066646684810000007828613576644480430_-5"
       gradientUnits="userSpaceOnUse"
       x1="-1894.8135"
       y1="14.4203"
       x2="-1894.8135"
       y2="29.682699"
       gradientTransform="matrix(-1,0,0,1,-1883.0134,-10.2203)">
					<stop
   offset="0.00559"
   style="stop-color:#707171"
   id="stop9-1-8" />
					<stop
   offset="1"
   style="stop-color:#181717"
   id="stop10-3-7" />
				</linearGradient><linearGradient
       id="SVGID_00000158015276085111732840000007822288051635862172_-9"
       gradientUnits="userSpaceOnUse"
       x1="-1894.8135"
       y1="27.2339"
       x2="-1894.8135"
       y2="16.892099"
       gradientTransform="matrix(-1,0,0,1,-1883.0134,-10.2203)">
					<stop
   offset="0"
   style="stop-color:#595A5A"
   id="stop13-6" />
					<stop
   offset="1"
   style="stop-color:#181717"
   id="stop14-0" />
				</linearGradient><rect
       id="rect28-2"
       x="46.755322"
       y="67.833023"
       width="18"
       height="18" /><rect
       id="rect28-1"
       x="46.755322"
       y="67.833023"
       width="18"
       height="18" /><rect
       id="rect28-0"
       x="46.755322"
       y="67.833023"
       width="18"
       height="18" /><rect
       id="rect28-24"
       x="46.755322"
       y="67.833023"
       width="18"
       height="18" /><rect
       id="rect28-55"
       x="46.755322"
       y="67.833023"
       width="18"
       height="18" /><rect
       id="rect28-3"
       x="46.755322"
       y="67.833023"
       width="18"
       height="18" /><linearGradient
       id="path5961-3_1_-5-7"
       gradientUnits="userSpaceOnUse"
       x1="-1191.1049"
       y1="2073.4343"
       x2="-1165.4967"
       y2="2073.4343"
       gradientTransform="matrix(-3.267949e-7,1,1,3.267949e-7,-2361.3699,2.34907)">
		<stop
   offset="0"
   style="stop-color:#9C989A"
   id="stop1-5-2" />
		<stop
   offset="1"
   style="stop-color:#0A0A0A"
   id="stop2-7-9" />
	</linearGradient><linearGradient
       id="path5961-3_2_-3-0"
       gradientUnits="userSpaceOnUse"
       x1="-900.65356"
       y1="1052.9998"
       x2="-877.08594"
       y2="1052.9998"
       gradientTransform="matrix(6.535898e-7,1,1,-6.535898e-7,-1340.9343,-287.0806)">
			<stop
   offset="0.00559"
   style="stop-color:#403E3E"
   id="stop3-9-5" />
			<stop
   offset="1"
   style="stop-color:#2E2E2E"
   id="stop4-0-0" />
		</linearGradient><linearGradient
       id="SVGID_16_-2"
       gradientUnits="userSpaceOnUse"
       x1="-602.15857"
       y1="1785.6912"
       x2="-578.78363"
       y2="1785.6912"
       gradientTransform="matrix(0,1,1,0,-1773.8412,602.39905)">
			<stop
   offset="0"
   style="stop-color:#828181"
   id="stop138-1" />
			<stop
   offset="1"
   style="stop-color:#575757"
   id="stop140-7" />
		</linearGradient><linearGradient
       id="SVGID_17_-9"
       gradientUnits="userSpaceOnUse"
       x1="1062.069"
       y1="-4091.6899"
       x2="1084.2738"
       y2="-4091.6899"
       gradientTransform="rotate(90,-1509.3041,-2570.5358)">
		<stop
   offset="0.00559"
   style="stop-color:#FFFFFF"
   id="stop147-5" />
		<stop
   offset="1"
   style="stop-color:#7A7A7A"
   id="stop149-6" />
	</linearGradient><linearGradient
       id="SVGID_18_-8"
       gradientUnits="userSpaceOnUse"
       x1="58.861809"
       y1="-54.6409"
       x2="58.861809"
       y2="-51.86816"
       gradientTransform="matrix(1,0,0,-1,-47.00625,-41.32658)">
		<stop
   offset="0"
   style="stop-color:#FFFBFD"
   id="stop156-9" />
		<stop
   offset="1"
   style="stop-color:#808080"
   id="stop158-5" />
	</linearGradient><linearGradient
       id="SVGID_19_-5"
       gradientUnits="userSpaceOnUse"
       x1="-1240.7925"
       y1="-381.89734"
       x2="-1223.3157"
       y2="-381.89734"
       gradientTransform="matrix(0,-1,-1,0,-370.04718,-1220.1261)">
		<stop
   offset="0"
   style="stop-color:#B0AEAE"
   id="stop163-2" />
		<stop
   offset="1"
   style="stop-color:#616161"
   id="stop165-1" />
	</linearGradient><linearGradient
       id="SVGID_20_-5"
       gradientUnits="userSpaceOnUse"
       x1="-1884.8636"
       y1="21.48288"
       x2="-1884.8636"
       y2="6.22048"
       gradientTransform="rotate(180,-936.50671,12.88983)">
		<stop
   offset="0"
   style="stop-color:#FFFEFE"
   id="stop174-9" />
		<stop
   offset="1"
   style="stop-color:#545454"
   id="stop176-9" />
	</linearGradient><linearGradient
       id="SVGID_21_-1"
       gradientUnits="userSpaceOnUse"
       x1="-1884.8636"
       y1="8.3375502"
       x2="-1884.8636"
       y2="19.36582"
       gradientTransform="rotate(180,-936.50671,12.88983)">
		<stop
   offset="0"
   style="stop-color:#FFFEFE"
   id="stop191-6" />
		<stop
   offset="1"
   style="stop-color:#706C6C"
   id="stop193-2" />
	</linearGradient><rect
       id="rect67-5"
       x="46.755322"
       y="67.833023"
       width="18"
       height="18" /><rect
       id="rect67-3"
       x="46.755322"
       y="67.833023"
       width="18"
       height="18" /><linearGradient
       id="linearGradient21"
       gradientUnits="userSpaceOnUse"
       x1="-1044.7188"
       y1="1036.536"
       x2="-1044.7188"
       y2="1045.3826"
       gradientTransform="rotate(-90,-1036.6279,-1.36035)">
		<stop
   offset="0.00559"
   style="stop-color:#3D3B3B"
   id="stop3-0" />
		<stop
   offset="1"
   style="stop-color:#2D2C2C"
   id="stop4-6" />
	</linearGradient><rect
       id="rect36-8"
       x="46.755322"
       y="67.833023"
       width="18"
       height="18" /><rect
       id="rect36-5"
       x="46.755322"
       y="67.833023"
       width="18"
       height="18" /><rect
       id="rect36-54"
       x="46.755322"
       y="67.833023"
       width="18"
       height="18" /><rect
       id="rect42-0"
       x="46.755322"
       y="67.833023"
       width="18"
       height="18" /><rect
       id="rect133-5"
       x="46.755322"
       y="67.833023"
       width="18"
       height="18" /><rect
       id="rect42-2"
       x="46.755322"
       y="67.833023"
       width="18"
       height="18" /><rect
       id="rect42-5"
       x="46.755322"
       y="67.833023"
       width="18"
       height="18" /><linearGradient
       id="path5805_1_-5-0"
       gradientUnits="userSpaceOnUse"
       x1="6.9992099"
       y1="1.33285"
       x2="6.9992099"
       y2="19.459539">
			<stop
   offset="0"
   style="stop-color:#3B3B3B"
   id="stop1-3-8" />
			<stop
   offset="1"
   style="stop-color:#242424"
   id="stop2-9-8" />
		</linearGradient><linearGradient
       id="path5815_2_-1-4"
       gradientUnits="userSpaceOnUse"
       x1="6.9992099"
       y1="10.61302"
       x2="6.9992099"
       y2="19.459539">
		<stop
   offset="0.00559"
   style="stop-color:#3D3B3B"
   id="stop3-4-5" />
		<stop
   offset="1"
   style="stop-color:#2D2C2C"
   id="stop4-7-1" />
	</linearGradient><linearGradient
       id="path5805_1_-5-5"
       gradientUnits="userSpaceOnUse"
       x1="6.9992099"
       y1="1.33285"
       x2="6.9992099"
       y2="19.459539">
			<stop
   offset="0"
   style="stop-color:#3B3B3B"
   id="stop1-3-6" />
			<stop
   offset="1"
   style="stop-color:#242424"
   id="stop2-9-9" />
		</linearGradient><linearGradient
       id="path5815_2_-1-3"
       gradientUnits="userSpaceOnUse"
       x1="6.9992099"
       y1="10.61302"
       x2="6.9992099"
       y2="19.459539">
		<stop
   offset="0.00559"
   style="stop-color:#3D3B3B"
   id="stop3-4-0" />
		<stop
   offset="1"
   style="stop-color:#2D2C2C"
   id="stop4-7-4" />
	</linearGradient><rect
       id="rect42-4"
       x="46.755322"
       y="67.833023"
       width="18"
       height="18" /><rect
       id="SVGID_1_-0-0"
       x="46.755322"
       y="67.833023"
       width="18"
       height="18" /><rect
       id="rect28-4-6"
       x="46.755322"
       y="67.833023"
       width="18"
       height="18" /><rect
       id="rect28-5-2"
       x="46.755322"
       y="67.833023"
       width="18"
       height="18" /><rect
       id="rect30-4-6"
       x="46.755322"
       y="67.833023"
       width="18"
       height="18" /><rect
       id="rect28-2-2"
       x="46.755322"
       y="67.833023"
       width="18"
       height="18" /><rect
       id="rect28-1-8"
       x="46.755322"
       y="67.833023"
       width="18"
       height="18" /><rect
       id="rect28-0-9"
       x="46.755322"
       y="67.833023"
       width="18"
       height="18" /><rect
       id="rect28-24-7"
       x="46.755322"
       y="67.833023"
       width="18"
       height="18" /><rect
       id="rect28-55-3"
       x="46.755322"
       y="67.833023"
       width="18"
       height="18" /><rect
       id="rect28-3-6"
       x="46.755322"
       y="67.833023"
       width="18"
       height="18" /><rect
       id="SVGID_1_-0-5"
       x="46.755322"
       y="67.833023"
       width="18"
       height="18" /><rect
       id="rect28-4-4"
       x="46.755322"
       y="67.833023"
       width="18"
       height="18" /><rect
       id="rect28-5-4"
       x="46.755322"
       y="67.833023"
       width="18"
       height="18" /><rect
       id="rect30-4-3"
       x="46.755322"
       y="67.833023"
       width="18"
       height="18" /><rect
       id="rect28-2-0"
       x="46.755322"
       y="67.833023"
       width="18"
       height="18" /><rect
       id="rect28-1-6"
       x="46.755322"
       y="67.833023"
       width="18"
       height="18" /><rect
       id="rect28-0-8"
       x="46.755322"
       y="67.833023"
       width="18"
       height="18" /><rect
       id="rect28-24-9"
       x="46.755322"
       y="67.833023"
       width="18"
       height="18" /><rect
       id="rect28-55-2"
       x="46.755322"
       y="67.833023"
       width="18"
       height="18" /><rect
       id="rect28-3-66"
       x="46.755322"
       y="67.833023"
       width="18"
       height="18" /><rect
       id="rect42"
       x="46.755322"
       y="67.833023"
       width="18"
       height="18" /></defs><g
     inkscape:groupmode="layer"
     id="layer1"
     inkscape:label="Layer 1"
     style="display:inline"
     transform="translate(1.595556e-4,-1.7258706e-4)"><rect
       style="display:inline;fill:#3a006b;fill-opacity:1;stroke-width:15.2223;stroke-dasharray:none;paint-order:stroke fill markers"
       id="rect9"
       width="15.240159"
       height="128.5"
       x="2.7147937e-06"
       y="0"
       inkscape:label="bg"
       transform="translate(-1.6227038e-4,1.7258706e-4)" /><rect
       style="display:inline;fill:#d4d4d4;fill-opacity:1;stroke:none;stroke-width:0.292495;stroke-linejoin:round"
       id="rect80"
       width="15.240159"
       height="81.383507"
       x="-0.0001595556"
       y="47.116676" /><path
       style="font-size:4.58611px;line-height:1;font-family:Epilogue;-inkscape-font-specification:'Epilogue, Normal';text-align:center;text-anchor:middle;fill:#d4d4d4;stroke-width:0.3;stroke-linejoin:round;fill-opacity:1"
       d="m 4.7078209,8.6125296 q -0.3485444,0 -0.5663846,-0.1375833 Q 3.9235961,8.3350699 3.8227017,8.08742 3.7218072,7.837477 3.7218072,7.504984 q 0,-0.034396 0,-0.066499 0,-0.034396 0,-0.066499 h 0.3852333 q 0,0.020637 0,0.045861 0,0.022931 0,0.048154 0,0.2338916 0.059619,0.4127499 0.059619,0.1788583 0.1903236,0.2797527 0.1329972,0.1008944 0.3508374,0.1008944 0.2155472,0 0.3462513,-0.1008944 Q 5.1847764,8.0576103 5.2443958,7.8718728 5.3040152,7.6838423 5.3040152,7.4293132 V 5.1844123 h 0.3898194 v 2.2953481 q 0,0.2453569 -0.05274,0.4517319 Q 5.588354,8.1378672 5.4714082,8.2915019 5.3567555,8.4428435 5.168725,8.5276866 4.9806945,8.6125296 4.7078209,8.6125296 Z m 2.5108958,0 q -0.2774597,0 -0.4861277,-0.087136 Q 6.5262141,8.4382574 6.4115613,8.2754505 6.2969086,8.1103506 6.2969086,7.881045 q 0,-0.2384777 0.1238249,-0.3966985 0.123825,-0.1605138 0.3485444,-0.249943 0.2247194,-0.089429 0.5228166,-0.1192388 0.4494387,-0.045861 0.6397623,-0.089429 0.1903236,-0.045861 0.1903236,-0.1467555 0,-0.00229 0,-0.00229 0,-0.00229 0,-0.00459 0,-0.210961 -0.1719791,-0.3141485 -0.1719792,-0.1054806 -0.497593,-0.1054806 -0.3393721,0 -0.5274027,0.1192389 Q 6.7371751,6.6886564 6.7371751,6.9523577 H 6.3519419 q 0,-0.2728735 0.1398763,-0.4631971 0.1398764,-0.1926166 0.3875263,-0.293511 0.249943,-0.1008944 0.5755569,-0.1008944 0.2980971,0 0.5365748,0.091722 0.2407708,0.089429 0.3806472,0.2682874 0.1421694,0.1765652 0.1421694,0.4379735 0,0.048154 0,0.096308 0,0.045861 0,0.094015 v 1.0249956 q 0,0.080257 0.00688,0.1559277 0.00688,0.075671 0.02293,0.1329972 0.020638,0.068792 0.045861,0.1123597 0.025224,0.041275 0.041275,0.057326 H 8.2391262 q -0.011465,-0.011465 -0.034396,-0.05274 -0.022931,-0.043568 -0.043568,-0.1008944 -0.016051,-0.045861 -0.025224,-0.1146527 -0.00917,-0.071085 -0.00917,-0.1467556 l 0.064205,0.043568 q -0.071085,0.123825 -0.208668,0.2178402 -0.1352902,0.094015 -0.3279068,0.1467555 -0.1926167,0.05274 -0.4356805,0.05274 z m 0.061913,-0.3508374 q 0.2361847,0 0.4265082,-0.071085 Q 7.897461,8.1172297 8.0098207,7.9750603 8.1221804,7.8328909 8.1221804,7.6219298 V 7.1380952 l 0.087136,0.1467555 Q 8.062561,7.3421771 7.8424277,7.378866 7.6245874,7.4132618 7.3861097,7.4361924 7.0398584,7.4682951 6.8632932,7.5577243 6.689021,7.6471534 6.689021,7.8581145 q 0,0.1994958 0.1444624,0.3026833 0.1444625,0.1008944 0.4471458,0.1008944 z m 3.0703968,0.3508374 q -0.282045,0 -0.5274023,-0.1375833 Q 9.5782668,8.3350699 9.4246321,8.0920061 9.2732905,7.8489423 9.2732905,7.5370868 q 0,-0.00688 0,-0.011465 0,-0.00459 0,-0.011465 l 0.2797527,-0.00688 q 0,0.00459 0,0.011465 0,0.00459 0,0.00917 0,0.1972027 0.1031875,0.3600096 0.1054805,0.1628069 0.2751666,0.2591152 0.1696857,0.096308 0.3645957,0.096308 0.323321,0 0.536575,-0.2201332 0.215547,-0.2224264 0.215547,-0.6764513 0,-0.4563179 -0.213254,-0.6741582 -0.213254,-0.2201333 -0.538868,-0.2201333 -0.19491,0 -0.3645957,0.096308 Q 9.7617112,6.6427953 9.6562307,6.8033092 9.5530432,6.963823 9.5530432,7.1633188 l -0.2797527,-0.00917 q 0,-0.3141485 0.1513416,-0.5526263 0.1536347,-0.2384777 0.3989916,-0.3714749 0.2453573,-0.1352902 0.5274023,-0.1352902 0.295804,0 0.545747,0.1467555 0.249943,0.1444625 0.401285,0.4242152 0.151342,0.2797527 0.151342,0.6810373 0,0.4081638 -0.149049,0.6925026 -0.149048,0.2820458 -0.398991,0.4288013 -0.249943,0.1444625 -0.550334,0.1444625 z M 9.1609308,8.5666685 v -3.584045 h 0.3921124 v 3.584045 z"
       id="text6"
       aria-label="Jab" /><g
       id="text9"
       style="font-weight:bold;font-size:2.82222px;line-height:1;font-family:KoHo;-inkscape-font-specification:'KoHo, Bold';letter-spacing:0px;fill:#d4d4d4;stroke-width:0.3;stroke-linejoin:round;fill-opacity:1"
       inkscape:transform-center-x="-0.39687501"
       inkscape:transform-center-y="-12.501563"
       transform="rotate(-90)"
       aria-label="ECHODALIA"><path
         style="-inkscape-font-specification:'KoHo Bold';fill:#d4d4d4;fill-opacity:1"
         d="m -15.29907,14.70942 q -0.375355,0 -0.539044,-0.158044 -0.163689,-0.158044 -0.163689,-0.4572 V 13.34911 q 0,-0.299155 0.163689,-0.4572 0.163689,-0.158044 0.539044,-0.158044 h 0.660399 v 0.310444 h -0.660399 q -0.155222,0 -0.231422,0.07338 -0.07338,0.07338 -0.07338,0.231422 v 0.217311 h 0.841022 v 0.310444 h -0.841022 v 0.217311 q 0,0.155222 0.07338,0.231422 0.0762,0.07338 0.231422,0.07338 h 0.666044 v 0.310444 z m 1.735665,0.03387 q -0.397933,0 -0.606777,-0.180622 -0.208844,-0.183445 -0.208844,-0.539044 v -0.603955 q 0,-0.3556 0.208844,-0.536222 Q -13.961338,12.7 -13.563405,12.7 q 0.276578,0 0.451555,0.09313 0.1778,0.09031 0.282222,0.273755 l -0.285044,0.197556 q -0.08749,-0.135467 -0.183444,-0.194734 -0.09313,-0.05927 -0.265289,-0.05927 -0.217311,0 -0.318911,0.104422 -0.09878,0.1016 -0.09878,0.3048 v 0.603955 q 0,0.2032 0.09878,0.307622 0.1016,0.1016 0.318911,0.1016 0.186267,0 0.287867,-0.06209 0.104422,-0.06491 0.186266,-0.206022 l 0.282222,0.208844 q -0.09031,0.129822 -0.186266,0.208844 -0.09596,0.07902 -0.234245,0.121356 -0.135466,0.03951 -0.335844,0.03951 z m 1.066797,-2.009421 h 0.397933 v 0.829733 h 0.767644 v -0.829733 h 0.397933 v 1.975554 h -0.397933 v -0.835377 h -0.767644 v 0.835377 h -0.397933 z m 2.7657783,2.009421 q -0.3922883,0 -0.6011333,-0.180622 -0.206022,-0.183445 -0.206022,-0.539044 v -0.603955 q 0,-0.3556 0.206022,-0.536222 Q -10.123118,12.7 -9.7308297,12.7 q 0.3922886,0 0.5983106,0.183444 0.2088443,0.180622 0.2088443,0.536222 v 0.603955 q 0,0.355599 -0.2088443,0.539044 -0.206022,0.180622 -0.5983106,0.180622 z m 0,-0.310444 q 0.1975554,0 0.3019775,-0.104423 0.1072444,-0.107244 0.1072444,-0.304799 v -0.603955 q 0,-0.197556 -0.1072444,-0.301978 -0.1044221,-0.107244 -0.3019775,-0.107244 -0.1975554,0 -0.3048003,0.107244 -0.104422,0.104422 -0.104422,0.301978 v 0.603955 q 0,0.197555 0.104422,0.304799 0.1072449,0.104423 0.3048003,0.104423 z"
         id="path1" /><path
         style="font-style:italic;font-weight:normal;-inkscape-font-specification:'KoHo Italic';fill:#d4d4d4;fill-opacity:1"
         d="m -8.2689221,12.733866 h 0.6886217 q 0.3697109,0 0.5446885,0.160867 0.1749777,0.158044 0.1749777,0.488244 0,0.414866 -0.1241777,0.714021 -0.1241777,0.296334 -0.358422,0.454378 -0.231422,0.158044 -0.5559773,0.158044 h -0.7168439 z m 0.3697109,1.811865 q 0.397933,0 0.6152439,-0.304799 0.2201332,-0.3048 0.2201332,-0.857955 0,-0.251178 -0.1298221,-0.366889 -0.1269999,-0.118533 -0.4007553,-0.118533 h -0.4995329 l -0.2906887,1.648176 z m 2.3678408,-0.47131 h -0.8918215 l -0.307622,0.634999 h -0.2031999 l 0.8015105,-1.650999 q 0.093133,-0.189088 0.1749777,-0.270933 0.084667,-0.08467 0.2173109,-0.08467 0.1298221,0 0.1890888,0.07902 0.062089,0.07902 0.087489,0.276577 l 0.2201332,1.650999 H -5.449526 Z m -0.022578,-0.158045 -0.1100665,-0.855132 q -0.014111,-0.09313 -0.036689,-0.129822 -0.022578,-0.03951 -0.067733,-0.03951 -0.047978,0 -0.084667,0.03951 -0.033867,0.03669 -0.079022,0.129822 l -0.4148663,0.855132 z m 1.185332,0.793044 q -0.2850443,0 -0.423333,-0.104422 -0.1382888,-0.104422 -0.1382888,-0.324555 0,-0.08749 0.014111,-0.160867 l 0.2455331,-1.38571 h 0.2031999 l -0.2455332,1.38571 q -0.011289,0.05927 -0.011289,0.124178 0,0.155222 0.090311,0.2286 0.090311,0.07338 0.2793998,0.07338 h 0.6378217 l -0.028222,0.163689 z m 1.3377317,-1.975554 h 0.2031999 l -0.3471331,1.975554 h -0.2031999 z m 1.611485,1.340555 H -2.311221 l -0.307622,0.634999 h -0.2031999 l 0.8015105,-1.650999 q 0.093133,-0.189088 0.1749777,-0.270933 0.084667,-0.08467 0.2173109,-0.08467 0.1298221,0 0.1890888,0.07902 0.062089,0.07902 0.087489,0.276577 l 0.2201332,1.650999 h -0.2060221 z m -0.022578,-0.158045 -0.1100665,-0.855132 q -0.014111,-0.09313 -0.036689,-0.129822 -0.022578,-0.03951 -0.067733,-0.03951 -0.047978,0 -0.084667,0.03951 -0.033867,0.03669 -0.079022,0.129822 l -0.4148664,0.855132 z"
         id="path2" /></g></g><g
     inkscape:groupmode="layer"
     id="layer4"
     inkscape:label="text"
     style="display:inline"
     transform="translate(17.780161,-8.5668418)"><path
       id="text394-41-4-5-7-1-9"
       style="font-size:3.175px;line-height:0.8;font-family:Epilogue;-inkscape-font-specification:'Epilogue, @wght=500';font-variation-settings:'wght' 500;stroke-width:0.499999;paint-order:stroke fill markers"
       d="m -6.1882025,78.070813 v 2.341459 h 0.3286621 v -2.06344 l 0.5462199,2.063957 h 0.4728393 l 0.5415691,-2.06189 v 2.061373 h 0.3271118 v -2.341459 h -0.5891114 l -0.5203816,2.087211 -0.5177979,-2.087211 z" /><path
       id="text394-41-4-5-7-1-9-0"
       style="font-size:3.175px;line-height:0.8;font-family:Epilogue;-inkscape-font-specification:'Epilogue, @wght=500';font-variation-settings:'wght' 500;stroke-width:0.499999;paint-order:stroke fill markers"
       d="m -6.1882025,65.220951 v 2.34146 h 0.3286621 v -2.06344 l 0.5462199,2.06344 h 0.4728393 l 0.5415691,-2.061373 v 2.061373 h 0.3271118 v -2.34146 h -0.5891114 l -0.5203816,2.087211 -0.5177979,-2.087211 z" /><path
       d="m -5.9818027,77.418985 v -0.162279 h 1.7610716 v 0.162279 z"
       id="text80"
       style="font-size:2.82223px;line-height:1;font-family:Epilogue;-inkscape-font-specification:'Epilogue, Normal';text-align:center;letter-spacing:0px;text-anchor:middle;stroke:#000000;stroke-width:0.1;stroke-linejoin:round"
       aria-label="_" /><path
       id="text394-41-4-5-7-1-9-9"
       style="font-size:3.175px;line-height:0.8;font-family:Epilogue;-inkscape-font-specification:'Epilogue, @wght=500';font-variation-settings:'wght' 500;stroke-width:0.499999;paint-order:stroke fill markers"
       d="m -5.7055446,103.77105 v 2.34146 h 1.2510864 v -0.29197 h -0.9064046 v -2.04949 z" /><path
       id="text394-41-4-5-7-1-9-0-2"
       style="font-size:3.175px;line-height:0.8;font-family:Epilogue;-inkscape-font-specification:'Epilogue, @wght=500';font-variation-settings:'wght' 500;stroke-width:0.499999;paint-order:stroke fill markers"
       d="m -5.7055446,90.921191 v 2.34146 h 1.2510864 v -0.291972 h -0.9064046 v -2.049488 z" /><path
       d="m -5.9818027,103.11899 v -0.16228 h 1.7610716 v 0.16228 z"
       id="text80-4"
       style="font-size:2.82223px;line-height:1;font-family:Epilogue;-inkscape-font-specification:'Epilogue, Normal';text-align:center;letter-spacing:0px;text-anchor:middle;stroke:#000000;stroke-width:0.1;stroke-linejoin:round"
       aria-label="_" /><path
       id="text394-41-4-5-7-1-9-0-9"
       style="font-size:3.175px;line-height:0.8;font-family:Epilogue;-inkscape-font-specification:'Epilogue, @wght=500';font-variation-settings:'wght' 500;fill:#d4d4d4;fill-opacity:1;stroke-width:0.499999;paint-order:stroke fill markers"
       d="m -6.1881037,39.521025 v 2.341459 h 0.3286621 v -2.06344 l 0.5462199,2.06344 h 0.4728393 l 0.5415691,-2.061373 v 2.061373 h 0.3271118 v -2.341459 h -0.5891114 l -0.5203816,2.087211 -0.5177979,-2.087211 z" /><path
       id="text394-41-4-5-7-1-9-0-2-31"
       style="font-size:3.175px;line-height:0.8;font-family:Epilogue;-inkscape-font-specification:'Epilogue, @wght=500';font-variation-settings:'wght' 500;stroke-width:0.499999;paint-order:stroke fill markers"
       d="m -5.7437848,129.47077 v 2.34198 h 1.32705 v -0.28577 h -0.980818 v -0.74621 h 0.804602 V 130.495 h -0.804602 v -0.73846 h 0.980818 v -0.28577 z" /><path
       id="text394-41-4-5-7-1-9-0-2-3"
       style="font-size:3.175px;line-height:0.8;font-family:Epilogue;-inkscape-font-specification:'Epilogue, @wght=500';font-variation-settings:'wght' 500;stroke-width:0.499999;paint-order:stroke fill markers"
       d="m -4.9815578,116.59094 c -0.150283,0 -0.283559,0.0237 -0.399976,0.0713 -0.116413,0.0466 -0.207748,0.11517 -0.273368,0.20619 -0.06562,0.091 -0.098185,0.20158 -0.098185,0.33176 0,0.13229 0.029617,0.24485 0.088883,0.33693 0.060325,0.091 0.14128,0.16703 0.24288,0.22841 0.1016,0.0603 0.215122,0.11018 0.341064,0.14934 0.112183,0.0349 0.211415,0.0724 0.297139,0.11266 0.08678,0.0402 0.154402,0.0881 0.203089,0.14417 0.04974,0.055 0.074414,0.12367 0.074414,0.20516 0,0.1143 -0.039481,0.19722 -0.118856,0.24908 -0.079375,0.0508 -0.19489,0.076 -0.346232,0.076 -0.148167,0 -0.260706,-0.0331 -0.337964,-0.0997 -0.077258,-0.0677 -0.115755,-0.17336 -0.115755,-0.31729 v -0.0496 -0.0476 h -0.344682 v 0.0506 0.0527 c 0,0.15557 0.032075,0.28639 0.096635,0.39222 0.065617,0.10477 0.157936,0.18275 0.276469,0.23461 0.119592,0.0519 0.261747,0.078 0.426847,0.078 0.162984,0 0.304673,-0.0247 0.424264,-0.0734 0.119589,-0.0497 0.211882,-0.1213 0.277502,-0.21549 0.065614,-0.0942 0.098702,-0.20823 0.098702,-0.34158 0,-0.13229 -0.027649,-0.24188 -0.082682,-0.32866 -0.055033,-0.0868 -0.133528,-0.15935 -0.235128,-0.21756 -0.100542,-0.0582 -0.220485,-0.11053 -0.360185,-0.15709 -0.110066,-0.037 -0.208289,-0.0751 -0.295072,-0.11421 -0.085727,-0.0392 -0.153865,-0.086 -0.203605,-0.14108 -0.04868,-0.055 -0.072864,-0.12415 -0.072864,-0.2067 0,-0.11113 0.038005,-0.19159 0.114205,-0.24133 0.077259,-0.0497 0.186845,-0.0744 0.328662,-0.0744 0.14605,0 0.256129,0.0306 0.330213,0.092 0.075141,0.0614 0.112654,0.16111 0.112654,0.29869 v 0.0475 0.0491 h 0.346232 v -0.0553 -0.0558 c 0,-0.15028 -0.033577,-0.27468 -0.100252,-0.3731 -0.065617,-0.0995 -0.15791,-0.17353 -0.277502,-0.22221 -0.118534,-0.0497 -0.257738,-0.0744 -0.417546,-0.0744 z" /><g
       aria-label="RESET"
       id="text394-41-4-5-7-1-9-0-9-9"
       style="font-size:3.175px;line-height:0.8;font-family:Epilogue;-inkscape-font-specification:'Epilogue, @wght=500';font-variation-settings:'wght' 500;display:inline;fill:#ffffff;stroke-width:0.499999;paint-order:stroke fill markers"><path
         id="path4653"
         d="M -14.558135 51.286198 L -14.558135 53.627657 L -14.221722 53.627657 L -14.221722 52.65614 L -13.769036 52.65614 C -13.654736 52.65614 -13.567854 52.681305 -13.508587 52.732105 C -13.448261 52.781847 -13.418153 52.856873 -13.418153 52.957414 L -13.418153 53.189441 L -13.418153 53.419401 C -13.418153 53.468086 -13.414708 53.511036 -13.407301 53.548076 C -13.399895 53.585115 -13.391507 53.611784 -13.38198 53.627657 L -13.034197 53.627657 C -13.045837 53.613897 -13.055703 53.587726 -13.06417 53.549626 C -13.071576 53.510469 -13.075539 53.467028 -13.075539 53.419401 L -13.075539 53.16722 L -13.075539 52.91659 C -13.075539 52.81922 -13.093792 52.741709 -13.130832 52.684562 C -13.167872 52.627409 -13.214782 52.584952 -13.270876 52.557438 C -13.326967 52.529892 -13.384725 52.514096 -13.443992 52.509896 C -13.385787 52.503543 -13.323576 52.477398 -13.257956 52.430831 C -13.191281 52.383206 -13.134508 52.315559 -13.087941 52.228776 C -13.040314 52.141993 -13.016627 52.03735 -13.016627 51.914583 C -13.016627 51.705034 -13.074386 51.54807 -13.189744 51.443294 C -13.305102 51.33852 -13.475399 51.286198 -13.700823 51.286198 L -14.558135 51.286198 z M -14.221722 51.571969 L -13.781955 51.571969 C -13.649664 51.571969 -13.547972 51.601586 -13.477064 51.660852 C -13.406156 51.720119 -13.370611 51.813889 -13.370611 51.943006 C -13.370611 52.028729 -13.388885 52.104272 -13.424871 52.168832 C -13.459797 52.232328 -13.506681 52.281673 -13.565948 52.31766 C -13.625215 52.352586 -13.691852 52.37037 -13.765936 52.37037 L -14.221722 52.37037 L -14.221722 51.571969 z " /><path
         id="path4655"
         d="M -12.624403 51.286198 L -12.624403 53.627657 L -11.297353 53.627657 L -11.297353 53.341887 L -12.278688 53.341887 L -12.278688 52.595679 L -11.473569 52.595679 L -11.473569 52.309908 L -12.278688 52.309908 L -12.278688 51.571969 L -11.297353 51.571969 L -11.297353 51.286198 L -12.624403 51.286198 z " /><path
         id="path4657"
         d="M -10.144968 51.255709 C -10.295251 51.255709 -10.428527 51.279396 -10.544944 51.327022 C -10.661357 51.373589 -10.752175 51.442712 -10.817795 51.533728 C -10.883415 51.624745 -10.916497 51.735316 -10.916497 51.865491 C -10.916497 51.997783 -10.88688 52.10983 -10.827614 52.201904 C -10.767289 52.292924 -10.686334 52.369451 -10.584735 52.430831 C -10.483135 52.491154 -10.369095 52.540499 -10.243153 52.579659 C -10.13097 52.614588 -10.032255 52.652101 -9.9465306 52.692314 C -9.8597474 52.732528 -9.7921255 52.780915 -9.7434423 52.837008 C -9.6937003 52.892041 -9.6685114 52.960155 -9.6685114 53.041646 C -9.6685114 53.155944 -9.7085091 53.239384 -9.787884 53.291244 C -9.8672589 53.342044 -9.9822577 53.367208 -10.133599 53.367208 C -10.281766 53.367208 -10.394822 53.33363 -10.47208 53.266956 C -10.549339 53.199222 -10.587835 53.093596 -10.587835 52.949662 L -10.587835 52.90057 L -10.587835 52.853028 L -10.932517 52.853028 L -10.932517 52.90367 L -10.932517 52.955864 C -10.932517 53.111438 -10.899925 53.242255 -10.835365 53.348088 C -10.769749 53.452861 -10.677946 53.531356 -10.559413 53.583215 C -10.439821 53.635075 -10.297149 53.66073 -10.132049 53.66073 C -9.9690661 53.66073 -9.8278938 53.636553 -9.7083023 53.587866 C -9.5887107 53.538124 -9.4964164 53.46605 -9.4307998 53.371859 C -9.3651832 53.277667 -9.3320978 53.164144 -9.3320978 53.030794 C -9.3320978 52.898503 -9.3597469 52.788916 -9.4147801 52.702132 C -9.4698134 52.615347 -9.5477912 52.542781 -9.6493911 52.484575 C -9.7499327 52.426367 -9.8703927 52.374045 -10.010093 52.327478 C -10.120159 52.290438 -10.218382 52.252433 -10.305165 52.213273 C -10.390892 52.174115 -10.458513 52.126713 -10.508253 52.07168 C -10.556933 52.016647 -10.581634 51.948041 -10.581634 51.865491 C -10.581634 51.754364 -10.543629 51.673902 -10.467429 51.624162 C -10.39017 51.574422 -10.280583 51.549748 -10.138767 51.549748 C -9.9927174 51.549748 -9.8826378 51.580345 -9.8085546 51.641732 C -9.733413 51.703115 -9.6958999 51.802322 -9.6958999 51.939905 L -9.6958999 51.987447 L -9.6958999 52.037057 L -9.3496678 52.037057 L -9.3496678 51.981246 L -9.3496678 51.925952 C -9.3496678 51.775669 -9.3827284 51.651273 -9.4494034 51.552848 C -9.51502 51.453369 -9.607831 51.379326 -9.7274226 51.33064 C -9.8459558 51.2809 -9.9851602 51.255709 -10.144968 51.255709 z " /><path
         id="path4659"
         d="M -8.9667455 51.286198 L -8.9667455 53.627657 L -7.6396947 53.627657 L -7.6396947 53.341887 L -8.6210301 53.341887 L -8.6210301 52.595679 L -7.8159113 52.595679 L -7.8159113 52.309908 L -8.6210301 52.309908 L -8.6210301 51.571969 L -7.6396947 51.571969 L -7.6396947 51.286198 L -8.9667455 51.286198 z " /><path
         id="path4661"
         d="M -7.307932 51.286198 L -7.307932 51.571969 L -6.7079686 51.571969 L -6.7079686 53.627657 L -6.3632868 53.627657 L -6.3632868 51.571969 L -5.7617731 51.571969 L -5.7617731 51.286198 L -7.307932 51.286198 z " /></g></g></svg>
