<?xml version="1.0" encoding="UTF-8" standalone="no"?>
<!-- Created with Inkscape (http://www.inkscape.org/) -->

<svg
   width="15.240159mm"
   height="128.5mm"
   viewBox="0 0 15.240159 128.5"
   version="1.1"
   id="svg1"
   inkscape:version="1.4 (e7c3feb100, 2024-10-09)"
   sodipodi:docname="Jab.svg"
   xml:space="preserve"
   xmlns:inkscape="http://www.inkscape.org/namespaces/inkscape"
   xmlns:sodipodi="http://sodipodi.sourceforge.net/DTD/sodipodi-0.dtd"
   xmlns="http://www.w3.org/2000/svg"
   xmlns:svg="http://www.w3.org/2000/svg"><sodipodi:namedview
     id="namedview1"
     pagecolor="#adadad"
     bordercolor="#000000"
     borderopacity="0.25"
     inkscape:showpageshadow="2"
     inkscape:pageopacity="0.0"
     inkscape:pagecheckerboard="0"
     inkscape:deskcolor="#d1d1d1"
     inkscape:document-units="mm"
     inkscape:zoom="1.4142136"
     inkscape:cx="-50.558134"
     inkscape:cy="212.48558"
     inkscape:window-width="1920"
     inkscape:window-height="1027"
     inkscape:window-x="0"
     inkscape:window-y="24"
     inkscape:window-maximized="1"
     inkscape:current-layer="layer4"
     showgrid="false"
     showguides="true"
     inkscape:lockguides="false"><inkscape:grid
       id="grid2"
       units="mm"
       originx="0.00015955559"
       originy="-0.00017258705"
       spacingx="1.27"
       spacingy="2.1416671"
       empcolor="#0099e5"
       empopacity="0.30196078"
       color="#0099e5"
       opacity="0.14901961"
       empspacing="2"
       enabled="true"
       visible="false"
       snapvisiblegridlinesonly="true"
       dotted="true" /></sodipodi:namedview><defs
     id="defs1"><linearGradient
       id="linearGradient15"
       gradientUnits="userSpaceOnUse"
       x1="14.17379"
       y1="1.9999999e-05"
       x2="14.17379"
       y2="28.347719">
		<stop
   offset="0"
   style="stop-color:#B0ACAE"
   id="stop1-6" />
		<stop
   offset="1"
   style="stop-color:#000000"
   id="stop2-1" />
	</linearGradient><linearGradient
       id="linearGradient16"
       gradientUnits="userSpaceOnUse"
       x1="5.12815"
       y1="-4117.3818"
       x2="27.655621"
       y2="-4117.3818"
       gradientTransform="rotate(90,-2050.495,-2052.713)">
		<stop
   offset="0"
   style="stop-color:#232223"
   id="stop3-7" />
		<stop
   offset="1"
   style="stop-color:#1F1E1F"
   id="stop4-9" />
	</linearGradient><rect
       id="SVGID_1_-0"
       x="46.755322"
       y="67.833023"
       width="18"
       height="18" /><linearGradient
       id="path5961-3_1_-4"
       gradientUnits="userSpaceOnUse"
       x1="-590.61273"
       y1="-2201.3853"
       x2="-574.11816"
       y2="-2201.3853"
       gradientTransform="rotate(90,-947.86723,-1546.453)">
		<stop
   offset="0"
   style="stop-color:#807C7E"
   id="stop1-4-9" />
		<stop
   offset="1"
   style="stop-color:#0A0A0A"
   id="stop2-6-1" />
	</linearGradient><linearGradient
       id="path5961-3_2_-0"
       gradientUnits="userSpaceOnUse"
       x1="844.57037"
       y1="-5065.5327"
       x2="859.31799"
       y2="-5065.5327"
       gradientTransform="rotate(90,-1662.7863,-3695.6815)">
		<stop
   offset="0.00559"
   style="stop-color:#4A4747"
   id="stop3-2-7" />
		<stop
   offset="1"
   style="stop-color:#1F1F1F"
   id="stop4-6-5" />
	</linearGradient><rect
       id="rect28-4"
       x="46.755322"
       y="67.833023"
       width="18"
       height="18" /><rect
       id="rect28-5"
       x="46.755322"
       y="67.833023"
       width="18"
       height="18" /><rect
       id="rect30-4"
       x="46.755322"
       y="67.833023"
       width="18"
       height="18" /><linearGradient
       id="SVGID_1_-7-9"
       gradientUnits="userSpaceOnUse"
       x1="-602.2439"
       y1="-1759.6412"
       x2="-578.86902"
       y2="-1759.6412"
       gradientTransform="rotate(90,-1175.1201,-572.7211)">
						<stop
   offset="0"
   style="stop-color:#818080"
   id="stop1-5-0" />
						<stop
   offset="1"
   style="stop-color:#575757"
   id="stop2-69-3" />
					</linearGradient><linearGradient
       id="SVGID_00000133507252578815705350000014969287794782242715_-3"
       gradientUnits="userSpaceOnUse"
       x1="1061.9836"
       y1="4127.6396"
       x2="1084.1836"
       y2="4127.6396"
       gradientTransform="matrix(0,1,1,0,-4115.8398,-1061.2317)">
					<stop
   offset="0.00559"
   style="stop-color:#FFFFFF"
   id="stop3-72-3" />
					<stop
   offset="1"
   style="stop-color:#7B7B7B"
   id="stop4-8-7" />
				</linearGradient><linearGradient
       id="SVGID_00000016783443767324647770000012896450620973326471_-3"
       gradientUnits="userSpaceOnUse"
       x1="58.8937"
       y1="90.555496"
       x2="58.8937"
       y2="87.782799"
       gradientTransform="translate(-47.0062,-77.3266)">
					<stop
   offset="0"
   style="stop-color:#FFFAFC"
   id="stop5-29-2" />
					<stop
   offset="1"
   style="stop-color:#808080"
   id="stop6-96-6" />
				</linearGradient><linearGradient
       id="SVGID_00000142168628243639577640000009478606774827061173_-5"
       gradientUnits="userSpaceOnUse"
       x1="-1250.7072"
       y1="417.8472"
       x2="-1233.2302"
       y2="417.8472"
       gradientTransform="rotate(-90,-818.08665,-412.03944)">
					<stop
   offset="0"
   style="stop-color:#AFADAD"
   id="stop7-2-2" />
					<stop
   offset="1"
   style="stop-color:#616262"
   id="stop8-7-6" />
				</linearGradient><linearGradient
       id="SVGID_00000129173681066646684810000007828613576644480430_-5"
       gradientUnits="userSpaceOnUse"
       x1="-1894.8135"
       y1="14.4203"
       x2="-1894.8135"
       y2="29.682699"
       gradientTransform="matrix(-1,0,0,1,-1883.0134,-10.2203)">
					<stop
   offset="0.00559"
   style="stop-color:#707171"
   id="stop9-1-8" />
					<stop
   offset="1"
   style="stop-color:#181717"
   id="stop10-3-7" />
				</linearGradient><linearGradient
       id="SVGID_00000158015276085111732840000007822288051635862172_-9"
       gradientUnits="userSpaceOnUse"
       x1="-1894.8135"
       y1="27.2339"
       x2="-1894.8135"
       y2="16.892099"
       gradientTransform="matrix(-1,0,0,1,-1883.0134,-10.2203)">
					<stop
   offset="0"
   style="stop-color:#595A5A"
   id="stop13-6" />
					<stop
   offset="1"
   style="stop-color:#181717"
   id="stop14-0" />
				</linearGradient><rect
       id="rect28-2"
       x="46.755322"
       y="67.833023"
       width="18"
       height="18" /><rect
       id="rect28-1"
       x="46.755322"
       y="67.833023"
       width="18"
       height="18" /><rect
       id="rect28-0"
       x="46.755322"
       y="67.833023"
       width="18"
       height="18" /><rect
       id="rect28-24"
       x="46.755322"
       y="67.833023"
       width="18"
       height="18" /><rect
       id="rect28-55"
       x="46.755322"
       y="67.833023"
       width="18"
       height="18" /><rect
       id="rect28-3"
       x="46.755322"
       y="67.833023"
       width="18"
       height="18" /><linearGradient
       id="path5961-3_1_-5-7"
       gradientUnits="userSpaceOnUse"
       x1="-1191.1049"
       y1="2073.4343"
       x2="-1165.4967"
       y2="2073.4343"
       gradientTransform="matrix(-3.267949e-7,1,1,3.267949e-7,-2361.3699,2.34907)">
		<stop
   offset="0"
   style="stop-color:#9C989A"
   id="stop1-5-2" />
		<stop
   offset="1"
   style="stop-color:#0A0A0A"
   id="stop2-7-9" />
	</linearGradient><linearGradient
       id="path5961-3_2_-3-0"
       gradientUnits="userSpaceOnUse"
       x1="-900.65356"
       y1="1052.9998"
       x2="-877.08594"
       y2="1052.9998"
       gradientTransform="matrix(6.535898e-7,1,1,-6.535898e-7,-1340.9343,-287.0806)">
			<stop
   offset="0.00559"
   style="stop-color:#403E3E"
   id="stop3-9-5" />
			<stop
   offset="1"
   style="stop-color:#2E2E2E"
   id="stop4-0-0" />
		</linearGradient><linearGradient
       id="SVGID_16_-2"
       gradientUnits="userSpaceOnUse"
       x1="-602.15857"
       y1="1785.6912"
       x2="-578.78363"
       y2="1785.6912"
       gradientTransform="matrix(0,1,1,0,-1773.8412,602.39905)">
			<stop
   offset="0"
   style="stop-color:#828181"
   id="stop138-1" />
			<stop
   offset="1"
   style="stop-color:#575757"
   id="stop140-7" />
		</linearGradient><linearGradient
       id="SVGID_17_-9"
       gradientUnits="userSpaceOnUse"
       x1="1062.069"
       y1="-4091.6899"
       x2="1084.2738"
       y2="-4091.6899"
       gradientTransform="rotate(90,-1509.3041,-2570.5358)">
		<stop
   offset="0.00559"
   style="stop-color:#FFFFFF"
   id="stop147-5" />
		<stop
   offset="1"
   style="stop-color:#7A7A7A"
   id="stop149-6" />
	</linearGradient><linearGradient
       id="SVGID_18_-8"
       gradientUnits="userSpaceOnUse"
       x1="58.861809"
       y1="-54.6409"
       x2="58.861809"
       y2="-51.86816"
       gradientTransform="matrix(1,0,0,-1,-47.00625,-41.32658)">
		<stop
   offset="0"
   style="stop-color:#FFFBFD"
   id="stop156-9" />
		<stop
   offset="1"
   style="stop-color:#808080"
   id="stop158-5" />
	</linearGradient><linearGradient
       id="SVGID_19_-5"
       gradientUnits="userSpaceOnUse"
       x1="-1240.7925"
       y1="-381.89734"
       x2="-1223.3157"
       y2="-381.89734"
       gradientTransform="matrix(0,-1,-1,0,-370.04718,-1220.1261)">
		<stop
   offset="0"
   style="stop-color:#B0AEAE"
   id="stop163-2" />
		<stop
   offset="1"
   style="stop-color:#616161"
   id="stop165-1" />
	</linearGradient><linearGradient
       id="SVGID_20_-5"
       gradientUnits="userSpaceOnUse"
       x1="-1884.8636"
       y1="21.48288"
       x2="-1884.8636"
       y2="6.22048"
       gradientTransform="rotate(180,-936.50671,12.88983)">
		<stop
   offset="0"
   style="stop-color:#FFFEFE"
   id="stop174-9" />
		<stop
   offset="1"
   style="stop-color:#545454"
   id="stop176-9" />
	</linearGradient><linearGradient
       id="SVGID_21_-1"
       gradientUnits="userSpaceOnUse"
       x1="-1884.8636"
       y1="8.3375502"
       x2="-1884.8636"
       y2="19.36582"
       gradientTransform="rotate(180,-936.50671,12.88983)">
		<stop
   offset="0"
   style="stop-color:#FFFEFE"
   id="stop191-6" />
		<stop
   offset="1"
   style="stop-color:#706C6C"
   id="stop193-2" />
	</linearGradient><rect
       id="rect67-5"
       x="46.755322"
       y="67.833023"
       width="18"
       height="18" /><rect
       id="rect67-3"
       x="46.755322"
       y="67.833023"
       width="18"
       height="18" /><linearGradient
       id="linearGradient21"
       gradientUnits="userSpaceOnUse"
       x1="-1044.7188"
       y1="1036.536"
       x2="-1044.7188"
       y2="1045.3826"
       gradientTransform="rotate(-90,-1036.6279,-1.36035)">
		<stop
   offset="0.00559"
   style="stop-color:#3D3B3B"
   id="stop3-0" />
		<stop
   offset="1"
   style="stop-color:#2D2C2C"
   id="stop4-6" />
	</linearGradient><rect
       id="rect36-8"
       x="46.755322"
       y="67.833023"
       width="18"
       height="18" /><rect
       id="rect36-5"
       x="46.755322"
       y="67.833023"
       width="18"
       height="18" /><rect
       id="rect36-54"
       x="46.755322"
       y="67.833023"
       width="18"
       height="18" /><rect
       id="rect42-0"
       x="46.755322"
       y="67.833023"
       width="18"
       height="18" /><rect
       id="rect133-5"
       x="46.755322"
       y="67.833023"
       width="18"
       height="18" /><rect
       id="rect42-2"
       x="46.755322"
       y="67.833023"
       width="18"
       height="18" /><rect
       id="rect42-5"
       x="46.755322"
       y="67.833023"
       width="18"
       height="18" /><linearGradient
       id="path5805_1_-5-0"
       gradientUnits="userSpaceOnUse"
       x1="6.9992099"
       y1="1.33285"
       x2="6.9992099"
       y2="19.459539">
			<stop
   offset="0"
   style="stop-color:#3B3B3B"
   id="stop1-3-8" />
			<stop
   offset="1"
   style="stop-color:#242424"
   id="stop2-9-8" />
		</linearGradient><linearGradient
       id="path5815_2_-1-4"
       gradientUnits="userSpaceOnUse"
       x1="6.9992099"
       y1="10.61302"
       x2="6.9992099"
       y2="19.459539">
		<stop
   offset="0.00559"
   style="stop-color:#3D3B3B"
   id="stop3-4-5" />
		<stop
   offset="1"
   style="stop-color:#2D2C2C"
   id="stop4-7-1" />
	</linearGradient><linearGradient
       id="path5805_1_-5-5"
       gradientUnits="userSpaceOnUse"
       x1="6.9992099"
       y1="1.33285"
       x2="6.9992099"
       y2="19.459539">
			<stop
   offset="0"
   style="stop-color:#3B3B3B"
   id="stop1-3-6" />
			<stop
   offset="1"
   style="stop-color:#242424"
   id="stop2-9-9" />
		</linearGradient><linearGradient
       id="path5815_2_-1-3"
       gradientUnits="userSpaceOnUse"
       x1="6.9992099"
       y1="10.61302"
       x2="6.9992099"
       y2="19.459539">
		<stop
   offset="0.00559"
   style="stop-color:#3D3B3B"
   id="stop3-4-0" />
		<stop
   offset="1"
   style="stop-color:#2D2C2C"
   id="stop4-7-4" />
	</linearGradient><rect
       id="rect42-4"
       x="46.755322"
       y="67.833023"
       width="18"
       height="18" /><rect
       id="SVGID_1_-0-0"
       x="46.755322"
       y="67.833023"
       width="18"
       height="18" /><rect
       id="rect28-4-6"
       x="46.755322"
       y="67.833023"
       width="18"
       height="18" /><rect
       id="rect28-5-2"
       x="46.755322"
       y="67.833023"
       width="18"
       height="18" /><rect
       id="rect30-4-6"
       x="46.755322"
       y="67.833023"
       width="18"
       height="18" /><rect
       id="rect28-2-2"
       x="46.755322"
       y="67.833023"
       width="18"
       height="18" /><rect
       id="rect28-1-8"
       x="46.755322"
       y="67.833023"
       width="18"
       height="18" /><rect
       id="rect28-0-9"
       x="46.755322"
       y="67.833023"
       width="18"
       height="18" /><rect
       id="rect28-24-7"
       x="46.755322"
       y="67.833023"
       width="18"
       height="18" /><rect
       id="rect28-55-3"
       x="46.755322"
       y="67.833023"
       width="18"
       height="18" /><rect
       id="rect28-3-6"
       x="46.755322"
       y="67.833023"
       width="18"
       height="18" /><rect
       id="SVGID_1_-0-5"
       x="46.755322"
       y="67.833023"
       width="18"
       height="18" /><rect
       id="rect28-4-4"
       x="46.755322"
       y="67.833023"
       width="18"
       height="18" /><rect
       id="rect28-5-4"
       x="46.755322"
       y="67.833023"
       width="18"
       height="18" /><rect
       id="rect30-4-3"
       x="46.755322"
       y="67.833023"
       width="18"
       height="18" /><rect
       id="rect28-2-0"
       x="46.755322"
       y="67.833023"
       width="18"
       height="18" /><rect
       id="rect28-1-6"
       x="46.755322"
       y="67.833023"
       width="18"
       height="18" /><rect
       id="rect28-0-8"
       x="46.755322"
       y="67.833023"
       width="18"
       height="18" /><rect
       id="rect28-24-9"
       x="46.755322"
       y="67.833023"
       width="18"
       height="18" /><rect
       id="rect28-55-2"
       x="46.755322"
       y="67.833023"
       width="18"
       height="18" /><rect
       id="rect28-3-66"
       x="46.755322"
       y="67.833023"
       width="18"
       height="18" /><rect
       id="rect42"
       x="46.755322"
       y="67.833023"
       width="18"
       height="18" /></defs><g
     inkscape:groupmode="layer"
     id="layer1"
     inkscape:label="Layer 1"
     style="display:inline"
     transform="translate(1.595556e-4,-1.7258706e-4)"><rect
       style="display:inline;fill:#3a006b;fill-opacity:1;stroke-width:15.2223;stroke-dasharray:none;paint-order:stroke fill markers"
       id="rect9"
       width="15.240159"
       height="128.5"
       x="2.7147937e-06"
       y="0"
       inkscape:label="bg"
       transform="translate(-1.6227038e-4,1.7258706e-4)"
       sodipodi:insensitive="true" /><rect
       style="display:inline;fill:#d4d4d4;fill-opacity:1;stroke:none;stroke-width:0.292495;stroke-linejoin:round"
       id="rect80"
       width="15.240159"
       height="94.233505"
       x="-0.0001595556"
       y="34.266674" /><path
       style="font-size:4.58611px;line-height:1;font-family:Epilogue;-inkscape-font-specification:'Epilogue, Normal';text-align:center;text-anchor:middle;fill:#ffffff;stroke-width:0.3;stroke-linejoin:round"
       d="m 4.7078209,8.6125296 q -0.3485444,0 -0.5663846,-0.1375833 Q 3.9235961,8.3350699 3.8227017,8.08742 3.7218072,7.837477 3.7218072,7.504984 q 0,-0.034396 0,-0.066499 0,-0.034396 0,-0.066499 h 0.3852333 q 0,0.020637 0,0.045861 0,0.022931 0,0.048154 0,0.2338916 0.059619,0.4127499 0.059619,0.1788583 0.1903236,0.2797527 0.1329972,0.1008944 0.3508374,0.1008944 0.2155472,0 0.3462513,-0.1008944 Q 5.1847764,8.0576103 5.2443958,7.8718728 5.3040152,7.6838423 5.3040152,7.4293132 V 5.1844123 h 0.3898194 v 2.2953481 q 0,0.2453569 -0.05274,0.4517319 Q 5.588354,8.1378672 5.4714082,8.2915019 5.3567555,8.4428435 5.168725,8.5276866 4.9806945,8.6125296 4.7078209,8.6125296 Z m 2.5108958,0 q -0.2774597,0 -0.4861277,-0.087136 Q 6.5262141,8.4382574 6.4115613,8.2754505 6.2969086,8.1103506 6.2969086,7.881045 q 0,-0.2384777 0.1238249,-0.3966985 0.123825,-0.1605138 0.3485444,-0.249943 0.2247194,-0.089429 0.5228166,-0.1192388 0.4494387,-0.045861 0.6397623,-0.089429 0.1903236,-0.045861 0.1903236,-0.1467555 0,-0.00229 0,-0.00229 0,-0.00229 0,-0.00459 0,-0.210961 -0.1719791,-0.3141485 -0.1719792,-0.1054806 -0.497593,-0.1054806 -0.3393721,0 -0.5274027,0.1192389 Q 6.7371751,6.6886564 6.7371751,6.9523577 H 6.3519419 q 0,-0.2728735 0.1398763,-0.4631971 0.1398764,-0.1926166 0.3875263,-0.293511 0.249943,-0.1008944 0.5755569,-0.1008944 0.2980971,0 0.5365748,0.091722 0.2407708,0.089429 0.3806472,0.2682874 0.1421694,0.1765652 0.1421694,0.4379735 0,0.048154 0,0.096308 0,0.045861 0,0.094015 v 1.0249956 q 0,0.080257 0.00688,0.1559277 0.00688,0.075671 0.02293,0.1329972 0.020638,0.068792 0.045861,0.1123597 0.025224,0.041275 0.041275,0.057326 H 8.2391262 q -0.011465,-0.011465 -0.034396,-0.05274 -0.022931,-0.043568 -0.043568,-0.1008944 -0.016051,-0.045861 -0.025224,-0.1146527 -0.00917,-0.071085 -0.00917,-0.1467556 l 0.064205,0.043568 q -0.071085,0.123825 -0.208668,0.2178402 -0.1352902,0.094015 -0.3279068,0.1467555 -0.1926167,0.05274 -0.4356805,0.05274 z m 0.061913,-0.3508374 q 0.2361847,0 0.4265082,-0.071085 Q 7.897461,8.1172297 8.0098207,7.9750603 8.1221804,7.8328909 8.1221804,7.6219298 V 7.1380952 l 0.087136,0.1467555 Q 8.062561,7.3421771 7.8424277,7.378866 7.6245874,7.4132618 7.3861097,7.4361924 7.0398584,7.4682951 6.8632932,7.5577243 6.689021,7.6471534 6.689021,7.8581145 q 0,0.1994958 0.1444624,0.3026833 0.1444625,0.1008944 0.4471458,0.1008944 z m 3.0703968,0.3508374 q -0.282045,0 -0.5274023,-0.1375833 Q 9.5782668,8.3350699 9.4246321,8.0920061 9.2732905,7.8489423 9.2732905,7.5370868 q 0,-0.00688 0,-0.011465 0,-0.00459 0,-0.011465 l 0.2797527,-0.00688 q 0,0.00459 0,0.011465 0,0.00459 0,0.00917 0,0.1972027 0.1031875,0.3600096 0.1054805,0.1628069 0.2751666,0.2591152 0.1696857,0.096308 0.3645957,0.096308 0.323321,0 0.536575,-0.2201332 0.215547,-0.2224264 0.215547,-0.6764513 0,-0.4563179 -0.213254,-0.6741582 -0.213254,-0.2201333 -0.538868,-0.2201333 -0.19491,0 -0.3645957,0.096308 Q 9.7617112,6.6427953 9.6562307,6.8033092 9.5530432,6.963823 9.5530432,7.1633188 l -0.2797527,-0.00917 q 0,-0.3141485 0.1513416,-0.5526263 0.1536347,-0.2384777 0.3989916,-0.3714749 0.2453573,-0.1352902 0.5274023,-0.1352902 0.295804,0 0.545747,0.1467555 0.249943,0.1444625 0.401285,0.4242152 0.151342,0.2797527 0.151342,0.6810373 0,0.4081638 -0.149049,0.6925026 -0.149048,0.2820458 -0.398991,0.4288013 -0.249943,0.1444625 -0.550334,0.1444625 z M 9.1609308,8.5666685 v -3.584045 h 0.3921124 v 3.584045 z"
       id="text6"
       aria-label="Jab" /><g
       id="text9"
       style="font-weight:bold;font-size:2.82222px;line-height:1;font-family:KoHo;-inkscape-font-specification:'KoHo, Bold';letter-spacing:0px;fill:#ffffff;stroke-width:0.3;stroke-linejoin:round"
       inkscape:transform-center-x="-0.39687501"
       inkscape:transform-center-y="-12.501563"
       transform="rotate(-90)"
       aria-label="ECHODALIA"><path
         style="-inkscape-font-specification:'KoHo Bold'"
         d="m -15.29907,14.70942 q -0.375355,0 -0.539044,-0.158044 -0.163689,-0.158044 -0.163689,-0.4572 V 13.34911 q 0,-0.299155 0.163689,-0.4572 0.163689,-0.158044 0.539044,-0.158044 h 0.660399 v 0.310444 h -0.660399 q -0.155222,0 -0.231422,0.07338 -0.07338,0.07338 -0.07338,0.231422 v 0.217311 h 0.841022 v 0.310444 h -0.841022 v 0.217311 q 0,0.155222 0.07338,0.231422 0.0762,0.07338 0.231422,0.07338 h 0.666044 v 0.310444 z m 1.735665,0.03387 q -0.397933,0 -0.606777,-0.180622 -0.208844,-0.183445 -0.208844,-0.539044 v -0.603955 q 0,-0.3556 0.208844,-0.536222 Q -13.961338,12.7 -13.563405,12.7 q 0.276578,0 0.451555,0.09313 0.1778,0.09031 0.282222,0.273755 l -0.285044,0.197556 q -0.08749,-0.135467 -0.183444,-0.194734 -0.09313,-0.05927 -0.265289,-0.05927 -0.217311,0 -0.318911,0.104422 -0.09878,0.1016 -0.09878,0.3048 v 0.603955 q 0,0.2032 0.09878,0.307622 0.1016,0.1016 0.318911,0.1016 0.186267,0 0.287867,-0.06209 0.104422,-0.06491 0.186266,-0.206022 l 0.282222,0.208844 q -0.09031,0.129822 -0.186266,0.208844 -0.09596,0.07902 -0.234245,0.121356 -0.135466,0.03951 -0.335844,0.03951 z m 1.066797,-2.009421 h 0.397933 v 0.829733 h 0.767644 v -0.829733 h 0.397933 v 1.975554 h -0.397933 v -0.835377 h -0.767644 v 0.835377 h -0.397933 z m 2.7657783,2.009421 q -0.3922883,0 -0.6011333,-0.180622 -0.206022,-0.183445 -0.206022,-0.539044 v -0.603955 q 0,-0.3556 0.206022,-0.536222 Q -10.123118,12.7 -9.7308297,12.7 q 0.3922886,0 0.5983106,0.183444 0.2088443,0.180622 0.2088443,0.536222 v 0.603955 q 0,0.355599 -0.2088443,0.539044 -0.206022,0.180622 -0.5983106,0.180622 z m 0,-0.310444 q 0.1975554,0 0.3019775,-0.104423 0.1072444,-0.107244 0.1072444,-0.304799 v -0.603955 q 0,-0.197556 -0.1072444,-0.301978 -0.1044221,-0.107244 -0.3019775,-0.107244 -0.1975554,0 -0.3048003,0.107244 -0.104422,0.104422 -0.104422,0.301978 v 0.603955 q 0,0.197555 0.104422,0.304799 0.1072449,0.104423 0.3048003,0.104423 z"
         id="path1" /><path
         style="font-style:italic;font-weight:normal;-inkscape-font-specification:'KoHo Italic'"
         d="m -8.2689221,12.733866 h 0.6886217 q 0.3697109,0 0.5446885,0.160867 0.1749777,0.158044 0.1749777,0.488244 0,0.414866 -0.1241777,0.714021 -0.1241777,0.296334 -0.358422,0.454378 -0.231422,0.158044 -0.5559773,0.158044 h -0.7168439 z m 0.3697109,1.811865 q 0.397933,0 0.6152439,-0.304799 0.2201332,-0.3048 0.2201332,-0.857955 0,-0.251178 -0.1298221,-0.366889 -0.1269999,-0.118533 -0.4007553,-0.118533 h -0.4995329 l -0.2906887,1.648176 z m 2.3678408,-0.47131 h -0.8918215 l -0.307622,0.634999 h -0.2031999 l 0.8015105,-1.650999 q 0.093133,-0.189088 0.1749777,-0.270933 0.084667,-0.08467 0.2173109,-0.08467 0.1298221,0 0.1890888,0.07902 0.062089,0.07902 0.087489,0.276577 l 0.2201332,1.650999 H -5.449526 Z m -0.022578,-0.158045 -0.1100665,-0.855132 q -0.014111,-0.09313 -0.036689,-0.129822 -0.022578,-0.03951 -0.067733,-0.03951 -0.047978,0 -0.084667,0.03951 -0.033867,0.03669 -0.079022,0.129822 l -0.4148663,0.855132 z m 1.185332,0.793044 q -0.2850443,0 -0.423333,-0.104422 -0.1382888,-0.104422 -0.1382888,-0.324555 0,-0.08749 0.014111,-0.160867 l 0.2455331,-1.38571 h 0.2031999 l -0.2455332,1.38571 q -0.011289,0.05927 -0.011289,0.124178 0,0.155222 0.090311,0.2286 0.090311,0.07338 0.2793998,0.07338 h 0.6378217 l -0.028222,0.163689 z m 1.3377317,-1.975554 h 0.2031999 l -0.3471331,1.975554 h -0.2031999 z m 1.611485,1.340555 H -2.311221 l -0.307622,0.634999 h -0.2031999 l 0.8015105,-1.650999 q 0.093133,-0.189088 0.1749777,-0.270933 0.084667,-0.08467 0.2173109,-0.08467 0.1298221,0 0.1890888,0.07902 0.062089,0.07902 0.087489,0.276577 l 0.2201332,1.650999 h -0.2060221 z m -0.022578,-0.158045 -0.1100665,-0.855132 q -0.014111,-0.09313 -0.036689,-0.129822 -0.022578,-0.03951 -0.067733,-0.03951 -0.047978,0 -0.084667,0.03951 -0.033867,0.03669 -0.079022,0.129822 l -0.4148664,0.855132 z"
         id="path2" /></g></g><g
     inkscape:groupmode="layer"
     id="layer4"
     inkscape:label="text"
     style="display:inline"
     transform="translate(17.780161,-8.5668418)"><path
       id="text394-41-4-5-7-1-9"
       style="font-size:3.175px;line-height:0.8;font-family:Epilogue;-inkscape-font-specification:'Epilogue, @wght=500';font-variation-settings:'wght' 500;stroke-width:0.499999;paint-order:stroke fill markers"
       d="M -6.1881037 65.220748 L -6.1881037 67.562207 L -5.8594416 67.562207 L -5.8594416 65.498767 L -5.3132217 67.562724 L -4.8403824 67.562724 L -4.2988133 65.500834 L -4.2988133 67.562207 L -3.9717015 67.562207 L -3.9717015 65.220748 L -4.5608129 65.220748 L -5.0811945 67.307959 L -5.5989924 65.220748 L -6.1881037 65.220748 z " /><path
       id="text394-41-4-5-7-1-9-0"
       style="font-size:3.175px;line-height:0.8;font-family:Epilogue;-inkscape-font-specification:'Epilogue, @wght=500';font-variation-settings:'wght' 500;stroke-width:0.499999;paint-order:stroke fill markers"
       d="M -6.1881037 52.370886 L -6.1881037 54.712346 L -5.8594416 54.712346 L -5.8594416 52.648906 L -5.3132217 54.712346 L -4.8403824 54.712346 L -4.2988133 52.650973 L -4.2988133 54.712346 L -3.9717015 54.712346 L -3.9717015 52.370886 L -4.5608129 52.370886 L -5.0811945 54.458097 L -5.5989924 52.370886 L -6.1881037 52.370886 z " /><path
       d="m -5.9817039,64.56892 v -0.162279 h 1.7610716 v 0.162279 z"
       id="text80"
       style="font-size:2.82223px;line-height:1;font-family:Epilogue;-inkscape-font-specification:'Epilogue, Normal';text-align:center;letter-spacing:0px;text-anchor:middle;stroke:#000000;stroke-width:0.1;stroke-linejoin:round"
       aria-label="_" /><path
       id="text394-41-4-5-7-1-9-9"
       style="font-size:3.175px;line-height:0.8;font-family:Epilogue;-inkscape-font-specification:'Epilogue, @wght=500';font-variation-settings:'wght' 500;stroke-width:0.499999;paint-order:stroke fill markers"
       d="M -5.7054458 90.920988 L -5.7054458 93.262447 L -4.4543594 93.262447 L -4.4543594 92.970475 L -5.360764 92.970475 L -5.360764 90.920988 L -5.7054458 90.920988 z " /><path
       id="text394-41-4-5-7-1-9-0-2"
       style="font-size:3.175px;line-height:0.8;font-family:Epilogue;-inkscape-font-specification:'Epilogue, @wght=500';font-variation-settings:'wght' 500;stroke-width:0.499999;paint-order:stroke fill markers"
       d="M -5.7054458 78.071126 L -5.7054458 80.412586 L -4.4543594 80.412586 L -4.4543594 80.120614 L -5.360764 80.120614 L -5.360764 78.071126 L -5.7054458 78.071126 z " /><path
       d="m -5.9817039,90.268924 v -0.162278 h 1.7610716 v 0.162278 z"
       id="text80-4"
       style="font-size:2.82223px;line-height:1;font-family:Epilogue;-inkscape-font-specification:'Epilogue, Normal';text-align:center;letter-spacing:0px;text-anchor:middle;stroke:#000000;stroke-width:0.1;stroke-linejoin:round"
       aria-label="_" /><path
       id="text394-41-4-5-7-1-9-0-5"
       style="font-size:3.175px;line-height:0.8;font-family:Epilogue;-inkscape-font-specification:'Epilogue, @wght=500';font-variation-settings:'wght' 500;stroke-width:0.499999;paint-order:stroke fill markers"
       d="M -5.1618098 129.18584 L -5.1618098 132.09729 L -4.8905085 132.09729 L -4.8905085 129.18584 L -5.1618098 129.18584 z M -6.4144465 129.28144 C -6.5647298 129.28144 -6.6980054 129.30515 -6.8144221 129.35275 C -6.9308387 129.39932 -7.021657 129.46793 -7.0872736 129.55894 C -7.1528903 129.64996 -7.1859756 129.76053 -7.1859756 129.8907 C -7.1859756 130.023 -7.1563588 130.13504 -7.0970922 130.22712 C -7.0367672 130.31812 -6.9558129 130.39464 -6.8542129 130.45604 C -6.7526129 130.51639 -6.6385734 130.56574 -6.5126317 130.60487 C -6.4004484 130.63982 -6.301734 130.67784 -6.216009 130.71804 C -6.1292256 130.75828 -6.0610872 130.80615 -6.0124038 130.86222 C -5.9626625 130.91725 -5.9379898 130.98536 -5.9379898 131.06686 C -5.9379898 131.18114 -5.9779873 131.26459 -6.0573623 131.31646 C -6.1367373 131.36726 -6.251736 131.39242 -6.4030777 131.39242 C -6.5512443 131.39242 -6.6643 131.35936 -6.7415583 131.29268 C -6.8188166 131.22495 -6.8573135 131.11881 -6.8573135 130.97487 L -6.8573135 130.92578 L -6.8573135 130.87824 L -7.2014785 130.87824 L -7.2014785 130.92888 L -7.2014785 130.98159 C -7.2014785 131.13717 -7.1694023 131.26747 -7.1048436 131.3733 C -7.039227 131.47807 -6.9474248 131.55656 -6.8288915 131.60843 C -6.7092998 131.66029 -6.5666274 131.68646 -6.4015274 131.68646 C -6.238544 131.68646 -6.0973723 131.66174 -5.9777806 131.61308 C -5.858189 131.56333 -5.7653781 131.49177 -5.6997614 131.39759 C -5.6341448 131.30339 -5.6015762 131.18936 -5.6015762 131.05601 C -5.6015762 130.92372 -5.6292252 130.81413 -5.6842585 130.72734 C -5.7392918 130.64055 -5.8172695 130.56799 -5.9188695 130.50979 C -6.0194112 130.45161 -6.139871 130.39929 -6.279571 130.35269 C -6.3896377 130.31562 -6.4878601 130.27762 -6.5746434 130.23848 C -6.6603688 130.19929 -6.7279905 130.15241 -6.7777318 130.09741 C -6.8264151 130.04237 -6.8511123 129.97325 -6.8511123 129.8907 C -6.8511123 129.77957 -6.8125907 129.69911 -6.7363907 129.64937 C -6.6591323 129.59964 -6.5495452 129.57496 -6.4077285 129.57496 C -6.2616785 129.57496 -6.1515995 129.60554 -6.0775161 129.66694 C -6.0023745 129.72833 -5.9648615 129.82805 -5.9648615 129.96563 L -5.9648615 130.01318 L -5.9648615 130.06227 L -5.6191462 130.06227 L -5.6191462 130.00646 L -5.6191462 129.95116 C -5.6191462 129.80088 -5.6522067 129.67649 -5.7188817 129.57806 C -5.7844984 129.47856 -5.8773092 129.40452 -5.9969009 129.35585 C -6.1154342 129.30612 -6.2546381 129.28144 -6.4144465 129.28144 z M -4.2853775 129.31141 L -4.2853775 131.65287 L -2.9583267 131.65287 L -2.9583267 131.3671 L -3.9391454 131.3671 L -3.9391454 130.62089 L -3.1345433 130.62089 L -3.1345433 130.33512 L -3.9391454 130.33512 L -3.9391454 129.59718 L -2.9583267 129.59718 L -2.9583267 129.31141 L -4.2853775 129.31141 z " /><path
       id="text394-41-4-5-7-1-9-0-9"
       style="font-size:3.175px;line-height:0.8;font-family:Epilogue;-inkscape-font-specification:'Epilogue, @wght=500';font-variation-settings:'wght' 500;fill:#ffffff;stroke-width:0.499999;paint-order:stroke fill markers"
       d="M -6.1881037 39.521025 L -6.1881037 41.862484 L -5.8594416 41.862484 L -5.8594416 39.799044 L -5.3132217 41.862484 L -4.8403824 41.862484 L -4.2988133 39.801111 L -4.2988133 41.862484 L -3.9717015 41.862484 L -3.9717015 39.521025 L -4.5608129 39.521025 L -5.0811945 41.608236 L -5.5989924 39.521025 L -6.1881037 39.521025 z " /><path
       id="text394-41-4-5-7-1-9-0-2-31"
       style="font-size:3.175px;line-height:0.8;font-family:Epilogue;-inkscape-font-specification:'Epilogue, @wght=500';font-variation-settings:'wght' 500;stroke-width:0.499999;paint-order:stroke fill markers"
       d="M 12.036315 108.05404 L 12.036315 110.39602 L 13.363365 110.39602 L 13.363365 110.11025 L 12.382547 110.11025 L 12.382547 109.36404 L 13.187149 109.36404 L 13.187149 109.07827 L 12.382547 109.07827 L 12.382547 108.33981 L 13.363365 108.33981 L 13.363365 108.05404 L 12.036315 108.05404 z "
       transform="translate(-17.780001,8.5666692)" /><path
       id="text394-41-4-5-7-1-9-0-2-3"
       style="font-size:3.175px;line-height:0.8;font-family:Epilogue;-inkscape-font-specification:'Epilogue, @wght=500';font-variation-settings:'wght' 500;stroke-width:0.499999;paint-order:stroke fill markers"
       d="M 12.798542 95.174208 C 12.648259 95.174208 12.514983 95.197895 12.398566 95.245522 C 12.282153 95.292088 12.190818 95.360694 12.125198 95.451711 C 12.059578 95.542727 12.027013 95.653299 12.027013 95.783473 C 12.027013 95.915765 12.05663 96.028329 12.115896 96.120404 C 12.176221 96.211424 12.257176 96.287434 12.358776 96.348814 C 12.460376 96.409137 12.573898 96.458998 12.69984 96.498158 C 12.812023 96.533087 12.911255 96.5706 12.996979 96.610813 C 13.083759 96.651028 13.151381 96.698897 13.200068 96.75499 C 13.249808 96.810024 13.274482 96.878654 13.274482 96.960146 C 13.274482 97.074444 13.235001 97.157366 13.155626 97.209226 C 13.076251 97.260026 12.960736 97.285191 12.809394 97.285191 C 12.661227 97.285191 12.548688 97.25213 12.47143 97.185455 C 12.394172 97.117722 12.355675 97.012095 12.355675 96.868162 L 12.355675 96.818552 L 12.355675 96.77101 L 12.010993 96.77101 L 12.010993 96.821653 L 12.010993 96.874363 C 12.010993 97.029938 12.043068 97.160754 12.107628 97.266587 C 12.173245 97.37136 12.265564 97.449338 12.384097 97.501198 C 12.503689 97.553058 12.645844 97.579229 12.810944 97.579229 C 12.973928 97.579229 13.115617 97.554536 13.235208 97.505849 C 13.354797 97.456107 13.44709 97.384549 13.51271 97.290358 C 13.578324 97.196166 13.611412 97.082127 13.611412 96.948777 C 13.611412 96.816486 13.583763 96.706898 13.52873 96.620115 C 13.473697 96.533329 13.395202 96.460764 13.293602 96.402557 C 13.19306 96.344349 13.073117 96.292027 12.933417 96.245461 C 12.823351 96.208421 12.725128 96.170416 12.638345 96.131256 C 12.552618 96.092097 12.48448 96.045212 12.43474 95.990179 C 12.38606 95.935146 12.361876 95.866023 12.361876 95.783473 C 12.361876 95.672347 12.399881 95.591884 12.476081 95.542144 C 12.55334 95.492404 12.662926 95.46773 12.804743 95.46773 C 12.950793 95.46773 13.060872 95.498328 13.134956 95.559714 C 13.210097 95.621098 13.24761 95.720821 13.24761 95.858404 L 13.24761 95.905947 L 13.24761 95.955039 L 13.593842 95.955039 L 13.593842 95.899745 L 13.593842 95.843935 C 13.593842 95.693651 13.560265 95.569256 13.49359 95.470831 C 13.427973 95.371351 13.33568 95.297309 13.216088 95.248622 C 13.097554 95.198882 12.95835 95.174208 12.798542 95.174208 z "
       transform="translate(-17.780001,8.5666692)" /></g></svg>
