<?xml version="1.0" encoding="UTF-8" standalone="no"?>
<!-- Created with Inkscape (http://www.inkscape.org/) -->

<svg
   width="60.960003mm"
   height="128.5mm"
   viewBox="0 0 60.960004 128.5"
   version="1.1"
   id="svg1"
   inkscape:version="1.4 (e7c3feb100, 2024-10-09)"
   sodipodi:docname="Ronda2.svg"
   xml:space="preserve"
   xmlns:inkscape="http://www.inkscape.org/namespaces/inkscape"
   xmlns:sodipodi="http://sodipodi.sourceforge.net/DTD/sodipodi-0.dtd"
   xmlns="http://www.w3.org/2000/svg"
   xmlns:svg="http://www.w3.org/2000/svg"><sodipodi:namedview
     id="namedview1"
     pagecolor="#adadad"
     bordercolor="#000000"
     borderopacity="0.25"
     inkscape:showpageshadow="2"
     inkscape:pageopacity="0.0"
     inkscape:pagecheckerboard="0"
     inkscape:deskcolor="#d1d1d1"
     inkscape:document-units="mm"
     inkscape:zoom="2.0000001"
     inkscape:cx="120.24999"
     inkscape:cy="195.24999"
     inkscape:window-width="1920"
     inkscape:window-height="1027"
     inkscape:window-x="0"
     inkscape:window-y="24"
     inkscape:window-maximized="1"
     inkscape:current-layer="layer2"
     showgrid="true"
     showguides="true"><inkscape:grid
       id="grid2"
       units="mm"
       originx="0.00015955559"
       originy="0"
       spacingx="1.27"
       spacingy="2.1416671"
       empcolor="#0099e5"
       empopacity="0.30196078"
       color="#0099e5"
       opacity="0.14901961"
       empspacing="2"
       enabled="true"
       visible="true"
       snapvisiblegridlinesonly="true"
       dotted="true" /></sodipodi:namedview><defs
     id="defs1"><linearGradient
       id="linearGradient15"
       gradientUnits="userSpaceOnUse"
       x1="14.17379"
       y1="1.9999999e-05"
       x2="14.17379"
       y2="28.347719">
		<stop
   offset="0"
   style="stop-color:#B0ACAE"
   id="stop1-6" />
		<stop
   offset="1"
   style="stop-color:#000000"
   id="stop2-1" />
	</linearGradient><linearGradient
       id="linearGradient16"
       gradientUnits="userSpaceOnUse"
       x1="5.12815"
       y1="-4117.3818"
       x2="27.655621"
       y2="-4117.3818"
       gradientTransform="rotate(90,-2050.495,-2052.713)">
		<stop
   offset="0"
   style="stop-color:#232223"
   id="stop3-7" />
		<stop
   offset="1"
   style="stop-color:#1F1E1F"
   id="stop4-9" />
	</linearGradient><rect
       id="SVGID_1_-0"
       x="46.755322"
       y="67.833023"
       width="18"
       height="18" /><linearGradient
       id="path5961-3_1_-4"
       gradientUnits="userSpaceOnUse"
       x1="-590.61273"
       y1="-2201.3853"
       x2="-574.11816"
       y2="-2201.3853"
       gradientTransform="rotate(90,-947.86723,-1546.453)">
		<stop
   offset="0"
   style="stop-color:#807C7E"
   id="stop1-4-9" />
		<stop
   offset="1"
   style="stop-color:#0A0A0A"
   id="stop2-6-1" />
	</linearGradient><linearGradient
       id="path5961-3_2_-0"
       gradientUnits="userSpaceOnUse"
       x1="844.57037"
       y1="-5065.5327"
       x2="859.31799"
       y2="-5065.5327"
       gradientTransform="rotate(90,-1662.7863,-3695.6815)">
		<stop
   offset="0.00559"
   style="stop-color:#4A4747"
   id="stop3-2-7" />
		<stop
   offset="1"
   style="stop-color:#1F1F1F"
   id="stop4-6-5" />
	</linearGradient><rect
       id="rect28-4"
       x="46.755322"
       y="67.833023"
       width="18"
       height="18" /><rect
       id="rect28-5"
       x="46.755322"
       y="67.833023"
       width="18"
       height="18" /><rect
       id="rect30-4"
       x="46.755322"
       y="67.833023"
       width="18"
       height="18" /><linearGradient
       id="SVGID_1_-7-9"
       gradientUnits="userSpaceOnUse"
       x1="-602.2439"
       y1="-1759.6412"
       x2="-578.86902"
       y2="-1759.6412"
       gradientTransform="rotate(90,-1175.1201,-572.7211)">
						<stop
   offset="0"
   style="stop-color:#818080"
   id="stop1-5-0" />
						<stop
   offset="1"
   style="stop-color:#575757"
   id="stop2-69-3" />
					</linearGradient><linearGradient
       id="SVGID_00000133507252578815705350000014969287794782242715_-3"
       gradientUnits="userSpaceOnUse"
       x1="1061.9836"
       y1="4127.6396"
       x2="1084.1836"
       y2="4127.6396"
       gradientTransform="matrix(0,1,1,0,-4115.8398,-1061.2317)">
					<stop
   offset="0.00559"
   style="stop-color:#D4D4D4"
   id="stop3-72-3" />
					<stop
   offset="1"
   style="stop-color:#7B7B7B"
   id="stop4-8-7" />
				</linearGradient><linearGradient
       id="SVGID_00000016783443767324647770000012896450620973326471_-3"
       gradientUnits="userSpaceOnUse"
       x1="58.8937"
       y1="90.555496"
       x2="58.8937"
       y2="87.782799"
       gradientTransform="translate(-47.0062,-77.3266)">
					<stop
   offset="0"
   style="stop-color:#FFFAFC"
   id="stop5-29-2" />
					<stop
   offset="1"
   style="stop-color:#808080"
   id="stop6-96-6" />
				</linearGradient><linearGradient
       id="SVGID_00000142168628243639577640000009478606774827061173_-5"
       gradientUnits="userSpaceOnUse"
       x1="-1250.7072"
       y1="417.8472"
       x2="-1233.2302"
       y2="417.8472"
       gradientTransform="rotate(-90,-818.08665,-412.03944)">
					<stop
   offset="0"
   style="stop-color:#AFADAD"
   id="stop7-2-2" />
					<stop
   offset="1"
   style="stop-color:#616262"
   id="stop8-7-6" />
				</linearGradient><linearGradient
       id="SVGID_00000129173681066646684810000007828613576644480430_-5"
       gradientUnits="userSpaceOnUse"
       x1="-1894.8135"
       y1="14.4203"
       x2="-1894.8135"
       y2="29.682699"
       gradientTransform="matrix(-1,0,0,1,-1883.0134,-10.2203)">
					<stop
   offset="0.00559"
   style="stop-color:#707171"
   id="stop9-1-8" />
					<stop
   offset="1"
   style="stop-color:#181717"
   id="stop10-3-7" />
				</linearGradient><linearGradient
       id="SVGID_00000158015276085111732840000007822288051635862172_-9"
       gradientUnits="userSpaceOnUse"
       x1="-1894.8135"
       y1="27.2339"
       x2="-1894.8135"
       y2="16.892099"
       gradientTransform="matrix(-1,0,0,1,-1883.0134,-10.2203)">
					<stop
   offset="0"
   style="stop-color:#595A5A"
   id="stop13-6" />
					<stop
   offset="1"
   style="stop-color:#181717"
   id="stop14-0" />
				</linearGradient><rect
       id="rect28-2"
       x="46.755322"
       y="67.833023"
       width="18"
       height="18" /><rect
       id="rect28-1"
       x="46.755322"
       y="67.833023"
       width="18"
       height="18" /><rect
       id="rect28-0"
       x="46.755322"
       y="67.833023"
       width="18"
       height="18" /><rect
       id="rect28-24"
       x="46.755322"
       y="67.833023"
       width="18"
       height="18" /><rect
       id="rect28-55"
       x="46.755322"
       y="67.833023"
       width="18"
       height="18" /><rect
       id="rect28-3"
       x="46.755322"
       y="67.833023"
       width="18"
       height="18" /><linearGradient
       id="path5961-3_1_-5-7"
       gradientUnits="userSpaceOnUse"
       x1="-1191.1049"
       y1="2073.4343"
       x2="-1165.4967"
       y2="2073.4343"
       gradientTransform="matrix(-3.267949e-7,1,1,3.267949e-7,-2361.3699,2.34907)">
		<stop
   offset="0"
   style="stop-color:#9C989A"
   id="stop1-5-2" />
		<stop
   offset="1"
   style="stop-color:#0A0A0A"
   id="stop2-7-9" />
	</linearGradient><linearGradient
       id="path5961-3_2_-3-0"
       gradientUnits="userSpaceOnUse"
       x1="-900.65356"
       y1="1052.9998"
       x2="-877.08594"
       y2="1052.9998"
       gradientTransform="matrix(6.535898e-7,1,1,-6.535898e-7,-1340.9343,-287.0806)">
			<stop
   offset="0.00559"
   style="stop-color:#403E3E"
   id="stop3-9-5" />
			<stop
   offset="1"
   style="stop-color:#2E2E2E"
   id="stop4-0-0" />
		</linearGradient><linearGradient
       id="SVGID_16_-2"
       gradientUnits="userSpaceOnUse"
       x1="-602.15857"
       y1="1785.6912"
       x2="-578.78363"
       y2="1785.6912"
       gradientTransform="matrix(0,1,1,0,-1773.8412,602.39905)">
			<stop
   offset="0"
   style="stop-color:#828181"
   id="stop138-1" />
			<stop
   offset="1"
   style="stop-color:#575757"
   id="stop140-7" />
		</linearGradient><linearGradient
       id="SVGID_17_-9"
       gradientUnits="userSpaceOnUse"
       x1="1062.069"
       y1="-4091.6899"
       x2="1084.2738"
       y2="-4091.6899"
       gradientTransform="rotate(90,-1509.3041,-2570.5358)">
		<stop
   offset="0.00559"
   style="stop-color:#D4D4D4"
   id="stop147-5" />
		<stop
   offset="1"
   style="stop-color:#7A7A7A"
   id="stop149-6" />
	</linearGradient><linearGradient
       id="SVGID_18_-8"
       gradientUnits="userSpaceOnUse"
       x1="58.861809"
       y1="-54.6409"
       x2="58.861809"
       y2="-51.86816"
       gradientTransform="matrix(1,0,0,-1,-47.00625,-41.32658)">
		<stop
   offset="0"
   style="stop-color:#FFFBFD"
   id="stop156-9" />
		<stop
   offset="1"
   style="stop-color:#808080"
   id="stop158-5" />
	</linearGradient><linearGradient
       id="SVGID_19_-5"
       gradientUnits="userSpaceOnUse"
       x1="-1240.7925"
       y1="-381.89734"
       x2="-1223.3157"
       y2="-381.89734"
       gradientTransform="matrix(0,-1,-1,0,-370.04718,-1220.1261)">
		<stop
   offset="0"
   style="stop-color:#B0AEAE"
   id="stop163-2" />
		<stop
   offset="1"
   style="stop-color:#616161"
   id="stop165-1" />
	</linearGradient><linearGradient
       id="SVGID_20_-5"
       gradientUnits="userSpaceOnUse"
       x1="-1884.8636"
       y1="21.48288"
       x2="-1884.8636"
       y2="6.22048"
       gradientTransform="rotate(180,-936.50671,12.88983)">
		<stop
   offset="0"
   style="stop-color:#FFFEFE"
   id="stop174-9" />
		<stop
   offset="1"
   style="stop-color:#545454"
   id="stop176-9" />
	</linearGradient><linearGradient
       id="SVGID_21_-1"
       gradientUnits="userSpaceOnUse"
       x1="-1884.8636"
       y1="8.3375502"
       x2="-1884.8636"
       y2="19.36582"
       gradientTransform="rotate(180,-936.50671,12.88983)">
		<stop
   offset="0"
   style="stop-color:#FFFEFE"
   id="stop191-6" />
		<stop
   offset="1"
   style="stop-color:#706C6C"
   id="stop193-2" />
	</linearGradient><rect
       id="rect67-5"
       x="46.755322"
       y="67.833023"
       width="18"
       height="18" /><rect
       id="rect67-3"
       x="46.755322"
       y="67.833023"
       width="18"
       height="18" /><linearGradient
       id="linearGradient21"
       gradientUnits="userSpaceOnUse"
       x1="-1044.7188"
       y1="1036.536"
       x2="-1044.7188"
       y2="1045.3826"
       gradientTransform="rotate(-90,-1036.6279,-1.36035)">
		<stop
   offset="0.00559"
   style="stop-color:#3D3B3B"
   id="stop3-0" />
		<stop
   offset="1"
   style="stop-color:#2D2C2C"
   id="stop4-6" />
	</linearGradient><rect
       id="rect36-8"
       x="46.755322"
       y="67.833023"
       width="18"
       height="18" /><rect
       id="rect36-5"
       x="46.755322"
       y="67.833023"
       width="18"
       height="18" /><rect
       id="rect36-54"
       x="46.755322"
       y="67.833023"
       width="18"
       height="18" /><rect
       id="rect42-0"
       x="46.755322"
       y="67.833023"
       width="18"
       height="18" /><rect
       id="rect133-5"
       x="46.755322"
       y="67.833023"
       width="18"
       height="18" /><rect
       id="rect42-2"
       x="46.755322"
       y="67.833023"
       width="18"
       height="18" /><rect
       id="rect42-5"
       x="46.755322"
       y="67.833023"
       width="18"
       height="18" /><linearGradient
       id="path5805_1_-5-0"
       gradientUnits="userSpaceOnUse"
       x1="6.9992099"
       y1="1.33285"
       x2="6.9992099"
       y2="19.459539">
			<stop
   offset="0"
   style="stop-color:#3B3B3B"
   id="stop1-3-8" />
			<stop
   offset="1"
   style="stop-color:#242424"
   id="stop2-9-8" />
		</linearGradient><linearGradient
       id="path5815_2_-1-4"
       gradientUnits="userSpaceOnUse"
       x1="6.9992099"
       y1="10.61302"
       x2="6.9992099"
       y2="19.459539">
		<stop
   offset="0.00559"
   style="stop-color:#3D3B3B"
   id="stop3-4-5" />
		<stop
   offset="1"
   style="stop-color:#2D2C2C"
   id="stop4-7-1" />
	</linearGradient><linearGradient
       id="path5805_1_-5-5"
       gradientUnits="userSpaceOnUse"
       x1="6.9992099"
       y1="1.33285"
       x2="6.9992099"
       y2="19.459539">
			<stop
   offset="0"
   style="stop-color:#3B3B3B"
   id="stop1-3-6" />
			<stop
   offset="1"
   style="stop-color:#242424"
   id="stop2-9-9" />
		</linearGradient><linearGradient
       id="path5815_2_-1-3"
       gradientUnits="userSpaceOnUse"
       x1="6.9992099"
       y1="10.61302"
       x2="6.9992099"
       y2="19.459539">
		<stop
   offset="0.00559"
   style="stop-color:#3D3B3B"
   id="stop3-4-0" />
		<stop
   offset="1"
   style="stop-color:#2D2C2C"
   id="stop4-7-4" />
	</linearGradient><rect
       id="rect42-4"
       x="46.755322"
       y="67.833023"
       width="18"
       height="18" /><rect
       id="SVGID_1_-0-0"
       x="46.755322"
       y="67.833023"
       width="18"
       height="18" /><rect
       id="rect28-4-6"
       x="46.755322"
       y="67.833023"
       width="18"
       height="18" /><rect
       id="rect28-5-2"
       x="46.755322"
       y="67.833023"
       width="18"
       height="18" /><rect
       id="rect30-4-6"
       x="46.755322"
       y="67.833023"
       width="18"
       height="18" /><rect
       id="rect28-2-2"
       x="46.755322"
       y="67.833023"
       width="18"
       height="18" /><rect
       id="rect28-1-8"
       x="46.755322"
       y="67.833023"
       width="18"
       height="18" /><rect
       id="rect28-0-9"
       x="46.755322"
       y="67.833023"
       width="18"
       height="18" /><rect
       id="rect28-24-7"
       x="46.755322"
       y="67.833023"
       width="18"
       height="18" /><rect
       id="rect28-55-3"
       x="46.755322"
       y="67.833023"
       width="18"
       height="18" /><rect
       id="rect28-3-6"
       x="46.755322"
       y="67.833023"
       width="18"
       height="18" /><rect
       id="SVGID_1_-0-5"
       x="46.755322"
       y="67.833023"
       width="18"
       height="18" /><rect
       id="rect28-4-4"
       x="46.755322"
       y="67.833023"
       width="18"
       height="18" /><rect
       id="rect28-5-4"
       x="46.755322"
       y="67.833023"
       width="18"
       height="18" /><rect
       id="rect30-4-3"
       x="46.755322"
       y="67.833023"
       width="18"
       height="18" /><rect
       id="rect28-2-0"
       x="46.755322"
       y="67.833023"
       width="18"
       height="18" /><rect
       id="rect28-1-6"
       x="46.755322"
       y="67.833023"
       width="18"
       height="18" /><rect
       id="rect28-0-8"
       x="46.755322"
       y="67.833023"
       width="18"
       height="18" /><rect
       id="rect28-24-9"
       x="46.755322"
       y="67.833023"
       width="18"
       height="18" /><rect
       id="rect28-55-2"
       x="46.755322"
       y="67.833023"
       width="18"
       height="18" /><rect
       id="rect28-3-66"
       x="46.755322"
       y="67.833023"
       width="18"
       height="18" /></defs><g
     inkscape:groupmode="layer"
     id="layer1"
     inkscape:label="Layer 1"
     style="display:inline"
     transform="translate(1.5955559e-4,-1.7258706e-4)"><rect
       style="display:inline;fill:#3a006b;fill-opacity:1;stroke-width:15.2223;stroke-dasharray:none;paint-order:stroke fill markers"
       id="rect9"
       width="60.960003"
       height="128.5"
       x="2.7147937e-06"
       y="0"
       inkscape:label="bg"
       transform="translate(-1.6227038e-4,1.7258706e-4)"
       sodipodi:insensitive="true" /><rect
       style="font-variation-settings:'wght' 500;fill:#d4d4d4;fill-opacity:1;stroke:none;stroke-width:0.418329;stroke-dasharray:none;stroke-opacity:1;paint-order:stroke fill markers"
       id="rect139"
       width="60.960003"
       height="14.991653"
       x="-2.7147942e-06"
       y="113.50835"
       sodipodi:insensitive="true" /><rect
       style="font-variation-settings:'wght' 500;display:inline;fill:none;stroke:#d4d4d4;stroke-width:0.508432;stroke-dasharray:none;paint-order:stroke fill markers"
       id="rect2"
       width="15.231567"
       height="87.554123"
       x="15.244215"
       y="27.841675"
       sodipodi:insensitive="true" /><rect
       style="display:inline;fill:none;stroke:#d4d4d4;stroke-width:0.538088;stroke-dasharray:none;paint-order:stroke fill markers"
       id="rect2-1"
       width="14.95891"
       height="59.453972"
       x="0.26911211"
       y="55.92701"
       sodipodi:insensitive="true" /><rect
       style="font-variation-settings:'wght' 500;fill:#d4d4d4;fill-opacity:1;stroke:#d4d4d4;stroke-width:0.651947;stroke-dasharray:none;paint-order:stroke fill markers"
       id="rect3"
       width="45.148926"
       x="15.485099"
       y="28.167648"
       height="3.8405194"
       sodipodi:insensitive="true" /><rect
       style="display:inline;fill:#d4d4d4;fill-opacity:1;stroke:#d4d4d4;stroke-width:0.529734;stroke-dasharray:none;stroke-opacity:1;paint-order:stroke fill markers"
       id="rect3-4"
       width="14.967335"
       x="0.2648662"
       y="55.693642"
       height="4.2627373"
       sodipodi:insensitive="true" /><rect
       style="font-variation-settings:'wght' 500;display:inline;fill:none;stroke:#d4d4d4;stroke-width:0.518576;stroke-dasharray:none;paint-order:stroke fill markers"
       id="rect39-6"
       width="14.985462"
       height="87.549057"
       x="45.722263"
       y="27.841675"
       sodipodi:insensitive="true" /><rect
       style="font-variation-settings:'wght' 500;display:inline;fill:none;stroke:#d4d4d4;stroke-width:0.508432;stroke-dasharray:none;paint-order:stroke fill markers"
       id="rect39"
       width="15.231569"
       height="87.554123"
       x="30.484213"
       y="27.841675"
       sodipodi:insensitive="true" /><path
       style="font-size:4.58611px;line-height:1;font-family:Epilogue;-inkscape-font-specification:'Epilogue, Normal';text-align:center;text-anchor:middle;fill:#d4d4d4;stroke-width:0.3;stroke-linejoin:round"
       d="m 24.890316,7.2472175 v -3.382256 h 1.174044 q 0.46549,0 0.708554,0.2201334 0.243064,0.2201333 0.243064,0.6718646 0,0.270581 -0.103187,0.460905 -0.100895,0.18803 -0.245357,0.291218 -0.14217,0.103187 -0.263702,0.116945 0.123825,0.0092 0.243064,0.06879 0.121532,0.05733 0.201789,0.178858 0.08026,0.121532 0.08026,0.325614 0,0.188031 0,0.385233 0,0.19491 0,0.385234 0,0.0986 0.01605,0.176565 0.01605,0.07567 0.03669,0.100894 H 26.58718 q -0.01605,-0.02981 -0.0321,-0.103187 -0.01605,-0.07338 -0.01605,-0.174272 0,-0.176566 0,-0.36001 0,-0.183444 0,-0.362303 0,-0.224719 -0.14217,-0.334786 -0.142169,-0.110066 -0.401284,-0.110066 H 25.16319 l 0.110066,-0.149049 v 1.593673 z m 0.38294,-1.625776 -0.110066,-0.162807 h 0.836965 q 0.169686,0 0.307269,-0.08255 0.139877,-0.08484 0.222426,-0.233891 0.08484,-0.151342 0.08484,-0.353131 0,-0.314148 -0.1651,-0.4471455 -0.1651,-0.1329972 -0.476956,-0.1329972 h -0.818621 l 0.119239,-0.169686 z m 3.526716,1.669344 q -0.366889,0 -0.648935,-0.162807 -0.279752,-0.1651 -0.440266,-0.449438 -0.158221,-0.286632 -0.158221,-0.651228 0,-0.364596 0.158221,-0.646642 0.160514,-0.282045 0.440266,-0.442559 0.282046,-0.160514 0.648935,-0.160514 0.366889,0 0.646641,0.160514 0.282046,0.160514 0.440267,0.442559 0.160514,0.282046 0.160514,0.646642 0,0.364596 -0.160514,0.651228 -0.158221,0.284338 -0.440267,0.449438 -0.279752,0.162807 -0.646641,0.162807 z m 0,-0.357716 q 0.252236,0 0.444853,-0.11236 0.192616,-0.11236 0.30039,-0.316442 0.110066,-0.204081 0.110066,-0.476955 0,-0.272874 -0.110066,-0.472369 -0.107774,-0.201789 -0.30039,-0.309563 -0.192617,-0.110066 -0.444853,-0.110066 -0.249943,0 -0.444853,0.110066 -0.192616,0.107774 -0.302683,0.309563 -0.107774,0.199495 -0.107774,0.472369 0,0.272874 0.107774,0.476955 0.110067,0.204082 0.302683,0.316442 0.19491,0.11236 0.444853,0.11236 z m 3.597804,0.314148 v -1.167165 q 0,-0.10548 0,-0.171979 0,-0.06879 0,-0.130704 0,-0.190324 -0.06421,-0.332493 -0.0642,-0.142169 -0.201789,-0.220133 -0.137583,-0.07796 -0.360009,-0.07796 -0.19491,0 -0.362303,0.100894 -0.1651,0.0986 -0.265994,0.268288 -0.0986,0.167393 -0.0986,0.376061 l -0.222426,-0.08484 q 0,-0.286632 0.139876,-0.520524 0.14217,-0.233891 0.376061,-0.371475 0.236185,-0.139876 0.513645,-0.139876 0.282046,0 0.493007,0.107774 0.210961,0.107773 0.325613,0.309562 0.116946,0.199496 0.116946,0.481542 0,0.100894 0,0.220133 0,0.119239 0,0.222426 v 1.130476 z m -1.742722,0 v -2.435224 h 0.389819 v 2.435224 z m 3.815647,0.04586 q -0.30039,0 -0.550333,-0.144462 -0.249943,-0.146756 -0.398991,-0.428801 -0.149049,-0.284339 -0.149049,-0.692503 0,-0.401285 0.151342,-0.681037 0.151341,-0.279753 0.401284,-0.424216 0.249943,-0.146755 0.545747,-0.146755 0.282046,0 0.527403,0.13529 0.24765,0.132997 0.398992,0.371475 0.151341,0.238478 0.151341,0.552626 0,0.0069 0,0.01376 0,0.0069 0,0.01376 l -0.279752,0.01146 q 0,-0.0069 0,-0.01376 0,-0.0092 0,-0.01605 0,-0.199496 -0.105481,-0.36001 -0.103187,-0.160514 -0.272873,-0.254529 -0.169687,-0.09631 -0.364596,-0.09631 -0.325614,0 -0.538868,0.220133 -0.213254,0.21784 -0.213254,0.674158 0,0.454025 0.213254,0.676451 0.215547,0.220134 0.538868,0.220134 0.204082,0 0.371475,-0.0986 0.169686,-0.0986 0.27058,-0.263701 0.100895,-0.167393 0.100895,-0.373768 l 0.279752,0.0069 q 0,0.311856 -0.144462,0.561799 -0.144463,0.247649 -0.38982,0.392112 -0.243063,0.144462 -0.543454,0.144462 z m 0.797984,-0.04586 V 3.6631726 h 0.392112 v 3.5840449 z m 1.92846,0.04586 q -0.27746,0 -0.486128,-0.08714 -0.206375,-0.08714 -0.321027,-0.249943 -0.114653,-0.1651 -0.114653,-0.394405 0,-0.238478 0.123825,-0.396699 0.123825,-0.160514 0.348544,-0.249943 0.22472,-0.08943 0.522817,-0.119239 0.449439,-0.04586 0.639762,-0.08943 0.190324,-0.04586 0.190324,-0.146755 0,-0.0023 0,-0.0023 0,-0.0023 0,-0.0046 0,-0.210961 -0.171979,-0.314149 -0.171979,-0.10548 -0.497593,-0.10548 -0.339372,0 -0.527403,0.119238 -0.18803,0.116946 -0.18803,0.380648 H 36.33037 q 0,-0.272874 0.139877,-0.463198 0.139876,-0.192616 0.387526,-0.293511 0.249943,-0.100894 0.575557,-0.100894 0.298097,0 0.536575,0.09172 0.24077,0.08943 0.380647,0.268288 0.142169,0.176565 0.142169,0.437973 0,0.04815 0,0.09631 0,0.04586 0,0.09402 v 1.024995 q 0,0.08026 0.0069,0.155928 0.0069,0.07567 0.02293,0.132997 0.02064,0.06879 0.04586,0.11236 0.02522,0.04128 0.04127,0.05733 h -0.392112 q -0.01147,-0.01146 -0.0344,-0.05274 -0.02293,-0.04357 -0.04357,-0.100894 -0.01605,-0.04586 -0.02522,-0.114653 -0.0092,-0.07109 -0.0092,-0.146756 l 0.06421,0.04357 q -0.07108,0.123825 -0.208668,0.217841 -0.13529,0.09402 -0.327906,0.146755 -0.192617,0.05274 -0.435681,0.05274 z m 0.06191,-0.350837 q 0.236184,0 0.426508,-0.07109 0.190323,-0.07338 0.302683,-0.215547 0.11236,-0.142169 0.11236,-0.35313 v -0.483835 l 0.08714,0.146756 q -0.146756,0.05733 -0.366889,0.09402 -0.21784,0.0344 -0.456318,0.05733 -0.346251,0.0321 -0.522816,0.121532 -0.174273,0.08943 -0.174273,0.30039 0,0.199496 0.144463,0.302684 0.144462,0.100894 0.447146,0.100894 z"
       id="text6"
       aria-label="Ronda" /><g
       id="text9"
       style="font-weight:bold;font-size:4.58611px;line-height:1;font-family:KoHo;-inkscape-font-specification:'KoHo, Bold';letter-spacing:0px;display:none;fill:#d4d4d4;stroke-width:0.3;stroke-linejoin:round"
       aria-label="ECHODALIA"><path
         style="-inkscape-font-specification:'KoHo Bold'"
         d="m 6.8398402,7.5486445 q -0.6099527,0 -0.875947,-0.2568221 Q 5.6978988,7.0350002 5.6978988,6.5488725 v -1.210733 q 0,-0.4861277 0.2659944,-0.7429499 0.2659943,-0.2568221 0.875947,-0.2568221 H 7.91299 V 4.8428396 H 6.8398402 q -0.2522361,0 -0.376061,0.1192388 Q 6.3445403,5.0813173 6.3445403,5.3381395 V 5.6912699 H 7.7112011 V 6.1957421 H 6.3445403 v 0.3531304 q 0,0.2522361 0.1192389,0.3760611 0.1238249,0.1192388 0.376061,0.1192388 h 1.082322 v 0.5044721 z m 2.8204576,0.055033 q -0.6466415,0 -0.9860137,-0.2935111 Q 8.334912,7.0120697 8.334912,6.4342198 V 5.4527922 q 0,-0.5778499 0.3393721,-0.8713609 0.3393722,-0.2980972 0.9860137,-0.2980972 0.4494392,0 0.7337772,0.1513417 0.288925,0.1467555 0.458611,0.4448527 L 10.389489,5.2005562 Q 10.24732,4.9804229 10.091392,4.8841146 9.9400505,4.7878063 9.6602978,4.7878063 q -0.3531305,0 -0.5182304,0.169686 -0.1605139,0.1651 -0.1605139,0.4952999 v 0.9814276 q 0,0.3301999 0.1605139,0.499886 0.1650999,0.1651 0.5182304,0.1651 0.3026833,0 0.4677832,-0.1008945 0.169686,-0.1054805 0.302683,-0.334786 l 0.458611,0.3393721 Q 10.74262,7.2138585 10.586692,7.3422696 10.430764,7.4706807 10.206045,7.5394723 9.9859116,7.6036779 9.6602978,7.6036775 Z m 1.7335452,-3.26531 h 0.646642 v 1.3483163 h 1.247422 V 4.3383675 h 0.646641 v 3.210277 H 13.287907 V 6.1911559 h -1.247422 v 1.3574886 h -0.646642 z m 4.494393,3.2653104 q -0.637469,0 -0.976842,-0.2935111 -0.334786,-0.2980971 -0.334786,-0.875947 V 5.4527922 q 0,-0.5778499 0.334786,-0.8713609 0.339373,-0.2980972 0.976842,-0.2980972 0.637469,0 0.972255,0.2980972 0.339372,0.293511 0.339372,0.8713609 v 0.9814276 q 0,0.5778499 -0.339372,0.875947 -0.334786,0.2935111 -0.972255,0.2935111 z m 0,-0.5044721 q 0.321028,0 0.490714,-0.1696861 0.174272,-0.1742722 0.174272,-0.4952999 V 5.4527922 q 0,-0.3210277 -0.174272,-0.4907138 -0.169686,-0.1742721 -0.490714,-0.1742721 -0.321028,0 -0.4953,0.1742721 -0.169686,0.1696861 -0.169686,0.4907138 v 0.9814276 q 0,0.3210277 0.169686,0.4952999 0.174272,0.1696861 0.4953,0.1696861 z"
         id="path1" /><path
         style="font-style:italic;font-weight:normal;-inkscape-font-specification:'KoHo Italic'"
         d="m 18.263837,4.3383675 h 1.119011 q 0.600781,0 0.88512,0.2614082 0.284338,0.2568222 0.284338,0.7933971 0,0.6741582 -0.201788,1.1602858 -0.201789,0.4815416 -0.582436,0.7383638 -0.376061,0.2568221 -0.903464,0.2568221 h -1.164872 z m 0.600781,2.9442827 q 0.646641,0 0.999772,-0.4952999 0.357716,-0.4952999 0.357716,-1.3941775 0,-0.4081638 -0.210961,-0.5961943 Q 19.80477,4.6043618 19.359918,4.6043618 H 18.548176 L 18.075807,7.2826502 Z M 22.71236,6.5167698 h -1.44921 l -0.499886,1.0318747 h -0.3302 l 1.302455,-2.6828744 q 0.151342,-0.3072694 0.284339,-0.4402665 0.137583,-0.1375833 0.35313,-0.1375833 0.210961,0 0.30727,0.128411 0.100894,0.1284111 0.142169,0.4494388 l 0.357717,2.6828744 H 22.845358 Z M 22.675672,6.2599476 22.496813,4.8703562 q -0.02293,-0.1513416 -0.05962,-0.210961 -0.03669,-0.064206 -0.110067,-0.064206 -0.07796,0 -0.137583,0.064206 -0.05503,0.059619 -0.128411,0.210961 l -0.674158,1.3895914 z m 1.926165,1.2886969 q -0.463197,0 -0.687916,-0.169686 -0.22472,-0.1696861 -0.22472,-0.5274027 0,-0.1421694 0.02293,-0.2614083 l 0.398992,-2.25178 h 0.3302 l -0.398992,2.25178 q -0.01834,0.096308 -0.01834,0.2017889 0,0.252236 0.146756,0.3714749 0.146756,0.1192389 0.454025,0.1192389 h 1.036461 l -0.04586,0.2659943 z m 2.173817,-3.210277 h 0.330199 l -0.564091,3.210277 h -0.3302 z m 2.618663,2.1784023 H 27.945106 L 27.44522,7.5486445 h -0.3302 l 1.302455,-2.6828744 q 0.151342,-0.3072694 0.284339,-0.4402665 0.137583,-0.1375833 0.353131,-0.1375833 0.210961,0 0.307269,0.128411 0.100894,0.1284111 0.142169,0.4494388 L 29.8621,7.5486445 H 29.527314 Z M 29.357628,6.2599476 29.17877,4.8703562 q -0.02293,-0.1513416 -0.05962,-0.210961 -0.03669,-0.064206 -0.110066,-0.064206 -0.07796,0 -0.137584,0.064206 -0.05503,0.059619 -0.128411,0.210961 l -0.674158,1.3895914 z"
         id="path2" /></g><g
       id="text9-2"
       style="font-weight:bold;font-size:3.52778px;line-height:1;font-family:KoHo;-inkscape-font-specification:'KoHo, Bold';letter-spacing:0px;stroke-width:0.3;stroke-linejoin:round"
       aria-label="ECHODALIA"><path
         style="-inkscape-font-specification:'KoHo Bold'"
         d="m 22.064485,127.59309 q -0.469194,0 -0.673805,-0.19756 -0.204612,-0.19756 -0.204612,-0.5715 v -0.93133 q 0,-0.37395 0.204612,-0.5715 0.204611,-0.19756 0.673805,-0.19756 h 0.825501 v 0.38806 h -0.825501 q -0.194027,0 -0.289277,0.0917 -0.09172,0.0917 -0.09172,0.28928 v 0.27164 h 1.051279 v 0.38805 h -1.051279 v 0.27164 q 0,0.19403 0.09172,0.28928 0.09525,0.0917 0.289277,0.0917 h 0.832557 v 0.38806 z m 2.169585,0.0423 q -0.497417,0 -0.758473,-0.22578 -0.261055,-0.2293 -0.261055,-0.6738 v -0.75495 q 0,-0.4445 0.261055,-0.67028 0.261056,-0.2293 0.758473,-0.2293 0.345723,0 0.564445,0.11641 0.22225,0.11289 0.352778,0.3422 l -0.356306,0.24694 q -0.109361,-0.16933 -0.229306,-0.24341 -0.116416,-0.0741 -0.331611,-0.0741 -0.271639,0 -0.398639,0.13053 -0.123472,0.127 -0.123472,0.381 v 0.75495 q 0,0.254 0.123472,0.38452 0.127,0.127 0.398639,0.127 0.232834,0 0.359834,-0.0776 0.130528,-0.0811 0.232833,-0.25753 l 0.352778,0.26106 q -0.112889,0.16228 -0.232833,0.26106 -0.119945,0.0988 -0.292806,0.15169 -0.169334,0.0494 -0.419806,0.0494 z m 1.333498,-2.51178 h 0.497417 v 1.03717 h 0.959556 v -1.03717 h 0.497417 v 2.46945 h -0.497417 v -1.04423 h -0.959556 v 1.04423 h -0.497417 z m 3.457228,2.51178 q -0.490362,0 -0.751418,-0.22578 -0.257527,-0.2293 -0.257527,-0.6738 v -0.75495 q 0,-0.4445 0.257527,-0.67028 0.261056,-0.2293 0.751418,-0.2293 0.490361,0 0.747889,0.2293 0.261056,0.22578 0.261056,0.67028 v 0.75495 q 0,0.4445 -0.261056,0.6738 -0.257528,0.22578 -0.747889,0.22578 z m 0,-0.38806 q 0.246944,0 0.377472,-0.13052 0.134056,-0.13406 0.134056,-0.381 v -0.75495 q 0,-0.24694 -0.134056,-0.37747 -0.130528,-0.13406 -0.377472,-0.13406 -0.246945,0 -0.381001,0.13406 -0.130527,0.13053 -0.130527,0.37747 v 0.75495 q 0,0.24694 0.130527,0.381 0.134056,0.13052 0.381001,0.13052 z"
         id="path3" /><path
         style="font-style:italic;font-weight:normal;-inkscape-font-specification:'KoHo Italic'"
         d="m 30.852183,125.12364 h 0.860778 q 0.46214,0 0.680862,0.20108 0.218722,0.19756 0.218722,0.61031 0,0.51858 -0.155222,0.89253 -0.155222,0.37041 -0.448028,0.56797 -0.289278,0.19756 -0.694973,0.19756 h -0.896056 z m 0.462139,2.26483 q 0.497417,0 0.769056,-0.381 0.275167,-0.381 0.275167,-1.07244 0,-0.31397 -0.162278,-0.45861 -0.15875,-0.14817 -0.500944,-0.14817 h -0.624418 l -0.363361,2.06022 z m 2.959805,-0.58913 h -1.114779 l -0.384528,0.79375 h -0.254 l 1.00189,-2.06376 q 0.116416,-0.23636 0.218722,-0.33866 0.105833,-0.10584 0.271639,-0.10584 0.162278,0 0.236361,0.0988 0.07761,0.0988 0.109361,0.34572 l 0.275167,2.06376 h -0.257528 z m -0.02822,-0.19756 -0.137583,-1.06892 q -0.01764,-0.11641 -0.04586,-0.16228 -0.02822,-0.0494 -0.08467,-0.0494 -0.05997,0 -0.105833,0.0494 -0.04233,0.0459 -0.09878,0.16228 l -0.518584,1.06892 z m 1.481668,0.99131 q -0.356306,0 -0.529167,-0.13053 -0.172861,-0.13053 -0.172861,-0.4057 0,-0.10936 0.01764,-0.20108 l 0.306917,-1.73214 h 0.254 l -0.306917,1.73214 q -0.01411,0.0741 -0.01411,0.15522 0,0.19403 0.112889,0.28575 0.112889,0.0917 0.34925,0.0917 h 0.797278 l -0.03528,0.20462 z m 1.672167,-2.46945 h 0.254 l -0.433917,2.46945 h -0.254 z m 2.014359,1.6757 h -1.114779 l -0.384528,0.79375 h -0.254 l 1.001889,-2.06376 q 0.116417,-0.23636 0.218723,-0.33866 0.105833,-0.10584 0.271639,-0.10584 0.162278,0 0.236361,0.0988 0.07761,0.0988 0.109361,0.34572 l 0.275167,2.06376 h -0.257528 z m -0.02822,-0.19756 -0.137583,-1.06892 q -0.01764,-0.11641 -0.04586,-0.16228 -0.02822,-0.0494 -0.08467,-0.0494 -0.05997,0 -0.105833,0.0494 -0.04233,0.0459 -0.09878,0.16228 l -0.518584,1.06892 z"
         id="path4" /></g><g
       inkscape:groupmode="layer"
       id="layer2"
       inkscape:label="lcd"
       transform="translate(7.5572631,4.567171)"
       style="display:inline"><rect
         style="font-variation-settings:'wght' 472;display:inline;fill:#2a2a2a;fill-opacity:1;stroke:#ffd9d9;stroke-width:0.3;stroke-linejoin:round;stroke-dasharray:none;stroke-opacity:1"
         id="rect1"
         width="22.860001"
         height="8"
         x="23.239578"
         y="6.4250016" /><path
         d="m 25.098022,12.843645 c -0.443088,0 -0.804332,-0.180622 -0.804332,-0.403577 l 0.804332,-0.403578 h 1.010355 l 0.400755,0.807155 z m 0.237067,-0.905933 c -0.0762,0 -0.135467,-0.06209 -0.135467,-0.135466 v -0.739422 c 0,-0.07338 0.05927,-0.135466 0.135467,-0.135466 h 0.536222 c 0.0762,0 0.135466,0.06209 0.135466,0.135466 v 0.739422 c 0,0.07338 -0.05927,0.135466 -0.135466,0.135466 z m -1.142999,0.400756 v -1.007533 c 0,-0.443088 0.180622,-0.804333 0.403577,-0.804333 l 0.403578,0.400756 v 1.010354 z m 2.418642,0.403577 -0.403577,-0.804333 v -1.010354 l 0.403577,-0.400756 c 0.222956,0 0.403578,0.361245 0.403578,0.804333 v 0.606777 c 0,0.443089 -0.180622,0.804333 -0.403578,0.804333 z m -1.51271,-1.913465 -0.400755,-0.403578 0.400755,-0.403577 h 1.010355 l 0.400755,0.403577 -0.400755,0.403578 z m 0.237067,-0.9087549 c -0.0762,0 -0.135467,-0.059267 -0.135467,-0.1326444 V 9.0477591 c 0,-0.073378 0.05927,-0.1354666 0.135467,-0.1354666 h 0.536222 c 0.0762,0 0.135466,0.059267 0.135466,0.1354666 v 0.7394216 c 0,0.073378 -0.05927,0.1326444 -0.135466,0.1326444 z m -0.739422,0.4035779 c -0.222955,0 -0.403577,-0.3612446 -0.403577,-0.8071554 V 8.508715 l 0.807155,0.4035775 v 1.0075326 z m 2.015065,0 -0.403577,-0.4035779 V 8.9122925 l 0.403577,-0.8071549 c 0.222956,0 0.403578,0.3612441 0.403578,0.8071549 v 0.6039551 c 0,0.4459108 -0.180622,0.8071554 -0.403578,0.8071554 z M 25.098022,8.8106926 24.29369,8.4099373 c 0,-0.2229553 0.361244,-0.4035774 0.804332,-0.4035774 h 1.41111 l -0.400755,0.8043327 z m 3.626553,4.0329524 c -0.443089,0 -0.804333,-0.180622 -0.804333,-0.403577 l 0.804333,-0.403578 h 1.010354 l 0.400756,0.807155 z m 0.237066,-0.905933 c -0.0762,0 -0.135466,-0.06209 -0.135466,-0.135466 v -0.739422 c 0,-0.07338 0.05927,-0.135466 0.135466,-0.135466 h 0.536222 c 0.0762,0 0.135467,0.06209 0.135467,0.135466 v 0.739422 c 0,0.07338 -0.05927,0.135466 -0.135467,0.135466 z m -1.142999,0.400756 v -1.007533 c 0,-0.443088 0.180622,-0.804333 0.403577,-0.804333 l 0.403578,0.400756 v 1.010354 z m 2.418643,0.403577 -0.403578,-0.804333 v -1.010354 l 0.403578,-0.400756 c 0.222955,0 0.403577,0.361245 0.403577,0.804333 v 0.606777 c 0,0.443089 -0.180622,0.804333 -0.403577,0.804333 z m -1.51271,-1.913465 -0.400756,-0.403578 0.400756,-0.403577 h 1.010354 l 0.400756,0.403577 -0.400756,0.403578 z m 0.237066,-0.9087549 c -0.0762,0 -0.135466,-0.059267 -0.135466,-0.1326444 V 9.0477591 c 0,-0.073378 0.05927,-0.1354666 0.135466,-0.1354666 h 0.536222 c 0.0762,0 0.135467,0.059267 0.135467,0.1354666 v 0.7394216 c 0,0.073378 -0.05927,0.1326444 -0.135467,0.1326444 z m -0.739422,0.4035779 c -0.222955,0 -0.403577,-0.3612446 -0.403577,-0.8071554 V 8.508715 l 0.807155,0.4035775 v 1.0075326 z m 2.015066,0 -0.403578,-0.4035779 V 8.9122925 l 0.403578,-0.8071549 c 0.222955,0 0.403577,0.3612441 0.403577,0.8071549 v 0.6039551 c 0,0.4459108 -0.180622,0.8071554 -0.403577,0.8071554 z M 28.724575,8.8106926 27.920242,8.4099373 c 0,-0.2229553 0.361244,-0.4035774 0.804333,-0.4035774 h 1.41111 l -0.400756,0.8043327 z m 3.626552,4.0329524 c -0.443089,0 -0.804333,-0.180622 -0.804333,-0.403577 l 0.804333,-0.403578 h 1.010355 l 0.400755,0.807155 z m 0.237067,-0.905933 c -0.0762,0 -0.135467,-0.06209 -0.135467,-0.135466 v -0.739422 c 0,-0.07338 0.05927,-0.135466 0.135467,-0.135466 h 0.536221 c 0.0762,0 0.135467,0.06209 0.135467,0.135466 v 0.739422 c 0,0.07338 -0.05927,0.135466 -0.135467,0.135466 z m -1.143,0.400756 v -1.007533 c 0,-0.443088 0.180622,-0.804333 0.403578,-0.804333 l 0.403577,0.400756 v 1.010354 z m 2.418643,0.403577 -0.403577,-0.804333 v -1.010354 l 0.403577,-0.400756 c 0.222955,0 0.403577,0.361245 0.403577,0.804333 v 0.606777 c 0,0.443089 -0.180622,0.804333 -0.403577,0.804333 z m -1.51271,-1.913465 -0.400755,-0.403578 0.400755,-0.403577 h 1.010355 l 0.400755,0.403577 -0.400755,0.403578 z m 0.237067,-0.9087549 c -0.0762,0 -0.135467,-0.059267 -0.135467,-0.1326444 V 9.0477591 c 0,-0.073378 0.05927,-0.1354666 0.135467,-0.1354666 h 0.536221 c 0.0762,0 0.135467,0.059267 0.135467,0.1354666 v 0.7394216 c 0,0.073378 -0.05927,0.1326444 -0.135467,0.1326444 z m -0.739422,0.4035779 c -0.222956,0 -0.403578,-0.3612446 -0.403578,-0.8071554 V 8.508715 l 0.807155,0.4035775 v 1.0075326 z m 2.015065,0 L 33.46026,9.9198251 V 8.9122925 l 0.403577,-0.8071549 c 0.222955,0 0.403577,0.3612441 0.403577,0.8071549 v 0.6039551 c 0,0.4459108 -0.180622,0.8071554 -0.403577,0.8071554 z M 32.351127,8.8106926 31.546794,8.4099373 c 0,-0.2229553 0.361244,-0.4035774 0.804333,-0.4035774 h 1.41111 l -0.400755,0.8043327 z m 3.626552,4.0329524 c -0.443088,0 -0.804333,-0.180622 -0.804333,-0.403577 l 0.804333,-0.403578 h 1.010355 l 0.400755,0.807155 z m 0.237067,-0.905933 c -0.0762,0 -0.135467,-0.06209 -0.135467,-0.135466 v -0.739422 c 0,-0.07338 0.05927,-0.135466 0.135467,-0.135466 h 0.536221 c 0.0762,0 0.135467,0.06209 0.135467,0.135466 v 0.739422 c 0,0.07338 -0.05927,0.135466 -0.135467,0.135466 z m -1.143,0.400756 v -1.007533 c 0,-0.443088 0.180623,-0.804333 0.403578,-0.804333 l 0.403577,0.400756 v 1.010354 z m 2.418643,0.403577 -0.403577,-0.804333 v -1.010354 l 0.403577,-0.400756 c 0.222955,0 0.403578,0.361245 0.403578,0.804333 v 0.606777 c 0,0.443089 -0.180623,0.804333 -0.403578,0.804333 z m -1.51271,-1.913465 -0.400755,-0.403578 0.400755,-0.403577 h 1.010355 l 0.400755,0.403577 -0.400755,0.403578 z m 0.237067,-0.9087549 c -0.0762,0 -0.135467,-0.059267 -0.135467,-0.1326444 V 9.0477591 c 0,-0.073378 0.05927,-0.1354666 0.135467,-0.1354666 h 0.536221 c 0.0762,0 0.135467,0.059267 0.135467,0.1354666 v 0.7394216 c 0,0.073378 -0.05927,0.1326444 -0.135467,0.1326444 z m -0.739422,0.4035779 c -0.222955,0 -0.403578,-0.3612446 -0.403578,-0.8071554 V 8.508715 l 0.807155,0.4035775 v 1.0075326 z m 2.015065,0 -0.403577,-0.4035779 V 8.9122925 l 0.403577,-0.8071549 c 0.222955,0 0.403578,0.3612441 0.403578,0.8071549 v 0.6039551 c 0,0.4459108 -0.180623,0.8071554 -0.403578,0.8071554 z M 35.977679,8.8106926 35.173346,8.4099373 c 0,-0.2229553 0.361245,-0.4035774 0.804333,-0.4035774 h 1.41111 l -0.400755,0.8043327 z m 3.626553,4.0329524 c -0.443089,0 -0.804333,-0.180622 -0.804333,-0.403577 l 0.804333,-0.403578 h 1.010354 l 0.400756,0.807155 z m 0.237066,-0.905933 c -0.0762,0 -0.135466,-0.06209 -0.135466,-0.135466 v -0.739422 c 0,-0.07338 0.05927,-0.135466 0.135466,-0.135466 h 0.536222 c 0.0762,0 0.135467,0.06209 0.135467,0.135466 v 0.739422 c 0,0.07338 -0.05927,0.135466 -0.135467,0.135466 z m -1.142999,0.400756 v -1.007533 c 0,-0.443088 0.180622,-0.804333 0.403578,-0.804333 l 0.403577,0.400756 v 1.010354 z m 2.418643,0.403577 -0.403578,-0.804333 v -1.010354 l 0.403578,-0.400756 c 0.222955,0 0.403577,0.361245 0.403577,0.804333 v 0.606777 c 0,0.443089 -0.180622,0.804333 -0.403577,0.804333 z m -1.51271,-1.913465 -0.400756,-0.403578 0.400756,-0.403577 h 1.010354 l 0.400756,0.403577 -0.400756,0.403578 z m 0.237066,-0.9087549 c -0.0762,0 -0.135466,-0.059267 -0.135466,-0.1326444 V 9.0477591 c 0,-0.073378 0.05927,-0.1354666 0.135466,-0.1354666 h 0.536222 c 0.0762,0 0.135467,0.059267 0.135467,0.1354666 v 0.7394216 c 0,0.073378 -0.05927,0.1326444 -0.135467,0.1326444 z m -0.739421,0.4035779 c -0.222956,0 -0.403578,-0.3612446 -0.403578,-0.8071554 V 8.508715 l 0.807155,0.4035775 v 1.0075326 z m 2.015065,0 -0.403578,-0.4035779 V 8.9122925 l 0.403578,-0.8071549 c 0.222955,0 0.403577,0.3612441 0.403577,0.8071549 v 0.6039551 c 0,0.4459108 -0.180622,0.8071554 -0.403577,0.8071554 z M 39.604232,8.8106926 38.799899,8.4099373 c 0,-0.2229553 0.361244,-0.4035774 0.804333,-0.4035774 h 1.41111 l -0.400756,0.8043327 z m 3.626551,4.0329524 c -0.443088,0 -0.804332,-0.180622 -0.804332,-0.403577 l 0.804332,-0.403578 h 1.010355 l 0.400755,0.807155 z m 0.237067,-0.905933 c -0.0762,0 -0.135467,-0.06209 -0.135467,-0.135466 v -0.739422 c 0,-0.07338 0.05927,-0.135466 0.135467,-0.135466 h 0.536222 c 0.0762,0 0.135466,0.06209 0.135466,0.135466 v 0.739422 c 0,0.07338 -0.05927,0.135466 -0.135466,0.135466 z m -1.142999,0.400756 v -1.007533 c 0,-0.443088 0.180622,-0.804333 0.403577,-0.804333 l 0.403578,0.400756 v 1.010354 z m 2.418642,0.403577 -0.403577,-0.804333 v -1.010354 l 0.403577,-0.400756 c 0.222956,0 0.403578,0.361245 0.403578,0.804333 v 0.606777 c 0,0.443089 -0.180622,0.804333 -0.403578,0.804333 z m -1.51271,-1.913465 -0.400755,-0.403578 0.400755,-0.403577 h 1.010355 l 0.400755,0.403577 -0.400755,0.403578 z M 43.46785,9.9198251 c -0.0762,0 -0.135467,-0.059267 -0.135467,-0.1326444 V 9.0477591 c 0,-0.073378 0.05927,-0.1354666 0.135467,-0.1354666 h 0.536222 c 0.0762,0 0.135466,0.059267 0.135466,0.1354666 v 0.7394216 c 0,0.073378 -0.05927,0.1326444 -0.135466,0.1326444 z m -0.739422,0.4035779 c -0.222955,0 -0.403577,-0.3612446 -0.403577,-0.8071554 V 8.508715 l 0.807155,0.4035775 v 1.0075326 z m 2.015065,0 -0.403577,-0.4035779 V 8.9122925 l 0.403577,-0.8071549 c 0.222956,0 0.403578,0.3612441 0.403578,0.8071549 v 0.6039551 c 0,0.4459108 -0.180622,0.8071554 -0.403578,0.8071554 z M 43.230783,8.8106926 42.426451,8.4099373 c 0,-0.2229553 0.361244,-0.4035774 0.804332,-0.4035774 h 1.41111 l -0.400755,0.8043327 z"
         id="text2-4"
         style="font-size:5.64444px;line-height:1;font-family:'9-segment Black';-inkscape-font-specification:'9-segment Black, Normal';text-align:center;letter-spacing:0px;text-anchor:middle;display:none;fill:#d4d4d4;fill-opacity:0.175283;stroke-width:7.9375e-09;stroke-linejoin:round"
         aria-label="@@@@@@" /></g></g><g
     inkscape:groupmode="layer"
     id="layer4"
     inkscape:label="text"
     style="display:inline"
     transform="translate(17.780161,-8.5668416)"><path
       id="text2"
       style="font-size:3.175px;line-height:0.8;font-family:Epilogue;-inkscape-font-specification:'Epilogue, @wght=500';font-variation-settings:'wght' 500;fill:#d4d4d4;stroke-width:0.499999;paint-order:stroke fill markers"
       d="m 7.6707953,29.750152 c -0.1386417,0 -0.2669729,0.02615 -0.3855062,0.07906 -0.1185334,0.05186 -0.2227089,0.129369 -0.3116089,0.232027 -0.087842,0.1016 -0.1559554,0.226979 -0.2046387,0.376204 -0.048683,0.148167 -0.072864,0.318463 -0.072864,0.51108 0,0.191558 0.02418,0.362347 0.072864,0.51263 0.048683,0.149226 0.116797,0.276105 0.2046387,0.379822 0.0889,0.10266 0.1925836,0.180638 0.3100586,0.234611 0.074941,0.03345 0.1543098,0.05539 0.2377116,0.0677 0.00378,0.07947 0.021491,0.14856 0.05426,0.205672 0.037042,0.06562 0.083435,0.118924 0.1395264,0.160197 0.05715,0.04233 0.1158913,0.0749 0.1762166,0.09819 0.060325,0.02434 0.1141219,0.04163 0.1617473,0.05116 0.048684,0.01056 0.082261,0.01747 0.1002522,0.02067 l 0.1018026,-0.233578 c -0.01905,-0.0042 -0.052627,-0.01262 -0.1002523,-0.02532 -0.046567,-0.0127 -0.096428,-0.03196 -0.1493449,-0.05736 -0.051859,-0.0254 -0.096284,-0.05846 -0.1333252,-0.09974 -0.030429,-0.03304 -0.047795,-0.07328 -0.053227,-0.11989 0.083774,-0.01227 0.1640172,-0.03411 0.2392619,-0.0677 0.1185333,-0.05398 0.2217002,-0.131953 0.3095418,-0.234611 0.0889,-0.103717 0.1575057,-0.230596 0.206189,-0.379822 0.048683,-0.150283 0.072864,-0.321072 0.072864,-0.51263 0,-0.192617 -0.024181,-0.362913 -0.072864,-0.51108 C 8.5254158,30.288219 8.4573018,30.16284 8.3694601,30.06124 8.2816181,29.958583 8.1779597,29.881073 8.058368,29.829213 7.9398347,29.776303 7.8104948,29.750153 7.6707948,29.750153 Z m -6.1577628,0.02997 v 2.341459 h 0.343131 v -1.00769 h 0.842843 V 30.82812 h -0.842843 v -0.762227 h 0.984436 v -0.285771 z m 1.692403,0 v 2.341459 h 0.336413 v -0.971517 h 0.452686 c 0.1143,0 0.201182,0.02568 0.260449,0.07648 0.06033,0.04974 0.09043,0.124768 0.09043,0.22531 v 0.232027 0.22996 c 0,0.04868 0.0034,0.09163 0.01085,0.128674 0.0074,0.03704 0.01631,0.06319 0.02584,0.07906 h 0.347266 c -0.01164,-0.01376 -0.02151,-0.03941 -0.02997,-0.07751 -0.0074,-0.03916 -0.01137,-0.0826 -0.01137,-0.130224 v -0.252178 -0.251148 c 0,-0.09737 -0.01825,-0.174363 -0.05529,-0.23151 -0.03704,-0.05715 -0.08343,-0.09961 -0.139527,-0.127124 -0.05609,-0.02755 -0.113849,-0.04334 -0.173116,-0.04754 0.05821,-0.0064 0.119899,-0.03301 0.185519,-0.07958 0.06667,-0.04762 0.123449,-0.114755 0.170015,-0.201538 0.04763,-0.08678 0.07131,-0.191426 0.07131,-0.314193 0,-0.20955 -0.05776,-0.36703 -0.173116,-0.471806 -0.115358,-0.104774 -0.285655,-0.157096 -0.51108,-0.157096 z m 1.933732,0 v 2.341459 H 6.4662176 V 31.83581 H 5.4853987 V 31.09012 H 6.290001 V 30.804349 H 5.4853987 v -0.738456 h 0.9808189 v -0.285771 z m 2.5316278,0.2651 c 0.1195916,0 0.2267189,0.0321 0.3209106,0.0956 0.094191,0.0635 0.1682333,0.161723 0.2222087,0.295073 0.055033,0.13335 0.082166,0.304138 0.082166,0.51263 0,0.207433 -0.02664,0.379231 -0.080615,0.514697 -0.053975,0.134412 -0.128509,0.23411 -0.223759,0.299724 -0.094192,0.06562 -0.201319,0.0987 -0.3209106,0.0987 -0.117475,0 -0.2235936,-0.03259 -0.3188436,-0.09715 -0.094192,-0.06562 -0.1692424,-0.165315 -0.2242757,-0.299723 -0.055033,-0.135467 -0.082166,-0.307757 -0.082166,-0.516248 0,-0.208492 0.027132,-0.37928 0.082166,-0.51263 0.055033,-0.13335 0.130084,-0.231573 0.2242757,-0.295073 0.09525,-0.0635 0.2013686,-0.0956 0.3188429,-0.0956 z m -4.1289468,0.02067 h 0.439767 c 0.132291,0 0.233982,0.02962 0.304891,0.08888 0.07091,0.05927 0.106453,0.153554 0.106453,0.28267 0,0.08572 -0.01776,0.160749 -0.05374,0.225309 -0.03492,0.0635 -0.08233,0.113359 -0.141594,0.149345 -0.05927,0.03493 -0.125904,0.05219 -0.199988,0.05219 h -0.455786 z" /><path
       d="M 0.82993377,95.836516 H 0.48544628 V 93.494954 H 1.1902963 q 0.269875,0 0.4524375,0.1016 0.18415,0.1016 0.276225,0.274637 0.093663,0.17145 0.093663,0.384175 0,0.212725 -0.09525,0.392113 -0.093662,0.1778 -0.2778125,0.28575 -0.18415,0.10795 -0.4492625,0.10795 H 0.82993377 Z m 0,-0.912812 -0.155575,-0.168275 H 1.1506088 q 0.168275,0 0.282575,-0.06032 0.1158875,-0.06191 0.174625,-0.174625 0.058738,-0.112713 0.058738,-0.265113 0,-0.1524 -0.05715,-0.258762 -0.05715,-0.106363 -0.17145,-0.160338 -0.1143,-0.05556 -0.2873375,-0.05556 H 0.67435877 l 0.155575,-0.180975 z m 3.19722633,-1.42875 v 2.341562 H 3.6826726 v -1.163637 l 0.155575,0.1397 h -1.292225 l 0.155575,-0.138113 v 1.16205 H 2.3571101 v -2.341562 h 0.3444875 v 1.17475 l -0.155575,-0.144463 h 1.292225 l -0.155575,0.144463 v -1.17475 z m 0.3051178,2.341562 0.625475,-2.346325 h 0.5413375 l 0.619125,2.346325 H 5.7642029 L 5.2260404,93.707679 h 0.00318 l -0.5413375,2.128837 z m 0.36195,-0.595312 v -0.28575 h 1.0668 v 0.28575 z m 2.4876105,0.62865 q -0.24765,0 -0.4270375,-0.07779 -0.1778,-0.07779 -0.276225,-0.23495 -0.096838,-0.15875 -0.096838,-0.392112 0,-0.03016 0,-0.05239 0,-0.02223 0,-0.0508 h 0.3444875 q 0,0.02699 0,0.04763 0,0.01905 0,0.04921 0,0.2159 0.1158875,0.3175 0.1158875,0.100012 0.3381375,0.100012 0.2270125,0 0.346075,-0.0762 0.1190625,-0.07779 0.1190625,-0.249237 0,-0.122238 -0.074612,-0.204788 -0.073025,-0.08414 -0.2032,-0.144462 -0.1285875,-0.06032 -0.2968625,-0.112713 -0.1889125,-0.05874 -0.3413125,-0.149225 -0.1524,-0.09207 -0.2428875,-0.2286 -0.0889,-0.138112 -0.0889,-0.33655 0,-0.195262 0.098425,-0.331787 0.098425,-0.136525 0.27305,-0.206375 0.174625,-0.07144 0.40005,-0.07144 0.2397125,0 0.4175125,0.07461 0.1793875,0.07303 0.2778125,0.22225 0.1000125,0.147637 0.1000125,0.373062 0,0.03175 0,0.05556 0,0.02222 0,0.05556 h -0.346075 q 0,-0.02699 0,-0.04921 0,-0.02223 0,-0.04762 0,-0.206375 -0.1127125,-0.29845 -0.111125,-0.09208 -0.3302,-0.09208 -0.212725,0 -0.3286125,0.07461 -0.1143,0.07461 -0.1143,0.2413 0,0.123825 0.073025,0.206375 0.074612,0.08255 0.2032,0.141288 0.130175,0.05874 0.295275,0.1143 0.20955,0.06985 0.3603625,0.157162 0.1524,0.08731 0.23495,0.217488 0.08255,0.130175 0.08255,0.328612 0,0.200025 -0.098425,0.341313 -0.098425,0.141287 -0.2778125,0.2159 -0.1793875,0.07303 -0.4238625,0.07303 z m 1.3557278,-2.08915 0.155575,-0.180975 v 1.0287 l -0.08255,-0.109538 h 0.8874125 v 0.28575 H 8.6105912 l 0.08255,-0.109537 v 1.036637 l -0.155575,-0.180975 h 1.13665 v 0.28575 h -1.32715 v -2.341562 h 1.32715 v 0.28575 z"
       id="text7"
       style="font-size:3.175px;line-height:0.8;font-family:Epilogue;-inkscape-font-specification:'Epilogue, @wght=500';font-variation-settings:'wght' 500;fill:#d4d4d4;stroke-width:0.499999;paint-order:stroke fill markers"
       aria-label="PHASE" /><path
       d="m 16.211393,67.97081 v -2.341562 h 0.85725 q 0.338138,0 0.511175,0.157162 0.173038,0.157163 0.173038,0.471488 0,0.18415 -0.07144,0.314325 -0.06985,0.130175 -0.169862,0.201612 -0.09842,0.06985 -0.185738,0.07938 0.0889,0.0063 0.173038,0.04762 0.08414,0.04127 0.1397,0.127 0.05556,0.08572 0.05556,0.231775 0,0.123825 0,0.250825 0,0.127 0,0.252413 0,0.07144 0.01111,0.130175 0.0127,0.05715 0.03016,0.07779 h -0.347662 q -0.01429,-0.02381 -0.0254,-0.07937 -0.01111,-0.05556 -0.01111,-0.128587 0,-0.1143 0,-0.230188 0,-0.115887 0,-0.231775 0,-0.150812 -0.09049,-0.225425 -0.0889,-0.0762 -0.26035,-0.0762 h -0.5461 l 0.09366,-0.122237 v 1.093787 z m 0.33655,-1.122362 -0.09366,-0.134938 h 0.549275 q 0.111125,0 0.200025,-0.05239 0.0889,-0.05398 0.141287,-0.149225 0.05397,-0.09684 0.05397,-0.225425 0,-0.193675 -0.106362,-0.282575 -0.106363,-0.0889 -0.3048,-0.0889 H 16.44634 l 0.1016,-0.131763 z m 1.493835,1.122362 0.625475,-2.346325 h 0.541338 l 0.619125,2.346325 h -0.354013 l -0.538162,-2.128837 h 0.0032 l -0.541338,2.128837 z m 0.36195,-0.595312 v -0.28575 h 1.0668 v 0.28575 z m 2.922902,-1.4605 h -0.709612 l 0.10795,-0.180975 V 67.97081 H 20.38048 v -2.236787 l 0.119063,0.180975 h -0.719138 v -0.28575 h 1.546225 z m 0.43814,2.055812 v -2.341562 h 0.339725 v 2.341562 z m 1.687513,0.03334 q -0.20955,0 -0.38735,-0.07937 -0.176213,-0.08096 -0.309563,-0.23495 -0.131762,-0.155575 -0.204787,-0.379413 -0.07302,-0.225425 -0.07302,-0.512762 0,-0.288925 0.07302,-0.511175 0.07303,-0.223838 0.204787,-0.376238 0.13335,-0.153987 0.31115,-0.231775 0.1778,-0.07938 0.385763,-0.07938 0.20955,0 0.38735,0.07938 0.179387,0.07779 0.31115,0.231775 0.131762,0.1524 0.204787,0.376238 0.07303,0.22225 0.07303,0.511175 0,0.287337 -0.07303,0.512762 -0.07303,0.223838 -0.206375,0.379413 -0.131762,0.153987 -0.309562,0.23495 -0.1778,0.07937 -0.38735,0.07937 z m 0,-0.293688 q 0.179387,0 0.320675,-0.09843 0.142875,-0.09842 0.223837,-0.300037 0.08096,-0.2032 0.08096,-0.51435 0,-0.312738 -0.08255,-0.512763 -0.08096,-0.200025 -0.22225,-0.295275 -0.141288,-0.09525 -0.320675,-0.09525 -0.176213,0 -0.319088,0.09525 -0.141287,0.09525 -0.223837,0.295275 -0.08255,0.200025 -0.08255,0.512763 0,0.312737 0.08255,0.515937 0.08255,0.201613 0.223837,0.300038 0.142875,0.09684 0.319088,0.09684 z"
       id="text8"
       style="font-size:3.175px;line-height:0.8;font-family:Epilogue;-inkscape-font-specification:'Epilogue, @wght=500';font-variation-settings:'wght' 500;fill:#d4d4d4;stroke-width:0.499999;paint-order:stroke fill markers"
       aria-label="RATIO" /><path
       d="m 16.069933,95.836516 h -0.344487 v -2.341562 h 0.70485 q 0.269875,0 0.452437,0.1016 0.18415,0.1016 0.276225,0.274637 0.09366,0.17145 0.09366,0.384175 0,0.212725 -0.09525,0.392113 -0.09366,0.1778 -0.277813,0.28575 -0.18415,0.10795 -0.449262,0.10795 H 16.06993 Z m 0,-0.912812 -0.155575,-0.168275 h 0.47625 q 0.168275,0 0.282575,-0.06032 0.115888,-0.06191 0.174625,-0.174625 0.05874,-0.112713 0.05874,-0.265113 0,-0.1524 -0.05715,-0.258762 -0.05715,-0.106363 -0.17145,-0.160338 -0.1143,-0.05556 -0.287338,-0.05556 h -0.47625 l 0.155575,-0.180975 z m 3.197226,-1.42875 v 2.341562 h -0.344487 v -1.163637 l 0.155575,0.1397 h -1.292225 l 0.155575,-0.138113 v 1.16205 h -0.344488 v -2.341562 h 0.344488 v 1.17475 l -0.155575,-0.144463 h 1.292225 l -0.155575,0.144463 v -1.17475 z m 0.305118,2.341562 0.625475,-2.346325 h 0.541338 l 0.619125,2.346325 H 21.004202 L 20.46604,93.707679 h 0.0032 l -0.541338,2.128837 z m 0.36195,-0.595312 v -0.28575 h 1.0668 v 0.28575 z m 2.487611,0.62865 q -0.24765,0 -0.427038,-0.07779 -0.1778,-0.07779 -0.276225,-0.23495 -0.09684,-0.15875 -0.09684,-0.392112 0,-0.03016 0,-0.05239 0,-0.02223 0,-0.0508 h 0.344487 q 0,0.02699 0,0.04763 0,0.01905 0,0.04921 0,0.2159 0.115888,0.3175 0.115887,0.100012 0.338137,0.100012 0.227013,0 0.346075,-0.0762 0.119063,-0.07779 0.119063,-0.249237 0,-0.122238 -0.07461,-0.204788 -0.07303,-0.08414 -0.2032,-0.144462 -0.128587,-0.06032 -0.296862,-0.112713 -0.188913,-0.05874 -0.341313,-0.149225 -0.1524,-0.09207 -0.242887,-0.2286 -0.0889,-0.138112 -0.0889,-0.33655 0,-0.195262 0.09842,-0.331787 0.09842,-0.136525 0.27305,-0.206375 0.174625,-0.07144 0.40005,-0.07144 0.239712,0 0.417512,0.07461 0.179388,0.07303 0.277813,0.22225 0.100012,0.147637 0.100012,0.373062 0,0.03175 0,0.05556 0,0.02222 0,0.05556 H 22.8584 q 0,-0.02699 0,-0.04921 0,-0.02223 0,-0.04762 0,-0.206375 -0.112712,-0.29845 -0.111125,-0.09208 -0.3302,-0.09208 -0.212725,0 -0.328613,0.07461 -0.1143,0.07461 -0.1143,0.2413 0,0.123825 0.07303,0.206375 0.07461,0.08255 0.2032,0.141288 0.130175,0.05874 0.295275,0.1143 0.20955,0.06985 0.360363,0.157162 0.1524,0.08731 0.23495,0.217488 0.08255,0.130175 0.08255,0.328612 0,0.200025 -0.09843,0.341313 -0.09842,0.141287 -0.277813,0.2159 -0.179387,0.07303 -0.423862,0.07303 z m 1.355728,-2.08915 0.155575,-0.180975 v 1.0287 l -0.08255,-0.109538 h 0.887412 v 0.28575 h -0.887412 l 0.08255,-0.109537 v 1.036637 l -0.155575,-0.180975 h 1.13665 v 0.28575 h -1.32715 v -2.341562 h 1.32715 v 0.28575 z"
       id="text10"
       style="font-size:3.175px;line-height:0.8;font-family:Epilogue;-inkscape-font-specification:'Epilogue, @wght=500';font-variation-settings:'wght' 500;fill:#d4d4d4;stroke-width:0.499999;paint-order:stroke fill markers"
       aria-label="PHASE" /><path
       d="m 31.309929,95.836516 h -0.344487 v -2.341562 h 0.70485 q 0.269875,0 0.452437,0.1016 0.18415,0.1016 0.276225,0.274637 0.09366,0.17145 0.09366,0.384175 0,0.212725 -0.09525,0.392113 -0.09366,0.1778 -0.277813,0.28575 -0.18415,0.10795 -0.449262,0.10795 h -0.360363 z m 0,-0.912812 -0.155575,-0.168275 h 0.47625 q 0.168275,0 0.282575,-0.06032 0.115888,-0.06191 0.174625,-0.174625 0.05874,-0.112713 0.05874,-0.265113 0,-0.1524 -0.05715,-0.258762 -0.05715,-0.106363 -0.17145,-0.160338 -0.1143,-0.05556 -0.287338,-0.05556 h -0.47625 l 0.155575,-0.180975 z m 3.197226,-1.42875 v 2.341562 h -0.344487 v -1.163637 l 0.155575,0.1397 h -1.292225 l 0.155575,-0.138113 v 1.16205 h -0.344488 v -2.341562 h 0.344488 v 1.17475 l -0.155575,-0.144463 h 1.292225 l -0.155575,0.144463 v -1.17475 z m 0.305118,2.341562 0.625475,-2.346325 h 0.541338 l 0.619125,2.346325 h -0.354013 l -0.538162,-2.128837 h 0.0032 l -0.541338,2.128837 z m 0.36195,-0.595312 v -0.28575 h 1.0668 v 0.28575 z m 2.487611,0.62865 q -0.24765,0 -0.427038,-0.07779 -0.1778,-0.07779 -0.276225,-0.23495 -0.09684,-0.15875 -0.09684,-0.392112 0,-0.03016 0,-0.05239 0,-0.02223 0,-0.0508 h 0.344487 q 0,0.02699 0,0.04763 0,0.01905 0,0.04921 0,0.2159 0.115888,0.3175 0.115887,0.100012 0.338137,0.100012 0.227013,0 0.346075,-0.0762 0.119063,-0.07779 0.119063,-0.249237 0,-0.122238 -0.07461,-0.204788 -0.07302,-0.08414 -0.2032,-0.144462 -0.128587,-0.06032 -0.296862,-0.112713 -0.188913,-0.05874 -0.341313,-0.149225 -0.1524,-0.09207 -0.242887,-0.2286 -0.0889,-0.138112 -0.0889,-0.33655 0,-0.195262 0.09842,-0.331787 0.09842,-0.136525 0.27305,-0.206375 0.174625,-0.07144 0.40005,-0.07144 0.239712,0 0.417512,0.07461 0.179388,0.07303 0.277813,0.22225 0.100012,0.147637 0.100012,0.373062 0,0.03175 0,0.05556 0,0.02222 0,0.05556 h -0.346075 q 0,-0.02699 0,-0.04921 0,-0.02223 0,-0.04762 0,-0.206375 -0.112712,-0.29845 -0.111125,-0.09208 -0.3302,-0.09208 -0.212725,0 -0.328613,0.07461 -0.1143,0.07461 -0.1143,0.2413 0,0.123825 0.07303,0.206375 0.07461,0.08255 0.2032,0.141288 0.130175,0.05874 0.295275,0.1143 0.20955,0.06985 0.360363,0.157162 0.1524,0.08731 0.23495,0.217488 0.08255,0.130175 0.08255,0.328612 0,0.200025 -0.09842,0.341313 -0.09842,0.141287 -0.277813,0.2159 -0.179387,0.07303 -0.423862,0.07303 z m 1.355728,-2.08915 0.155575,-0.180975 v 1.0287 l -0.08255,-0.109538 h 0.887412 v 0.28575 h -0.887412 l 0.08255,-0.109537 v 1.036637 l -0.155575,-0.180975 h 1.13665 v 0.28575 h -1.32715 v -2.341562 h 1.32715 v 0.28575 z"
       id="text11"
       style="font-size:3.175px;line-height:0.8;font-family:Epilogue;-inkscape-font-specification:'Epilogue, @wght=500';font-variation-settings:'wght' 500;fill:#d4d4d4;stroke-width:0.499999;paint-order:stroke fill markers"
       aria-label="PHASE" /><path
       d="m -14.090035,95.812514 v -2.341562 h 0.857249 q 0.338138,0 0.511175,0.157162 0.173038,0.157163 0.173038,0.471488 0,0.18415 -0.07144,0.314325 -0.06985,0.130175 -0.169862,0.201612 -0.09843,0.06985 -0.185738,0.07937 0.0889,0.0063 0.173038,0.04762 0.08414,0.04127 0.1397,0.127 0.05556,0.08572 0.05556,0.231775 0,0.123825 0,0.250825 0,0.127 0,0.252413 0,0.07144 0.01111,0.130175 0.0127,0.05715 0.03016,0.07779 h -0.347662 q -0.01429,-0.02381 -0.0254,-0.07937 -0.01111,-0.05556 -0.01111,-0.128587 0,-0.1143 0,-0.230188 0,-0.115887 0,-0.231775 0,-0.150812 -0.09049,-0.225425 -0.0889,-0.0762 -0.26035,-0.0762 h -0.5461 l 0.09366,-0.122237 v 1.093787 z m 0.336549,-1.122362 -0.09366,-0.134938 h 0.549275 q 0.111125,0 0.200025,-0.05239 0.0889,-0.05397 0.141287,-0.149225 0.05398,-0.09684 0.05398,-0.225425 0,-0.193675 -0.106362,-0.282575 -0.106363,-0.0889 -0.3048,-0.0889 h -0.541337 l 0.101599,-0.131763 z m 1.493836,1.122362 0.625475,-2.346325 h 0.541337 l 0.619125,2.346325 h -0.354012 l -0.538163,-2.128837 h 0.0032 l -0.541337,2.128837 z m 0.36195,-0.595312 v -0.28575 h 1.0668 v 0.28575 z m 2.9229014,-1.4605 h -0.7096125 l 0.10795,-0.180975 v 2.236787 h -0.3444875 v -2.236787 l 0.1190625,0.180975 h -0.7191379 v -0.28575 h 1.5462254 z m 0.3381403,2.055812 v -2.341562 h 0.339725 v 2.341562 z m 1.6875126,0.03334 q -0.20955,0 -0.38735,-0.07937 -0.1762125,-0.08096 -0.3095625,-0.23495 -0.1317625,-0.155575 -0.2047875,-0.379413 -0.073025,-0.225425 -0.073025,-0.512762 0,-0.288925 0.073025,-0.511175 0.073025,-0.223838 0.2047875,-0.376238 0.13335,-0.153987 0.31115,-0.231775 0.1778,-0.07937 0.3857625,-0.07937 0.20955,0 0.38735,0.07937 0.1793875,0.07779 0.31115,0.231775 0.1317625,0.1524 0.2047875,0.376238 0.073025,0.22225 0.073025,0.511175 0,0.287337 -0.073025,0.512762 -0.073025,0.223838 -0.206375,0.379413 -0.1317625,0.153987 -0.3095625,0.23495 -0.1778,0.07937 -0.38735,0.07937 z m 0,-0.293688 q 0.1793875,0 0.320675,-0.09843 0.142875,-0.09843 0.2238375,-0.300037 0.080963,-0.2032 0.080963,-0.51435 0,-0.312738 -0.08255,-0.512763 -0.080962,-0.200025 -0.22225,-0.295275 -0.1412875,-0.09525 -0.320675,-0.09525 -0.1762125,0 -0.3190875,0.09525 -0.1412875,0.09525 -0.2238375,0.295275 -0.08255,0.200025 -0.08255,0.512763 0,0.312737 0.08255,0.515937 0.08255,0.201613 0.2238375,0.300038 0.142875,0.09684 0.3190875,0.09684 z"
       id="text12"
       style="font-size:3.175px;line-height:0.8;font-family:Epilogue;-inkscape-font-specification:'Epilogue, @wght=500';font-variation-settings:'wght' 500;fill:#d4d4d4;stroke-width:0.499999;paint-order:stroke fill markers"
       aria-label="RATIO" /><g
       id="g13"
       inkscape:label="head1labelgroup"
       transform="translate(0,51.145441)"><path
         d="m -8.1057761,13.785171 v 2.347912 h -0.3429 v -1.998662 q -0.014288,0.01746 -0.080963,0.04445 -0.066675,0.02699 -0.161925,0.05239 -0.09525,0.02381 -0.200025,0.03492 v -0.2921 q 0.1031875,-0.01587 0.1984375,-0.04763 0.09525,-0.03175 0.161925,-0.06985 0.068262,-0.0381 0.090488,-0.07144 z"
         id="text13"
         style="font-size:3.175px;line-height:0.8;font-family:Epilogue;-inkscape-font-specification:'Epilogue, @wght=500';font-variation-settings:'wght' 500;stroke-width:0.499999;paint-order:stroke fill markers"
         aria-label="1" /><path
         style="fill:none;fill-opacity:1;stroke:#000000;stroke-width:0.3;stroke-linecap:butt;stroke-linejoin:round;stroke-dasharray:none;stroke-opacity:1;paint-order:normal"
         d="m -10.310001,16.072264 v -2.011203 l -2.49496,1.868125"
         id="path13"
         sodipodi:nodetypes="ccc" /></g><g
       id="g14"
       inkscape:label="head2labelgroup"
       transform="translate(-0.09479294,8.4916778)"><path
         d="M 6.5582362,31.124752 V 30.83424 q 0.0127,-0.05874 0.077788,-0.142875 0.065087,-0.08573 0.15875,-0.182563 0.093662,-0.09684 0.19685,-0.193675 0.104775,-0.09684 0.1952624,-0.1778 0.111125,-0.1016 0.2174875,-0.20955 0.1063625,-0.109537 0.1762125,-0.230187 0.071438,-0.122238 0.071438,-0.257175 0,-0.1905 -0.090488,-0.293688 -0.0889,-0.104775 -0.2714625,-0.104775 -0.1460499,0 -0.2333624,0.06191 -0.087312,0.06191 -0.1254125,0.174625 -0.0381,0.111125 -0.0381,0.26035 h -0.346075 q 0,-0.236538 0.08255,-0.41275 0.084138,-0.1778 0.250825,-0.274638 0.1666875,-0.09842 0.4143374,-0.09842 0.2333625,0 0.3889375,0.0889 0.1571625,0.0889 0.23495,0.244475 0.079375,0.155575 0.079375,0.357188 0,0.13335 -0.0508,0.255587 -0.049212,0.12065 -0.130175,0.227013 -0.079375,0.106362 -0.17145,0.19685 -0.092075,0.09049 -0.174625,0.163512 -0.1349375,0.117475 -0.24765,0.22225 -0.1111249,0.103188 -0.1841499,0.187325 -0.071438,0.08255 -0.087313,0.1397 h 1.0525124 v 0.288925 z"
         id="text14"
         style="font-size:3.175px;line-height:0.8;font-family:Epilogue;-inkscape-font-specification:'Epilogue, @wght=500';font-variation-settings:'wght' 500;stroke-width:0.499999;paint-order:stroke fill markers"
         inkscape:label="head2label"
         aria-label="2" /><path
         style="font-variation-settings:'wght' 500;display:inline;fill:none;fill-opacity:1;stroke:#000000;stroke-width:0.3;stroke-linecap:butt;stroke-linejoin:round;stroke-dasharray:none;stroke-opacity:1;paint-order:normal"
         d="m 4.929998,31.063934 v -2.011203 l -2.49496,1.868125"
         id="path14"
         sodipodi:nodetypes="ccc" /></g><g
       id="g15"
       inkscape:label="head3labelgroup"
       transform="translate(0,8.4472274)"><path
         d="m 22.699661,29.872216 q 0.1397,0.0048 0.2286,0.07937 0.09049,0.07303 0.13335,0.195262 0.04445,0.12065 0.04445,0.268288 0,0.201612 -0.0762,0.366712 -0.0762,0.163513 -0.23495,0.26035 -0.157163,0.09684 -0.403225,0.09684 -0.204788,0 -0.346075,-0.05397 -0.141288,-0.05556 -0.227013,-0.155575 -0.08414,-0.1016 -0.123825,-0.2413 -0.0381,-0.1397 -0.0381,-0.307975 0,-0.0016 0,-0.0032 0,-0.0016 0,-0.0032 h 0.346075 q 0,0.0016 0,0.0032 0,0.0016 0,0.0032 0,0.185737 0.04604,0.288925 0.04763,0.103187 0.134937,0.144462 0.0889,0.03969 0.212725,0.03969 0.166688,0 0.263525,-0.10795 0.09842,-0.109538 0.09842,-0.338138 0,-0.08255 -0.01746,-0.153987 -0.01588,-0.07144 -0.05874,-0.123825 -0.04286,-0.05397 -0.119062,-0.08414 -0.07461,-0.03175 -0.192088,-0.03175 h -0.08572 v -0.261937 h 0.08572 q 0.1143,0 0.188913,-0.03016 0.0762,-0.03175 0.119062,-0.08414 0.04286,-0.05398 0.06032,-0.119063 0.01905,-0.06668 0.01905,-0.136525 0,-0.1905 -0.09684,-0.274637 -0.09684,-0.08414 -0.26035,-0.08414 -0.179388,0 -0.288925,0.09525 -0.109538,0.09525 -0.109538,0.346075 h -0.346075 q 0,-0.157162 0.04286,-0.290512 0.04445,-0.13335 0.13335,-0.231775 0.09049,-0.100013 0.230187,-0.153988 0.1397,-0.05398 0.331788,-0.05398 0.244475,0 0.401637,0.08573 0.157163,0.08573 0.233363,0.2286 0.0762,0.142875 0.0762,0.315913 0,0.131762 -0.04445,0.246062 -0.04286,0.112713 -0.13335,0.18415 -0.0889,0.07144 -0.2286,0.07779 z"
         id="text15"
         style="font-size:3.175px;line-height:0.8;font-family:Epilogue;-inkscape-font-specification:'Epilogue, @wght=500';font-variation-settings:'wght' 500;stroke-width:0.499999;paint-order:stroke fill markers"
         inkscape:label="head3label"
         aria-label="3" /><path
         style="font-variation-settings:'wght' 500;display:inline;fill:none;fill-opacity:1;stroke:#000000;stroke-width:0.3;stroke-linecap:butt;stroke-linejoin:round;stroke-dasharray:none;stroke-opacity:1;paint-order:normal"
         d="m 20.169997,31.063934 v -2.011203 l -2.49496,1.868125"
         id="path15"
         sodipodi:nodetypes="ccc" /></g><g
       id="g16"
       inkscape:label="head4labelgroup"
       transform="translate(0.3218482,8.4527845)"><path
         d="m 37.438011,31.151739 v -0.50165 h -0.957263 v -0.258762 l 0.835025,-1.5875 h 0.458788 v 1.563687 h 0.3048 v 0.282575 h -0.3048 v 0.50165 z m -0.676275,-0.61595 -0.103188,-0.168275 h 0.779463 v -1.3335 l 0.07937,0.01905 z"
         id="text16"
         style="font-size:3.175px;line-height:0.8;font-family:Epilogue;-inkscape-font-specification:'Epilogue, @wght=500';font-variation-settings:'wght' 500;stroke-width:0.499999;paint-order:stroke fill markers"
         inkscape:label="head4label"
         aria-label="4" /><path
         style="font-variation-settings:'wght' 500;display:inline;fill:none;fill-opacity:1;stroke:#000000;stroke-width:0.3;stroke-linecap:butt;stroke-linejoin:round;stroke-dasharray:none;stroke-opacity:1;paint-order:normal"
         d="m 34.981801,31.063934 v -2.011203 l -2.49496,1.868125"
         id="path16"
         sodipodi:nodetypes="ccc" /></g><path
       id="text17"
       style="font-size:3.175px;line-height:0.8;font-family:Epilogue;-inkscape-font-specification:'Epilogue, @wght=500';font-variation-settings:'wght' 500;fill:#d4d4d4;stroke-width:0.499999;paint-order:stroke fill markers"
       d="m 8.2120509,65.599161 c -0.1386417,0 -0.2669728,0.02614 -0.3855062,0.07906 -0.1185333,0.05186 -0.2221921,0.129369 -0.3110921,0.232027 -0.087842,0.1016 -0.1559553,0.226979 -0.2046387,0.376205 -0.048683,0.148166 -0.073381,0.318463 -0.073381,0.51108 0,0.191558 0.024697,0.362347 0.073381,0.51263 0.048683,0.149225 0.1167971,0.276105 0.2046387,0.379822 0.0889,0.10266 0.1920668,0.180637 0.3095418,0.234611 0.1185334,0.05291 0.2473565,0.07958 0.3870565,0.07958 0.1397,0 0.2690399,-0.02667 0.3875733,-0.07958 0.1185333,-0.05398 0.2217001,-0.131953 0.3095418,-0.234611 0.0889,-0.103717 0.1575056,-0.230597 0.206189,-0.379822 0.048683,-0.150283 0.073381,-0.321072 0.073381,-0.51263 0,-0.192617 -0.024697,-0.362914 -0.073381,-0.51108 -0.048683,-0.149221 -0.1167971,-0.2746 -0.2046387,-0.3762 C 8.8228746,65.807597 8.7192158,65.730086 8.5996242,65.678226 8.4810908,65.625306 8.3517509,65.599161 8.2120509,65.599161 Z M 3.42733,65.624483 2.8015285,67.970593 H 3.1575791 L 3.308991,67.37528 h 0.774113 l 0.1503784,0.595313 H 4.587466 l -0.6190837,-2.34611 z m -2.45618078,0.0047 v 2.34141 H 1.3080796 v -0.971517 h 0.4521687 c 0.1143,0 0.2011826,0.02568 0.2604493,0.07648 0.060325,0.04974 0.090434,0.124768 0.090434,0.225309 v 0.232027 0.22996 c 0,0.04869 0.00396,0.09164 0.011369,0.128675 0.00741,0.03704 0.015796,0.06319 0.025322,0.07906 H 2.495604 c -0.011641,-0.01376 -0.022023,-0.03941 -0.030489,-0.07751 -0.00741,-0.03916 -0.010852,-0.0826 -0.010852,-0.130225 v -0.252181 -0.251147 c 0,-0.09737 -0.018769,-0.174364 -0.05581,-0.23151 -0.037041,-0.05715 -0.083434,-0.09961 -0.1395264,-0.127124 -0.056092,-0.02755 -0.1138494,-0.04334 -0.173116,-0.04754 0.058208,-0.0064 0.1199017,-0.03301 0.1855184,-0.07958 0.066675,-0.04762 0.1234488,-0.114755 0.1700154,-0.201539 0.047625,-0.08678 0.071314,-0.191426 0.071314,-0.314192 0,-0.20955 -0.057241,-0.367031 -0.1725993,-0.471806 C 2.2246996,65.681455 2.0538862,65.629134 1.8284612,65.629134 Z m 3.56929118,0 v 0.28577 h 0.5999634 v 2.055689 h 0.3446818 v -2.055689 h 0.6015137 v -0.28577 z m 1.984375,0 v 2.34141 H 6.8643296 V 65.629134 Z M 3.697081,65.848242 4.010757,67.08951 H 3.381338 Z m 4.5149699,0.04599 c 0.1195917,0 0.226719,0.0321 0.3209107,0.0956 0.094191,0.0635 0.1682333,0.161722 0.2222086,0.295072 0.055033,0.13335 0.082682,0.304139 0.082682,0.512631 0,0.207433 -0.027157,0.37923 -0.081132,0.514697 -0.053975,0.134411 -0.1285089,0.23411 -0.2237589,0.299723 -0.094192,0.06562 -0.201319,0.0987 -0.3209107,0.0987 -0.117475,0 -0.2235936,-0.03259 -0.3188436,-0.09715 -0.094192,-0.06562 -0.1687256,-0.165315 -0.2237589,-0.299724 -0.055033,-0.135466 -0.082682,-0.307756 -0.082682,-0.516247 0,-0.208492 0.027649,-0.379281 0.082682,-0.512631 0.055033,-0.13335 0.1295673,-0.231572 0.2237589,-0.295072 0.09525,-0.0635 0.2013686,-0.0956 0.3188436,-0.0956 z m -6.9039713,0.02067 H 1.747846 c 0.1322917,0 0.2339826,0.02962 0.3048909,0.08888 0.070908,0.05927 0.1059367,0.153553 0.1059367,0.28267 0,0.08572 -0.01776,0.160749 -0.053744,0.225309 -0.034925,0.0635 -0.082327,0.113358 -0.1415934,0.149345 -0.059267,0.03493 -0.1259044,0.05219 -0.1999878,0.05219 H 1.3080796 Z" /><path
       d="m -13.054015,61.545843 v -2.341562 h 0.85725 q 0.338138,0 0.511175,0.157162 0.173038,0.157163 0.173038,0.471488 0,0.18415 -0.07144,0.314325 -0.06985,0.130175 -0.169862,0.201612 -0.09842,0.06985 -0.185738,0.07938 0.0889,0.0063 0.173038,0.04763 0.08414,0.04127 0.1397,0.127 0.05556,0.08573 0.05556,0.231775 0,0.123825 0,0.250825 0,0.127 0,0.252413 0,0.07144 0.01111,0.130175 0.0127,0.05715 0.03016,0.07779 h -0.347662 q -0.01429,-0.02381 -0.0254,-0.07938 -0.01111,-0.05556 -0.01111,-0.128587 0,-0.1143 0,-0.230188 0,-0.115887 0,-0.231775 0,-0.150812 -0.09049,-0.225425 -0.0889,-0.0762 -0.26035,-0.0762 h -0.5461 l 0.09366,-0.122237 v 1.093787 z m 0.33655,-1.122362 -0.09366,-0.134938 h 0.549275 q 0.111125,0 0.200025,-0.05239 0.0889,-0.05398 0.141287,-0.149225 0.05398,-0.09684 0.05398,-0.225425 0,-0.193675 -0.106362,-0.282575 -0.106363,-0.0889 -0.3048,-0.0889 h -0.541338 l 0.1016,-0.131763 z m 3.2543729,0.265112 q 0,0.45085 -0.220663,0.671513 -0.220662,0.219075 -0.6095999,0.219075 -0.38735,0 -0.608012,-0.219075 -0.219075,-0.220663 -0.219075,-0.671513 0,-0.06668 0,-0.141287 0,-0.0762 0,-0.15875 v -1.184275 h 0.344487 v 1.222375 q 0,0.0762 0,0.141287 0,0.06509 0,0.119063 0,0.3175 0.12065,0.458787 0.12065,0.1397 0.36195,0.1397 0.242888,0 0.3635379,-0.1397 0.122237,-0.141287 0.122237,-0.458787 v -1.482725 h 0.344488 z m 0.7635859,0.85725 h -0.334962 v -2.341562 h 0.549275 l 0.923925,2.17805 -0.04127,0.01588 v -2.193925 h 0.33655 v 2.341562 h -0.557213 l -0.92075,-2.174875 0.04445,-0.01429 z"
       id="text18"
       style="font-size:3.175px;line-height:0.8;font-family:Epilogue;-inkscape-font-specification:'Epilogue, @wght=500';font-variation-settings:'wght' 500;fill:#d4d4d4;stroke-width:0.499999;paint-order:stroke fill markers"
       aria-label="RUN" /><path
       d="m -14.558169,31.562571 v -2.341562 h 0.85725 q 0.338137,0 0.511175,0.157163 0.173037,0.157162 0.173037,0.471487 0,0.18415 -0.07144,0.314325 -0.06985,0.130175 -0.169863,0.201613 -0.09842,0.06985 -0.185737,0.07938 0.0889,0.0063 0.173037,0.04763 0.08414,0.04127 0.1397,0.126999 0.05556,0.08573 0.05556,0.231775 0,0.123825 0,0.250825 0,0.127 0,0.252413 0,0.07144 0.01111,0.130175 0.0127,0.05715 0.03016,0.07779 h -0.347663 q -0.01429,-0.02381 -0.0254,-0.07937 -0.01111,-0.05556 -0.01111,-0.128587 0,-0.1143 0,-0.230188 0,-0.115887 0,-0.231775 0,-0.150812 -0.09049,-0.225425 -0.0889,-0.0762 -0.26035,-0.0762 h -0.5461 l 0.09366,-0.122237 v 1.093787 z m 0.33655,-1.122362 -0.09366,-0.134937 h 0.549275 q 0.111125,0 0.200025,-0.05239 0.0889,-0.05397 0.141288,-0.149225 0.05398,-0.09684 0.05398,-0.225425 0,-0.193675 -0.106363,-0.282575 -0.106362,-0.0889 -0.3048,-0.0889 h -0.541345 l 0.1016,-0.131762 z m 1.787523,-0.93345 0.155575,-0.180975 v 1.0287 l -0.08255,-0.109537 h 0.887412 v 0.28575 h -0.887412 l 0.08255,-0.109538 v 1.036637 l -0.155575,-0.180975 h 1.13665 v 0.28575 h -1.32715 v -2.341562 h 1.32715 v 0.28575 z m 2.301873,2.08915 q -0.24765,0 -0.427038,-0.07779 -0.1778,-0.07779 -0.276225,-0.23495 -0.09684,-0.15875 -0.09684,-0.392112 0,-0.03016 0,-0.05239 0,-0.02222 0,-0.0508 h 0.344487 q 0,0.02699 0,0.04763 0,0.01905 0,0.04921 0,0.2159 0.115888,0.3175 0.115887,0.100012 0.338137,0.100012 0.2270127,0 0.3460747,-0.0762 0.119063,-0.07779 0.119063,-0.249237 0,-0.122238 -0.07461,-0.204788 -0.07302,-0.08414 -0.2032,-0.144462 -0.1285867,-0.06033 -0.2968617,-0.112712 -0.188913,-0.05874 -0.341313,-0.149225 -0.1524,-0.09207 -0.242887,-0.2286 -0.0889,-0.138113 -0.0889,-0.33655 0,-0.195263 0.09842,-0.331788 0.09842,-0.136525 0.27305,-0.206375 0.174625,-0.07144 0.40005,-0.07144 0.2397117,0 0.4175117,0.07461 0.179388,0.07302 0.277813,0.22225 0.100012,0.147638 0.100012,0.373063 0,0.03175 0,0.05556 0,0.02222 0,0.05556 h -0.346075 q 0,-0.02699 0,-0.04921 0,-0.02223 0,-0.04763 0,-0.206375 -0.112712,-0.29845 -0.111125,-0.09207 -0.3301997,-0.09207 -0.212725,0 -0.328613,0.07461 -0.1143,0.07461 -0.1143,0.2413 0,0.123825 0.07302,0.206375 0.07461,0.08255 0.2032,0.141287 0.130175,0.05874 0.295275,0.1143 0.2095497,0.06985 0.3603627,0.157163 0.1524,0.08731 0.23495,0.217487 0.08255,0.130175 0.08255,0.328612 0,0.200025 -0.09842,0.341313 -0.09842,0.141287 -0.277813,0.2159 -0.179387,0.07303 -0.4238617,0.07303 z m 1.3557277,-2.08915 0.155575,-0.180975 v 1.0287 l -0.08255,-0.109537 h 0.887413 v 0.28575 h -0.887413 l 0.08255,-0.109538 v 1.036637 l -0.155575,-0.180975 h 1.13665 v 0.28575 h -1.32715 v -2.341562 h 1.32715 v 0.28575 z m 3.014661,0 h -0.709612 l 0.10795,-0.180975 v 2.236787 h -0.344488 v -2.236787 l 0.119063,0.180975 h -0.719138 v -0.28575 h 1.546225 z"
       id="text19"
       style="font-size:3.175px;line-height:0.8;font-family:Epilogue;-inkscape-font-specification:'Epilogue, @wght=500';font-variation-settings:'wght' 500;fill:#d4d4d4;stroke-width:0.499999;paint-order:stroke fill markers"
       aria-label="RESET" /><path
       d="m 31.451393,67.97081 v -2.341562 h 0.85725 q 0.338137,0 0.511175,0.157162 0.173037,0.157163 0.173037,0.471488 0,0.18415 -0.07144,0.314325 -0.06985,0.130175 -0.169863,0.201612 -0.09843,0.06985 -0.185737,0.07938 0.0889,0.0063 0.173037,0.04762 0.08414,0.04127 0.1397,0.127 0.05556,0.08572 0.05556,0.231775 0,0.123825 0,0.250825 0,0.127 0,0.252413 0,0.07144 0.01111,0.130175 0.0127,0.05715 0.03016,0.07779 h -0.347663 q -0.01429,-0.02381 -0.0254,-0.07937 -0.01111,-0.05556 -0.01111,-0.128587 0,-0.1143 0,-0.230188 0,-0.115887 0,-0.231775 0,-0.150812 -0.09049,-0.225425 -0.0889,-0.0762 -0.26035,-0.0762 h -0.5461 l 0.09366,-0.122237 v 1.093787 z m 0.33655,-1.122362 -0.09366,-0.134938 h 0.549275 q 0.111125,0 0.200025,-0.05239 0.0889,-0.05398 0.141288,-0.149225 0.05398,-0.09684 0.05398,-0.225425 0,-0.193675 -0.106363,-0.282575 -0.106362,-0.0889 -0.3048,-0.0889 h -0.541337 l 0.1016,-0.131763 z m 1.493835,1.122362 0.625475,-2.346325 h 0.541338 l 0.619125,2.346325 h -0.354013 l -0.538162,-2.128837 h 0.0032 l -0.541338,2.128837 z m 0.36195,-0.595312 v -0.28575 h 1.0668 v 0.28575 z m 2.922902,-1.4605 h -0.709613 l 0.10795,-0.180975 V 67.97081 H 35.62048 v -2.236787 l 0.119062,0.180975 h -0.719137 v -0.28575 h 1.546225 z m 0.43814,2.055812 v -2.341562 h 0.339725 v 2.341562 z m 1.687513,0.03334 q -0.20955,0 -0.38735,-0.07937 -0.176213,-0.08096 -0.309563,-0.23495 -0.131762,-0.155575 -0.204787,-0.379413 -0.07302,-0.225425 -0.07302,-0.512762 0,-0.288925 0.07302,-0.511175 0.07303,-0.223838 0.204787,-0.376238 0.13335,-0.153987 0.31115,-0.231775 0.1778,-0.07938 0.385763,-0.07938 0.20955,0 0.38735,0.07938 0.179387,0.07779 0.31115,0.231775 0.131762,0.1524 0.204787,0.376238 0.07303,0.22225 0.07303,0.511175 0,0.287337 -0.07303,0.512762 -0.07303,0.223838 -0.206375,0.379413 -0.131762,0.153987 -0.309562,0.23495 -0.1778,0.07937 -0.38735,0.07937 z m 0,-0.293688 q 0.179387,0 0.320675,-0.09843 0.142875,-0.09842 0.223837,-0.300037 0.08096,-0.2032 0.08096,-0.51435 0,-0.312738 -0.08255,-0.512763 -0.08096,-0.200025 -0.22225,-0.295275 -0.141288,-0.09525 -0.320675,-0.09525 -0.176213,0 -0.319088,0.09525 -0.141287,0.09525 -0.223837,0.295275 -0.08255,0.200025 -0.08255,0.512763 0,0.312737 0.08255,0.515937 0.08255,0.201613 0.223837,0.300038 0.142875,0.09684 0.319088,0.09684 z"
       id="text20"
       style="font-size:3.175px;line-height:0.8;font-family:Epilogue;-inkscape-font-specification:'Epilogue, @wght=500';font-variation-settings:'wght' 500;fill:#d4d4d4;stroke-width:0.499999;paint-order:stroke fill markers"
       aria-label="RATIO" /><path
       d="m 2.0481045,119.4457 q -0.2476499,0 -0.4270374,-0.0778 -0.1778,-0.0778 -0.276225,-0.23495 -0.096837,-0.15875 -0.096837,-0.39211 0,-0.0302 0,-0.0524 0,-0.0222 0,-0.0508 h 0.3444875 q 0,0.027 0,0.0476 0,0.0191 0,0.0492 0,0.2159 0.1158875,0.3175 0.1158875,0.10001 0.3381374,0.10001 0.2270125,0 0.346075,-0.0762 0.1190625,-0.0778 0.1190625,-0.24924 0,-0.12223 -0.074613,-0.20478 -0.073025,-0.0841 -0.2032,-0.14447 -0.1285875,-0.0603 -0.2968625,-0.11271 -0.1889124,-0.0587 -0.3413124,-0.14922 -0.1524,-0.0921 -0.2428875,-0.2286 -0.0889,-0.13812 -0.0889,-0.33655 0,-0.19527 0.098425,-0.33179 0.098425,-0.13653 0.27305,-0.20638 0.174625,-0.0714 0.4000499,-0.0714 0.2397125,0 0.4175125,0.0746 0.1793875,0.073 0.2778125,0.22225 0.1000125,0.14764 0.1000125,0.37306 0,0.0318 0,0.0556 0,0.0222 0,0.0556 H 2.484667 q 0,-0.027 0,-0.0492 0,-0.0222 0,-0.0476 0,-0.20638 -0.1127125,-0.29845 -0.111125,-0.0921 -0.3302,-0.0921 -0.2127249,0 -0.3286124,0.0746 -0.1143,0.0746 -0.1143,0.2413 0,0.12382 0.073025,0.20637 0.074612,0.0825 0.2031999,0.14129 0.130175,0.0587 0.295275,0.1143 0.20955,0.0699 0.3603625,0.15716 0.1524,0.0873 0.23495,0.21749 0.08255,0.13017 0.08255,0.32861 0,0.20003 -0.098425,0.34131 -0.098425,0.14129 -0.2778125,0.2159 -0.1793875,0.073 -0.4238625,0.073 z m 2.5869919,-2.3749 -0.663575,1.53035 v 0.81121 H 3.6270339 v -0.81121 l -0.6604,-1.53035 h 0.365125 l 0.53975,1.33509 H 3.7302214 l 0.5381625,-1.33509 z m 0.6226206,2.34156 H 4.9227545 v -2.34156 h 0.549275 l 0.923925,2.17805 -0.041275,0.0159 v -2.19392 h 0.33655 v 2.34156 H 6.134017 l -0.92075,-2.17487 0.04445,-0.0143 z m 3.6464857,-0.82867 q 0,0.14605 -0.053975,0.29686 -0.053975,0.15081 -0.1635125,0.2794 -0.1095375,0.12859 -0.276225,0.20796 -0.1666875,0.0778 -0.3921125,0.0778 -0.3063875,0 -0.5222875,-0.15399 -0.2143125,-0.15557 -0.327025,-0.42704 -0.1127125,-0.27146 -0.1127125,-0.6223 0,-0.35242 0.1127125,-0.6223 0.1127125,-0.27146 0.327025,-0.42545 0.2159,-0.15398 0.5222875,-0.15398 0.2555875,0 0.434975,0.10001 0.180975,0.10001 0.2873375,0.25717 0.10795,0.15717 0.142875,0.32703 0.020638,0.0921 0.020638,0.17462 h -0.346075 q 0,-0.0444 -0.00794,-0.0968 -0.017462,-0.127 -0.085725,-0.23337 -0.066675,-0.10636 -0.1793875,-0.16986 -0.111125,-0.0635 -0.2667,-0.0635 -0.180975,0 -0.3190875,0.1016 -0.1381125,0.10001 -0.2159,0.30163 -0.0762,0.20161 -0.0762,0.50323 0,0.30004 0.0762,0.50324 0.077788,0.20161 0.2159,0.3048 0.1381125,0.1016 0.3190875,0.1016 0.1317625,0 0.231775,-0.0476 0.1000125,-0.0476 0.168275,-0.12859 0.068262,-0.081 0.1031875,-0.18256 0.036513,-0.1016 0.036513,-0.20955 z"
       id="text21"
       style="font-size:3.175px;line-height:1;font-family:Epilogue;-inkscape-font-specification:'Epilogue, @wght=500';font-variation-settings:'wght' 500;text-align:center;text-anchor:middle;fill:#d4d4d4;stroke-width:0.499999;paint-order:stroke fill markers"
       aria-label="SYNC" /><path
       d="m 17.288105,119.41237 q -0.24765,0 -0.427037,-0.0778 -0.1778,-0.0778 -0.276225,-0.23495 -0.09684,-0.15875 -0.09684,-0.39211 0,-0.0302 0,-0.0524 0,-0.0222 0,-0.0508 h 0.344488 q 0,0.027 0,0.0476 0,0.0191 0,0.0492 0,0.2159 0.115887,0.3175 0.115888,0.10001 0.338138,0.10001 0.227012,0 0.346075,-0.0762 0.119062,-0.0778 0.119062,-0.24924 0,-0.12224 -0.07461,-0.20479 -0.07303,-0.0841 -0.2032,-0.14446 -0.128588,-0.0603 -0.296863,-0.11271 -0.188912,-0.0587 -0.341312,-0.14923 -0.1524,-0.0921 -0.242888,-0.2286 -0.0889,-0.13811 -0.0889,-0.33655 0,-0.19526 0.09843,-0.33178 0.09842,-0.13653 0.27305,-0.20638 0.174625,-0.0714 0.40005,-0.0714 0.239713,0 0.417513,0.0746 0.179387,0.073 0.277812,0.22225 0.100013,0.14763 0.100013,0.37306 0,0.0318 0,0.0556 0,0.0222 0,0.0556 h -0.346075 q 0,-0.027 0,-0.0492 0,-0.0222 0,-0.0476 0,-0.20638 -0.112713,-0.29845 -0.111125,-0.0921 -0.3302,-0.0921 -0.212725,0 -0.328612,0.0746 -0.1143,0.0746 -0.1143,0.2413 0,0.12383 0.07302,0.20638 0.07461,0.0825 0.2032,0.14129 0.130175,0.0587 0.295275,0.1143 0.20955,0.0699 0.360362,0.15716 0.1524,0.0873 0.23495,0.21749 0.08255,0.13017 0.08255,0.32861 0,0.20002 -0.09842,0.34131 -0.09842,0.14129 -0.277812,0.2159 -0.179388,0.073 -0.423863,0.073 z m 2.586992,-2.3749 -0.663575,1.53035 v 0.81121 h -0.344488 v -0.81121 l -0.6604,-1.53035 h 0.365125 l 0.53975,1.33508 h -0.141287 l 0.538162,-1.33508 z m 0.62262,2.34156 h -0.334962 v -2.34156 h 0.549275 l 0.923925,2.17805 -0.04127,0.0159 v -2.19392 h 0.33655 v 2.34156 h -0.557213 l -0.92075,-2.17488 0.04445,-0.0143 z m 3.646486,-0.82868 q 0,0.14605 -0.05398,0.29687 -0.05398,0.15081 -0.163512,0.2794 -0.109538,0.12858 -0.276225,0.20796 -0.166688,0.0778 -0.392113,0.0778 -0.306387,0 -0.522287,-0.15399 -0.214313,-0.15558 -0.327025,-0.42704 -0.112713,-0.27146 -0.112713,-0.6223 0,-0.35242 0.112713,-0.6223 0.112712,-0.27146 0.327025,-0.42545 0.2159,-0.15399 0.522287,-0.15399 0.255588,0 0.434975,0.10002 0.180975,0.10001 0.287338,0.25717 0.10795,0.15716 0.142875,0.32703 0.02064,0.0921 0.02064,0.17462 h -0.346075 q 0,-0.0444 -0.0079,-0.0968 -0.01746,-0.127 -0.08573,-0.23336 -0.06668,-0.10636 -0.179388,-0.16986 -0.111125,-0.0635 -0.2667,-0.0635 -0.180975,0 -0.319087,0.1016 -0.138113,0.10001 -0.2159,0.30162 -0.0762,0.20162 -0.0762,0.50324 0,0.30004 0.0762,0.50324 0.07779,0.20161 0.2159,0.3048 0.138112,0.1016 0.319087,0.1016 0.131763,0 0.231775,-0.0476 0.100013,-0.0476 0.168275,-0.12858 0.06826,-0.081 0.103188,-0.18257 0.03651,-0.1016 0.03651,-0.20955 z"
       id="text23"
       style="font-size:3.175px;line-height:0.8;font-family:Epilogue;-inkscape-font-specification:'Epilogue, @wght=500';font-variation-settings:'wght' 500;fill:#d4d4d4;stroke-width:0.499999;paint-order:stroke fill markers"
       aria-label="SYNC" /><path
       d="m 32.528109,119.41237 q -0.24765,0 -0.427038,-0.0778 -0.1778,-0.0778 -0.276225,-0.23495 -0.09684,-0.15875 -0.09684,-0.39211 0,-0.0302 0,-0.0524 0,-0.0222 0,-0.0508 h 0.344487 q 0,0.027 0,0.0476 0,0.0191 0,0.0492 0,0.2159 0.115888,0.3175 0.115887,0.10001 0.338137,0.10001 0.227013,0 0.346075,-0.0762 0.119063,-0.0778 0.119063,-0.24924 0,-0.12224 -0.07461,-0.20479 -0.07303,-0.0841 -0.2032,-0.14446 -0.128587,-0.0603 -0.296862,-0.11271 -0.188913,-0.0587 -0.341313,-0.14923 -0.1524,-0.0921 -0.242887,-0.2286 -0.0889,-0.13811 -0.0889,-0.33655 0,-0.19526 0.09842,-0.33178 0.09842,-0.13653 0.27305,-0.20638 0.174625,-0.0714 0.40005,-0.0714 0.239712,0 0.417512,0.0746 0.179388,0.073 0.277813,0.22225 0.100012,0.14763 0.100012,0.37306 0,0.0318 0,0.0556 0,0.0222 0,0.0556 h -0.346075 q 0,-0.027 0,-0.0492 0,-0.0222 0,-0.0476 0,-0.20638 -0.112712,-0.29845 -0.111125,-0.0921 -0.3302,-0.0921 -0.212725,0 -0.328613,0.0746 -0.1143,0.0746 -0.1143,0.2413 0,0.12383 0.07303,0.20638 0.07461,0.0825 0.2032,0.14129 0.130175,0.0587 0.295275,0.1143 0.20955,0.0699 0.360363,0.15716 0.1524,0.0873 0.23495,0.21749 0.08255,0.13017 0.08255,0.32861 0,0.20002 -0.09842,0.34131 -0.09842,0.14129 -0.277813,0.2159 -0.179387,0.073 -0.423862,0.073 z m 2.586991,-2.3749 -0.663575,1.53035 v 0.81121 h -0.344487 v -0.81121 l -0.6604,-1.53035 h 0.365125 l 0.53975,1.33508 h -0.141288 l 0.538163,-1.33508 z m 0.622621,2.34156 h -0.334962 v -2.34156 h 0.549275 l 0.923925,2.17805 -0.04127,0.0159 v -2.19392 h 0.33655 v 2.34156 h -0.557213 l -0.92075,-2.17488 0.04445,-0.0143 z m 3.646486,-0.82868 q 0,0.14605 -0.05398,0.29687 -0.05398,0.15081 -0.163513,0.2794 -0.109537,0.12858 -0.276225,0.20796 -0.166687,0.0778 -0.392112,0.0778 -0.306388,0 -0.522288,-0.15399 -0.214312,-0.15558 -0.327025,-0.42704 -0.112712,-0.27146 -0.112712,-0.6223 0,-0.35242 0.112712,-0.6223 0.112713,-0.27146 0.327025,-0.42545 0.2159,-0.15399 0.522288,-0.15399 0.255587,0 0.434975,0.10002 0.180975,0.10001 0.287337,0.25717 0.10795,0.15716 0.142875,0.32703 0.02064,0.0921 0.02064,0.17462 h -0.346075 q 0,-0.0444 -0.0079,-0.0968 -0.01746,-0.127 -0.08573,-0.23336 -0.06667,-0.10636 -0.179387,-0.16986 -0.111125,-0.0635 -0.2667,-0.0635 -0.180975,0 -0.319088,0.1016 -0.138112,0.10001 -0.2159,0.30162 -0.0762,0.20162 -0.0762,0.50324 0,0.30004 0.0762,0.50324 0.07779,0.20161 0.2159,0.3048 0.138113,0.1016 0.319088,0.1016 0.131762,0 0.231775,-0.0476 0.100012,-0.0476 0.168275,-0.12858 0.06826,-0.081 0.103187,-0.18257 0.03651,-0.1016 0.03651,-0.20955 z"
       id="text24"
       style="font-size:3.175px;line-height:0.8;font-family:Epilogue;-inkscape-font-specification:'Epilogue, @wght=500';font-variation-settings:'wght' 500;fill:#d4d4d4;stroke-width:0.499999;paint-order:stroke fill markers"
       aria-label="SYNC" /><path
       d="m -13.188001,119.40419 q -0.24765,0 -0.427037,-0.0778 -0.1778,-0.0778 -0.276225,-0.23495 -0.09684,-0.15875 -0.09684,-0.39211 0,-0.0302 0,-0.0524 0,-0.0222 0,-0.0508 h 0.344488 q 0,0.027 0,0.0476 0,0.019 0,0.0492 0,0.2159 0.115887,0.3175 0.115888,0.10001 0.338138,0.10001 0.227012,0 0.346075,-0.0762 0.119062,-0.0778 0.119062,-0.24924 0,-0.12224 -0.07461,-0.20479 -0.07302,-0.0841 -0.2032,-0.14446 -0.128588,-0.0603 -0.296863,-0.11271 -0.188912,-0.0587 -0.341312,-0.14923 -0.1524,-0.0921 -0.242888,-0.2286 -0.0889,-0.13811 -0.0889,-0.33655 0,-0.19526 0.09842,-0.33178 0.09843,-0.13653 0.27305,-0.20638 0.174625,-0.0714 0.40005,-0.0714 0.239713,0 0.417513,0.0746 0.179387,0.073 0.277812,0.22225 0.100013,0.14763 0.100013,0.37306 0,0.0318 0,0.0556 0,0.0222 0,0.0556 h -0.346075 q 0,-0.027 0,-0.0492 0,-0.0222 0,-0.0476 0,-0.20638 -0.112713,-0.29845 -0.111125,-0.0921 -0.3302,-0.0921 -0.212725,0 -0.328612,0.0746 -0.1143,0.0746 -0.1143,0.2413 0,0.12383 0.07303,0.20638 0.07461,0.0825 0.2032,0.14129 0.130175,0.0587 0.295275,0.1143 0.20955,0.0699 0.360362,0.15716 0.1524,0.0873 0.23495,0.21749 0.08255,0.13017 0.08255,0.32861 0,0.20002 -0.09843,0.34131 -0.09843,0.14129 -0.277812,0.2159 -0.179388,0.073 -0.423863,0.073 z m 2.586992,-2.3749 -0.663575,1.53035 v 0.81121 h -0.344487 v -0.81121 l -0.6604,-1.53035 h 0.365125 l 0.53975,1.33508 h -0.141288 l 0.538163,-1.33508 z m 0.6226208,2.34156 h -0.3349628 v -2.34156 h 0.5492753 l 0.9239249,2.17805 -0.041275,0.0159 v -2.19392 h 0.33655 v 2.34156 h -0.5572125 l -0.9207497,-2.17488 0.04445,-0.0143 z m 3.6464857,-0.82868 q 0,0.14605 -0.053975,0.29687 -0.053975,0.15081 -0.1635125,0.2794 -0.1095375,0.12858 -0.276225,0.20796 -0.1666875,0.0778 -0.3921125,0.0778 -0.3063875,0 -0.5222875,-0.15399 -0.2143125,-0.15558 -0.327025,-0.42704 -0.1127125,-0.27146 -0.1127125,-0.6223 0,-0.35242 0.1127125,-0.6223 0.1127125,-0.27146 0.327025,-0.42545 0.2159,-0.15399 0.5222875,-0.15399 0.2555875,0 0.434975,0.10002 0.180975,0.10001 0.2873375,0.25717 0.10795,0.15716 0.142875,0.32703 0.020638,0.0921 0.020638,0.17462 h -0.346075 q 0,-0.0445 -0.00794,-0.0968 -0.017463,-0.127 -0.085725,-0.23336 -0.066675,-0.10636 -0.1793875,-0.16986 -0.111125,-0.0635 -0.2667,-0.0635 -0.180975,0 -0.3190875,0.1016 -0.1381125,0.10001 -0.2159,0.30162 -0.0762,0.20162 -0.0762,0.50324 0,0.30004 0.0762,0.50324 0.077788,0.20161 0.2159,0.3048 0.1381125,0.1016 0.3190875,0.1016 0.1317625,0 0.231775,-0.0476 0.1000125,-0.0476 0.168275,-0.12858 0.068263,-0.081 0.1031875,-0.18257 0.036512,-0.1016 0.036512,-0.20955 z"
       id="text25"
       style="font-size:3.175px;line-height:0.8;font-family:Epilogue;-inkscape-font-specification:'Epilogue, @wght=500';font-variation-settings:'wght' 500;fill:#d4d4d4;stroke-width:0.499999;paint-order:stroke fill markers"
       aria-label="SYNC" /><path
       d="m -14.111922,46.56363 -0.617538,-2.351088 h 0.379413 l 0.50165,2.1082 h -0.01905 l 0.4953,-2.1082 h 0.381 l -0.611188,2.351088 z m 2.54,-2.490788 -0.960438,2.727325 h -0.28575 l 0.963613,-2.727325 z m 1.223961,2.5146 q -0.20955,0 -0.38735,-0.07937 -0.176213,-0.08096 -0.309563,-0.23495 -0.131762,-0.155575 -0.204787,-0.379412 -0.07302,-0.225425 -0.07302,-0.512763 0,-0.288925 0.07302,-0.511175 0.07303,-0.223837 0.204787,-0.376237 0.13335,-0.153988 0.31115,-0.231775 0.1778,-0.07937 0.385763,-0.07937 0.20955,0 0.3873493,0.07937 0.1793875,0.07779 0.31115,0.231775 0.1317625,0.1524 0.2047875,0.376237 0.073025,0.22225 0.073025,0.511175 0,0.287338 -0.073025,0.512763 -0.073025,0.223837 -0.206375,0.379412 -0.1317625,0.153988 -0.3095625,0.23495 -0.1777993,0.07937 -0.3873493,0.07937 z m 0,-0.293687 q 0.179387,0 0.320675,-0.09842 0.1428743,-0.09843 0.2238368,-0.300038 0.080963,-0.2032 0.080963,-0.51435 0,-0.312737 -0.08255,-0.512762 -0.080963,-0.200025 -0.2222498,-0.295275 -0.141288,-0.09525 -0.320675,-0.09525 -0.176213,0 -0.319088,0.09525 -0.141287,0.09525 -0.223837,0.295275 -0.08255,0.200025 -0.08255,0.512762 0,0.312738 0.08255,0.515938 0.08255,0.201612 0.223837,0.300037 0.142875,0.09684 0.319088,0.09684 z m 3.1257846,-0.568325 q 0,0.14605 -0.053975,0.296862 -0.053975,0.150813 -0.1635125,0.2794 -0.1095375,0.128588 -0.276225,0.207963 -0.1666875,0.07779 -0.3921125,0.07779 -0.3063875,0 -0.5222875,-0.153987 -0.2143125,-0.155575 -0.327025,-0.427038 -0.1127125,-0.271462 -0.1127125,-0.6223 0,-0.352425 0.1127125,-0.6223 0.1127125,-0.271462 0.327025,-0.42545 0.2159,-0.153987 0.5222875,-0.153987 0.2555875,0 0.434975,0.100012 0.180975,0.100013 0.2873375,0.257175 0.10795,0.157163 0.142875,0.327025 0.020637,0.09208 0.020637,0.174625 h -0.346075 q 0,-0.04445 -0.00794,-0.09684 -0.017462,-0.127 -0.085725,-0.233363 -0.066675,-0.106362 -0.1793875,-0.169862 -0.111125,-0.0635 -0.2667,-0.0635 -0.180975,0 -0.3190875,0.1016 -0.1381125,0.100012 -0.2159,0.301625 -0.0762,0.201612 -0.0762,0.503237 0,0.300038 0.0762,0.503238 0.077788,0.201612 0.2159,0.3048 0.1381125,0.1016 0.3190875,0.1016 0.1317625,0 0.231775,-0.04763 0.1000125,-0.04762 0.168275,-0.128588 0.068262,-0.08096 0.1031875,-0.182562 0.036512,-0.1016 0.036512,-0.20955 z m 1.6316326,-1.227138 h -0.7096124 l 0.10795,-0.180975 v 2.236788 h -0.3444875 v -2.236788 l 0.1190625,0.180975 h -0.7191375 v -0.28575 h 1.5462249 z"
       id="text394-41-4"
       style="font-size:3.175px;line-height:0.8;font-family:Epilogue;-inkscape-font-specification:'Epilogue, @wght=500';font-variation-settings:'wght' 500;fill:#d4d4d4;stroke-width:0.499999;paint-order:stroke fill markers"
       aria-label="V/OCT" /><path
       d="m 34.287889,29.808446 v 2.341562 h -0.344487 v -1.163637 l 0.155575,0.1397 h -1.292225 l 0.155575,-0.138113 v 1.16205 h -0.344488 v -2.341562 h 0.344488 v 1.17475 l -0.155575,-0.144463 h 1.292225 l -0.155575,0.144463 v -1.17475 z m 0.701673,2.047875 h 0.97155 v 0.293687 h -1.347788 v -0.280987 l 0.957263,-1.122363 0.0048,0.01111 H 34.649875 V 30.46408 h 1.2954 v 0.280988 l -0.950913,1.119187 z"
       id="text394-41-4-5-8"
       style="font-size:3.175px;line-height:0.8;font-family:Epilogue;-inkscape-font-specification:'Epilogue, @wght=500';font-variation-settings:'wght' 500;fill:#d4d4d4;stroke-width:0.499999;paint-order:stroke fill markers"
       aria-label="Hz" /></g></svg>
